<svg width="2004" height="1000" xmlns="http://www.w3.org/2000/svg" xmlns:xlink="http://www.w3.org/1999/xlink"><defs><path id="a" d="M0 0h2004v1000H0z"/></defs><g fill="none" fill-rule="evenodd"><mask id="b" fill="#fff"><use xlink:href="#a"/></mask><path fill="#21204B" mask="url(#b)" d="M0 1000h2004V0H0z"/><path d="M1102.45 425.777a2.5 2.5 0 0 1-2.484-2.249 54.698 54.698 0 0 0-.638-4.465 2.5 2.5 0 1 1 4.916-.91c.299 1.612.533 3.252.696 4.873a2.5 2.5 0 0 1-2.236 2.738l-.254.013" fill="#F8EB33"/><path d="M1033.491 565.464a2.5 2.5 0 0 1-2.453-2.033 54.749 54.749 0 0 1-.941-8.751c-.564-21.141 10.716-35.974 22.989-48.853 2.328-2.443 4.68-4.86 7.028-7.274 12.025-12.36 23.383-24.034 31.578-38.787 5.243-9.436 8.103-19.001 8.501-28.432a2.51 2.51 0 0 1 2.604-2.392 2.5 2.5 0 0 1 2.392 2.603c-.431 10.215-3.501 20.528-9.126 30.649-8.518 15.335-20.641 27.795-32.365 39.845-2.337 2.403-4.677 4.807-6.993 7.238-11.528 12.097-22.125 25.955-21.61 45.27.071 2.663.358 5.338.855 7.95a2.5 2.5 0 0 1-2.459 2.967" fill="#F1A944"/><path d="M1037.705 578.227c-.928 0-1.819-.52-2.251-1.41a52.738 52.738 0 0 1-2.18-5.184 2.5 2.5 0 0 1 4.705-1.689 48.5 48.5 0 0 0 1.973 4.691 2.5 2.5 0 0 1-2.247 3.592" fill="#F8EB33"/><path d="M1063.657 601.42a2.5 2.5 0 0 1-.76-.119c-9.214-2.946-17.195-8.864-23.078-17.113a2.5 2.5 0 1 1 4.071-2.903c3.901 5.471 8.823 9.788 14.449 12.719-2.049-5.083-3.73-12.405-.354-18.813 3.004-5.703 9.334-9.418 18.879-11.102-11.432-4.177-28.976-11.68-42.319-22.298-.489-.389-.976-.781-1.458-1.176-22.721-18.592-33.949-42.812-32.471-70.042 1.218-22.447 9.733-43.512 23.975-59.315 15.32-17 35.906-26.751 59.532-28.2a2.484 2.484 0 0 1 1.843.652c.436.401 10.743 9.982 16.123 26.11a2.5 2.5 0 0 1-4.742 1.582c-4.156-12.454-11.659-20.845-14.027-23.279-43.345 3.194-75.233 37.054-77.712 82.722-1.387 25.571 9.209 48.359 30.646 65.901.466.381.934.759 1.405 1.133 20.294 16.151 51.956 25.175 52.274 25.264a2.501 2.501 0 0 1-.652 4.907c-14.383.148-23.673 3.418-26.865 9.458-4.385 8.296 3.243 19.906 3.321 20.023a2.502 2.502 0 0 1-2.08 3.889" fill="#FFFFFE"/><path d="M1081.271 409.089a4.808 4.808 0 0 1-4.137 5.393 4.808 4.808 0 0 1-5.393-4.137 4.808 4.808 0 0 1 4.137-5.393 4.808 4.808 0 0 1 5.393 4.137M1090.376 220.389a2.499 2.499 0 0 1-2.409-3.171c.335-1.204.625-2.443.863-3.684a2.5 2.5 0 1 1 4.91.942 50.862 50.862 0 0 1-.957 4.082 2.5 2.5 0 0 1-2.407 1.831" fill="#F8EB33"/><path d="M993.105 309.198a2.504 2.504 0 0 1-2.459-2.959 46.819 46.819 0 0 1 1.965-7.241c6.106-16.957 19.628-25.221 33.33-31.626 2.585-1.208 5.181-2.388 7.774-3.568 13.249-6.025 25.763-11.718 36.717-20.784 6.983-5.78 12.141-12.387 15.332-19.636a2.5 2.5 0 0 1 4.576 2.014c-3.506 7.967-9.132 15.192-16.721 21.473-11.466 9.492-24.87 15.588-37.834 21.485-2.577 1.172-5.157 2.344-7.726 3.546-12.725 5.947-25.256 13.551-30.743 28.79a41.759 41.759 0 0 0-1.756 6.464 2.5 2.5 0 0 1-2.455 2.042" fill="#F1A944"/><path d="M992.49 320.543a2.5 2.5 0 0 1-2.489-2.302 45.257 45.257 0 0 1-.124-4.793 2.492 2.492 0 0 1 2.566-2.431 2.5 2.5 0 0 1 2.432 2.566 40.565 40.565 0 0 0 .11 4.262 2.499 2.499 0 0 1-2.294 2.69l-.201.008" fill="#F8EB33"/><path d="M1005.802 346.793a2.49 2.49 0 0 1-1.573-.557c-6.417-5.208-10.928-12.394-13.045-20.783a2.5 2.5 0 1 1 4.847-1.222c1.286 5.093 3.573 9.674 6.717 13.511.102-4.581 1.237-10.369 5.632-14.174 3.975-3.444 9.751-4.537 17.247-3.275-7.707-6.898-18.568-17.791-25.52-29.754-.265-.46-.529-.918-.788-1.378-12.24-21.743-13.64-44.393-4.049-65.501 7.9-17.385 21.148-31.423 37.303-39.529 17.387-8.724 36.701-10.081 55.852-3.924a2.5 2.5 0 0 1 1.479 1.279c.223.453 5.435 11.255 4.708 25.711a2.493 2.493 0 0 1-2.623 2.371 2.502 2.502 0 0 1-2.371-2.623c.546-10.842-2.619-19.521-3.784-22.31-34.869-10.65-70.124 6.128-86.012 41.094-8.904 19.596-7.572 40.682 3.855 60.979.249.443.501.883.756 1.322 10.975 18.89 33.076 35.691 33.298 35.858a2.5 2.5 0 0 1-2.391 4.334c-11.233-4.255-19.419-4.56-23.677-.884-5.829 5.031-3.442 16.305-3.418 16.418a2.5 2.5 0 0 1-2.443 3.037" fill="#FFFFFE"/><path d="M1078.054 200.199a4.063 4.063 0 1 1-7.891-1.941 4.063 4.063 0 0 1 7.891 1.941M1111.737 317.861a3.501 3.501 0 0 1-3.41-2.727 90.656 90.656 0 0 1-1.51-8.529 3.5 3.5 0 0 1 3.03-3.914 3.493 3.493 0 0 1 3.914 3.029 83.502 83.502 0 0 0 1.392 7.865 3.5 3.5 0 0 1-3.416 4.276" fill="#F8EB33"/><path d="M1233.723 497.531a3.5 3.5 0 0 1-3.482-3.895c.54-4.759.615-9.597.224-14.381-2.35-28.711-20.271-47.528-39.286-63.587-3.81-3.216-7.718-6.447-11.497-9.573-19.254-15.918-39.162-32.379-54.201-53.652-5.702-8.07-10.208-16.429-13.39-24.847a3.5 3.5 0 1 1 6.547-2.477c2.973 7.865 7.2 15.699 12.56 23.283 14.499 20.512 33.173 35.953 52.944 52.298 3.794 3.137 7.715 6.38 11.552 9.621 20.171 17.033 39.19 37.104 41.747 68.364a81.152 81.152 0 0 1-.245 15.74 3.5 3.5 0 0 1-3.473 3.106" fill="#F1A944"/><path d="M1228.28 518.381a3.499 3.499 0 0 1-3.221-4.863 71.106 71.106 0 0 0 3.099-8.987 3.5 3.5 0 0 1 6.756 1.834 77.67 77.67 0 0 1-3.408 9.877 3.502 3.502 0 0 1-3.226 2.139" fill="#F8EB33"/><path d="M1195.157 552.945a3.499 3.499 0 0 1-3.101-5.124c.094-.182 9.564-18.678 1.679-30.343-5.735-8.487-20.067-11.863-41.427-9.759a3.508 3.508 0 0 1-3.743-2.651 3.5 3.5 0 0 1 2.094-4.079c.455-.184 45.843-18.622 73.277-45.785.635-.63 1.267-1.263 1.896-1.902 28.915-29.42 40.939-64.868 34.77-102.511-11.021-67.244-63.738-112.255-128.464-109.961-3.82 4.876-18.345 25.182-19.005 52.651a3.5 3.5 0 0 1-3.497 3.416l-.086-.001a3.5 3.5 0 0 1-3.415-3.583c.82-34.105 20.803-57.254 21.653-58.223a3.504 3.504 0 0 1 2.467-1.187c35.09-1.654 67.033 9.438 92.363 32.064 23.551 21.036 39.494 50.759 44.892 83.691 6.545 39.937-6.141 77.473-36.687 108.551-.649.661-1.302 1.317-1.961 1.969-18.269 18.088-43.45 32.132-59.643 40.072 14.746.834 24.915 5.294 30.333 13.333 6.116 9.074 4.606 20.411 2.312 28.235 6.954-4.551 12.978-10.627 17.695-17.906a3.499 3.499 0 0 1 4.84-1.034 3.502 3.502 0 0 1 1.035 4.841c-7.213 11.129-17.192 19.747-28.858 24.925-.457.202-.94.301-1.419.301" fill="#71C6CD"/><path d="M1138.642 271.702a7.145 7.145 0 1 0 14.285.327 7.145 7.145 0 0 0-14.285-.327" fill="#F8EB33"/><path d="M1217.798 599.86a2.5 2.5 0 0 1-1.768-4.268c53.535-53.536 83.019-124.716 83.019-200.427a2.5 2.5 0 1 1 5 0c0 77.046-30.003 149.482-84.484 203.962a2.491 2.491 0 0 1-1.767.733" fill="#71C6CD"/><path d="M1015.604 683.611c-77.045 0-149.481-30.003-203.961-84.484-54.481-54.48-84.484-126.916-84.484-203.962 0-77.047 30.003-149.481 84.484-203.961 54.481-54.48 126.916-84.484 203.961-84.484a2.5 2.5 0 1 1 0 5c-75.709 0-146.889 29.483-200.426 83.02-53.535 53.535-83.019 124.714-83.019 200.425 0 75.711 29.484 146.891 83.019 200.427 53.536 53.535 124.716 83.019 200.426 83.019 75.711 0 146.891-29.484 200.426-83.019a2.498 2.498 0 0 1 3.535 0 2.498 2.498 0 0 1 0 3.535c-54.479 54.481-126.914 84.484-203.961 84.484" fill="#71C6CD"/><path d="M1044.407 671.68c-66.165 0-128.371-25.767-175.158-72.553-46.786-46.787-72.553-108.993-72.553-175.158 0-58.559 21.531-114.445 60.623-157.364 24.194-26.484 53.228-46.496 86.298-59.487a2.5 2.5 0 0 1 1.828 4.655c-32.353 12.708-60.76 32.29-84.431 58.202-38.25 41.993-59.318 96.683-59.318 153.994 0 64.83 25.246 125.78 71.088 171.623 45.843 45.842 106.793 71.088 171.623 71.088 64.83 0 125.781-25.246 171.623-71.088a2.498 2.498 0 0 1 3.535 0 2.498 2.498 0 0 1 0 3.535c-46.787 46.786-108.993 72.553-175.158 72.553" fill="#71C6CD"/><path d="M1073.211 659.749c-55.285 0-107.262-21.529-146.356-60.622-39.092-39.093-60.622-91.069-60.622-146.355 0-40.031 13.034-79.334 36.699-110.674 10.039-13.206 21.756-24.947 34.833-34.901a2.501 2.501 0 0 1 3.029 3.978c-12.718 9.682-24.116 21.101-33.877 33.942-23.009 30.471-35.684 68.706-35.684 107.655 0 53.951 21.009 104.672 59.158 142.82 38.149 38.148 88.87 59.157 142.82 59.157 53.949 0 104.67-21.009 142.819-59.157a2.498 2.498 0 0 1 3.535 0 2.498 2.498 0 0 1 0 3.535c-39.093 39.093-91.069 60.622-146.354 60.622" fill="#71C6CD"/><path d="M1102.014 647.819c-44.406 0-86.154-17.292-117.552-48.692-31.399-31.399-48.692-73.147-48.692-117.553 0-26.705 6.488-53.269 18.764-76.819a2.5 2.5 0 0 1 4.434 2.311c-11.905 22.84-18.198 48.604-18.198 74.508 0 43.071 16.772 83.563 47.227 114.018 30.455 30.454 70.946 47.227 114.017 47.227 43.07 0 83.561-16.773 114.016-47.227a2.498 2.498 0 0 1 3.535 0 2.498 2.498 0 0 1 0 3.535c-31.398 31.4-73.146 48.692-117.551 48.692M899.82 228.044c-19.522.001-38.049-8.682-43.049-28.292-7.242-28.406 21.736-51.625 30.79-58.064 22.274-15.844 50.006-23.443 72.289-29.548a2.5 2.5 0 0 1 1.322 4.822c-21.902 6.001-49.161 13.47-70.713 28.8-8.398 5.974-35.299 27.432-28.842 52.756 6.154 24.144 34.645 26.942 52.296 22.931a2.497 2.497 0 0 1 2.991 1.884 2.498 2.498 0 0 1-1.883 2.991 68.854 68.854 0 0 1-15.201 1.72" fill="#71C6CD"/><path d="M907.161 328.391c-8.529 0-16.346-2.453-22.604-7.268-9.487-7.295-14.143-19.133-13.112-33.332 1.658-22.831 17.177-47.465 41.512-65.897a2.503 2.503 0 0 1 3.503.483 2.502 2.502 0 0 1-.483 3.503c-23.206 17.576-37.99 40.856-39.545 62.273-.906 12.468 3.062 22.77 11.172 29.007 8.853 6.808 21.505 8.103 34.712 3.548a2.5 2.5 0 1 1 1.631 4.727c-5.735 1.978-11.403 2.955-16.786 2.956" fill="#71C6CD"/><path d="M926.827 424.9c-6.793 0-13.71-2.092-19.269-8.312-24.829-27.778-1.037-76.93 13.629-95.088a2.502 2.502 0 0 1 3.89 3.143c-11.787 14.593-36.95 62.702-13.791 88.613 13.801 15.44 39.915-1.197 40.178-1.367a2.499 2.499 0 1 1 2.719 4.195c-.81.526-13.834 8.815-27.356 8.816M783.406 351.087c-6.572 0-13.114-1.922-19.154-6.324-14.735-10.74-18.277-29.505-10.83-57.367 7.291-27.282 21.836-51.55 32.754-67.104a2.5 2.5 0 0 1 4.092 2.873c-10.685 15.223-24.914 38.948-32.016 65.522-6.852 25.634-3.926 42.654 8.945 52.035 18.684 13.618 40.721-1.265 50.975-14.587a2.5 2.5 0 0 1 3.963 3.049c-9.725 12.636-24.299 21.903-38.729 21.903" fill="#71C6CD"/><path d="M843.815 430.648c-1.977 0-3.944-.176-5.89-.533-11.644-2.139-21.126-10.551-26.701-23.687-10.985-25.882-3.269-59.191 6.676-79.853a2.5 2.5 0 0 1 4.506 2.168c-9.493 19.721-16.912 51.388-6.579 75.732 4.897 11.537 13.066 18.896 23.001 20.722 10.794 1.986 22.518-2.646 32.163-12.697a2.5 2.5 0 0 1 3.608 3.461c-9.141 9.527-20.089 14.687-30.784 14.687" fill="#71C6CD"/><path d="M908.045 506.243c-2.834 0-5.797-.513-8.865-1.695-36.093-13.895-32.824-71.681-28.832-90.827a2.5 2.5 0 1 1 4.894 1.019c-3.765 18.069-7.121 72.493 25.735 85.142 19.286 7.427 34.97-19.284 35.127-19.556a2.498 2.498 0 0 1 3.413-.917 2.5 2.5 0 0 1 .92 3.412c-.628 1.091-13.716 23.422-32.392 23.422M772.966 491.831c-14.958 0-26.392-10.671-34.954-32.62-8.351-21.407-10.492-44.317-10.818-59.766a2.499 2.499 0 0 1 2.447-2.552c1.373-.044 2.523 1.066 2.551 2.446.318 15.045 2.393 37.33 10.478 58.056 7.726 19.806 17.64 29.436 30.301 29.436h.083c18.073-.06 25.091-20.093 25.398-33.546.031-1.38 1.176-2.508 2.557-2.441a2.499 2.499 0 0 1 2.441 2.557c-.435 19.048-11.011 38.366-30.379 38.43h-.105" fill="#71C6CD"/><path d="M854.153 538.727c-6.448 0-13.218-2.611-19.578-7.634-18.692-14.768-31.596-49.49-36.092-77.352a2.5 2.5 0 0 1 2.07-2.866 2.491 2.491 0 0 1 2.866 2.07c4.342 26.905 16.618 60.291 34.256 74.224 7.088 5.6 14.598 7.711 21.144 5.948 7.209-1.941 13.191-8.466 17.297-18.871a2.5 2.5 0 0 1 4.651 1.836c-5.951 15.076-14.513 20.211-20.648 21.864a22.869 22.869 0 0 1-5.966.781" fill="#71C6CD"/><path d="M936.797 583.971c-30.548 0-57.732-51.729-60.814-68.351a2.5 2.5 0 0 1 4.916-.912c2.997 16.161 29.662 64.263 55.911 64.263.153 0 .303-.002.456-.005 15.666-.334 15.776-23.858 15.775-24.096a2.499 2.499 0 0 1 2.492-2.507h.008a2.5 2.5 0 0 1 2.5 2.492c.03 9.916-4.251 28.76-20.669 29.109-.191.005-.384.007-.575.007M842.961 609.682c-6.949 0-13.522-3.07-16.446-4.436-12.398-5.788-22.723-14.762-29.202-21.272a2.5 2.5 0 0 1 3.543-3.527c6.195 6.222 16.04 14.791 27.774 20.268 11.091 5.181 18.642 5.301 23.767.38 6.606-6.346 3.782-16.779-2.23-23.374a2.502 2.502 0 0 1 .163-3.532 2.501 2.501 0 0 1 3.532.163c7.603 8.341 10.887 21.811 1.998 30.348-3.885 3.733-8.469 4.982-12.899 4.982" fill="#71C6CD"/><path d="M921.504 624.178c-3.259 0-6.642-.534-9.84-1.178-17.209-3.466-49.331-28.565-61.67-45.491a2.5 2.5 0 0 1 4.041-2.945c11.587 15.894 42.688 40.327 58.615 43.534 8.373 1.687 13.489 1.375 16.588-1.014 2.77-2.134 4.296-6.218 4.666-12.486.082-1.379 1.278-2.446 2.644-2.349a2.5 2.5 0 0 1 2.348 2.644c-.461 7.799-2.623 13.083-6.606 16.152-3.041 2.343-6.821 3.133-10.786 3.133" fill="#71C6CD"/><path d="M986.734 633.456c-20.173 0-45.945-18.863-52.319-27.191a2.5 2.5 0 1 1 3.971-3.039c7.301 9.541 40.689 32.169 57.504 23.176 2.105-1.127 3.313-2.593 3.692-4.484.938-4.675-3.251-11.089-4.944-13.166a2.5 2.5 0 0 1 3.869-3.166c.309.377 7.564 9.346 5.98 17.301-.677 3.405-2.777 6.071-6.238 7.923-3.457 1.849-7.368 2.646-11.515 2.646M970.66 678.804c-3.615 0-7.062-.167-10.236-.501a2.501 2.501 0 0 1-2.225-2.748 2.506 2.506 0 0 1 2.748-2.225c5.85.617 12.713.631 19.854.048 5.984-.491 9.421-1.905 10.214-4.204.122-.353.097-.612-.091-.953-.897-1.626-4.678-3.503-9.195-4.565a2.5 2.5 0 1 1 1.144-4.867c2.957.696 10.088 2.77 12.43 7.018.87 1.578 1.021 3.307.438 4.998-2.261 6.551-11.497 7.308-14.532 7.556-3.605.295-7.151.443-10.549.443" fill="#71C6CD"/><path d="M1012.181 667.376c-10.629 0-23.53-1.41-30.668-3.78a2.5 2.5 0 1 1 1.576-4.745c9.889 3.284 33.634 4.663 41.651 2.423 1.49-.417 6.027-1.688 6.553-3.107.117-.315.217-1.307-1.38-3.707a2.5 2.5 0 1 1 4.162-2.769c2.141 3.215 2.764 5.903 1.905 8.216-1.303 3.514-5.601 4.98-9.892 6.181-3.152.882-8.203 1.288-13.907 1.288" fill="#71C6CD"/><path d="M1044.444 656.864c-5.689 0-10.726-.635-13.191-1.401a2.5 2.5 0 0 1-1.647-3.129 2.505 2.505 0 0 1 3.129-1.646c5.817 1.806 27.716 2.134 32.585-4.271.149-.195.388-.552.32-.756-.339-1.011-3.05-2.457-5.246-3.074a2.5 2.5 0 1 1 1.351-4.814c1.203.338 7.272 2.229 8.635 6.3.42 1.251.573 3.2-1.08 5.372-4.332 5.696-15.48 7.419-24.856 7.419M1024.27 109.22a8.666 8.666 0 1 1-17.332 0 8.666 8.666 0 0 1 17.332 0M953.196 209.446a8.665 8.665 0 1 1-17.33 0 8.665 8.665 0 0 1 17.33 0M947.944 309.186a8.665 8.665 0 1 1-17.33 0 8.665 8.665 0 0 1 17.33 0M965.416 405.91a8.665 8.665 0 1 1-17.33 0 8.665 8.665 0 0 1 17.33 0" fill="#71C6CD"/><path d="M1118.736 128.164c-1.423 0-2.87.229-4.292.709a13.343 13.343 0 0 0-7.733 6.768 13.339 13.339 0 0 0-.684 10.254 13.345 13.345 0 0 0 6.768 7.734 13.347 13.347 0 0 0 10.254.684c7.014-2.372 10.79-10.009 8.418-17.023-1.892-5.592-7.13-9.126-12.731-9.126zm-.006 31.866a18.346 18.346 0 0 1-8.152-1.919 18.308 18.308 0 0 1-9.287-10.615 18.302 18.302 0 0 1 .938-14.071 18.301 18.301 0 0 1 10.614-9.288c9.626-3.254 20.106 1.928 23.36 11.552a18.305 18.305 0 0 1-.938 14.072 18.306 18.306 0 0 1-10.615 9.288 18.46 18.46 0 0 1-5.92.981zM1146.748 177.717c-.799 0-1.601.131-2.379.394-3.867 1.308-5.949 5.518-4.64 9.385 1.308 3.868 5.517 5.948 9.385 4.642a7.355 7.355 0 0 0 4.264-3.732 7.35 7.35 0 0 0 .377-5.653 7.357 7.357 0 0 0-3.732-4.265 7.377 7.377 0 0 0-3.275-.771zm-.018 19.817a12.35 12.35 0 0 1-5.487-1.292 12.319 12.319 0 0 1-6.251-7.144 12.322 12.322 0 0 1 .631-9.472 12.325 12.325 0 0 1 7.145-6.252 12.323 12.323 0 0 1 9.472.632 12.32 12.32 0 0 1 6.251 7.145 12.315 12.315 0 0 1-.631 9.471 12.32 12.32 0 0 1-7.143 6.252c-1.305.442-2.649.66-3.987.66zM1147.545 560.808c-1.4 0-2.792.323-4.084.962a9.175 9.175 0 0 0-4.655 5.319 9.181 9.181 0 0 0 .469 7.052 9.175 9.175 0 0 0 5.32 4.654 9.181 9.181 0 0 0 7.052-.47 9.172 9.172 0 0 0 4.655-5.319 9.177 9.177 0 0 0-.47-7.052 9.173 9.173 0 0 0-5.319-4.654 9.273 9.273 0 0 0-2.968-.492zm.021 23.481c-1.535 0-3.076-.252-4.573-.758a14.134 14.134 0 0 1-8.199-7.173 14.146 14.146 0 0 1-.725-10.871c2.516-7.437 10.609-11.438 18.046-8.923a14.133 14.133 0 0 1 8.198 7.174 14.138 14.138 0 0 1 .725 10.87 14.142 14.142 0 0 1-7.174 8.199 14.178 14.178 0 0 1-6.298 1.482zM1119.112 604.084h.01-.01zm-6.908-7.135a4.805 4.805 0 0 0-4.548 3.26 4.803 4.803 0 0 0 3.007 6.081 4.8 4.8 0 0 0 6.081-3.008 4.802 4.802 0 0 0-4.54-6.333zm-.013 14.594a9.761 9.761 0 0 1-3.129-.516 9.728 9.728 0 0 1-5.643-4.938 9.729 9.729 0 0 1-.499-7.481 9.73 9.73 0 0 1 4.937-5.643 9.727 9.727 0 0 1 7.482-.499 9.729 9.729 0 0 1 5.642 4.938 9.724 9.724 0 0 1 .499 7.481v.001c-1.38 4.079-5.203 6.657-9.289 6.657z" fill="#FFFFFE"/><path d="M657.32 829.2c-7.76 0-14.24-1.74-19.44-5.22-5.2-3.48-8.6-7.9-10.2-13.26l2.04-1.2c1.44 5.2 4.58 9.42 9.42 12.66s10.9 4.86 18.18 4.86c7.76 0 13.66-1.9 17.7-5.7 4.04-3.8 6.06-8.58 6.06-14.34 0-5.12-2.06-9.22-6.18-12.3-4.12-3.08-10.1-5.78-17.94-8.1-4.24-1.2-7.72-2.36-10.44-3.48a47.125 47.125 0 0 1-7.92-4.2c-2.56-1.68-4.46-3.72-5.7-6.12-1.24-2.4-1.86-5.16-1.86-8.28 0-6.08 2.3-11.22 6.9-15.42 4.6-4.2 10.54-6.3 17.82-6.3 6.4 0 11.74 1.56 16.02 4.68 4.28 3.12 7.38 7.2 9.3 12.24l-1.92 1.08c-4.08-10.56-11.88-15.84-23.4-15.84-6.96 0-12.42 1.96-16.38 5.88-3.96 3.92-5.94 8.48-5.94 13.68 0 2.32.48 4.42 1.44 6.3s2.04 3.42 3.24 4.62c1.2 1.2 3.08 2.42 5.64 3.66 2.56 1.24 4.7 2.18 6.42 2.82 1.72.64 4.3 1.52 7.74 2.64 8.4 2.72 14.76 5.72 19.08 9 4.32 3.28 6.48 7.76 6.48 13.44 0 6.64-2.34 12-7.02 16.08-4.68 4.08-11.06 6.12-19.14 6.12zm89.66-85.2c7.44 0 13.6 2.4 18.48 7.2 4.88 4.8 7.32 10.8 7.32 18 0 7.2-2.44 13.2-7.32 18-4.88 4.8-11.04 7.2-18.48 7.2h-23.4V828h-2.4v-84h25.8zm0 48.24c6.8 0 12.4-2.18 16.8-6.54 4.4-4.36 6.6-9.86 6.6-16.5 0-6.64-2.2-12.14-6.6-16.5-4.4-4.36-10-6.54-16.8-6.54h-23.4v46.08h23.4zM860.52 828l-9-22.92H805.2l-9 22.92h-2.52l33.24-84h2.88l33.24 84h-2.52zm-54.48-25.08h44.64l-22.32-56.4-22.32 56.4zm127.7 26.28c-12.4 0-22.7-4.18-30.9-12.54s-12.3-18.58-12.3-30.66c0-12.08 4.1-22.3 12.3-30.66 8.2-8.36 18.5-12.54 30.9-12.54 7.44 0 14.3 1.74 20.58 5.22 6.28 3.48 11.18 8.18 14.7 14.1l-2.04 1.2c-3.28-5.6-7.88-10.06-13.8-13.38-5.92-3.32-12.4-4.98-19.44-4.98-11.76 0-21.5 3.96-29.22 11.88-7.72 7.92-11.58 17.64-11.58 29.16s3.86 21.24 11.58 29.16c7.72 7.92 17.46 11.88 29.22 11.88 7.28 0 13.94-1.74 19.98-5.22 6.04-3.48 10.62-8.14 13.74-13.98l2.16 1.2c-3.44 6.16-8.36 11.06-14.76 14.7-6.4 3.64-13.44 5.46-21.12 5.46zm75.98-3.36h44.4V828h-46.8v-84h46.2v2.16h-43.8v38.4h40.8v2.16h-40.8v39.12zm127.7-79.68h-42.6v38.88h42v2.16h-42V828h-2.4v-84h45v2.16zm38.3-2.16h2.4v84h-2.4v-84zm69.74 85.2c-7.76 0-14.24-1.74-19.44-5.22-5.2-3.48-8.6-7.9-10.2-13.26l2.04-1.2c1.44 5.2 4.58 9.42 9.42 12.66s10.9 4.86 18.18 4.86c7.76 0 13.66-1.9 17.7-5.7 4.04-3.8 6.06-8.58 6.06-14.34 0-5.12-2.06-9.22-6.18-12.3-4.12-3.08-10.1-5.78-17.94-8.1-4.24-1.2-7.72-2.36-10.44-3.48a47.124 47.124 0 0 1-7.92-4.2c-2.56-1.68-4.46-3.72-5.7-6.12-1.24-2.4-1.86-5.16-1.86-8.28 0-6.08 2.3-11.22 6.9-15.42 4.6-4.2 10.54-6.3 17.82-6.3 6.4 0 11.74 1.56 16.02 4.68 4.28 3.12 7.38 7.2 9.3 12.24l-1.92 1.08c-4.08-10.56-11.88-15.84-23.4-15.84-6.96 0-12.42 1.96-16.38 5.88-3.96 3.92-5.94 8.48-5.94 13.68 0 2.32.48 4.42 1.44 6.3s2.04 3.42 3.24 4.62c1.2 1.2 3.08 2.42 5.64 3.66 2.56 1.24 4.7 2.18 6.42 2.82 1.72.64 4.3 1.52 7.74 2.64 8.4 2.72 14.76 5.72 19.08 9 4.32 3.28 6.48 7.76 6.48 13.44 0 6.64-2.34 12-7.02 16.08-4.68 4.08-11.06 6.12-19.14 6.12zm122.06-85.2h2.4v84h-2.4v-42.12h-55.2V828h-2.4v-84h2.4v39.72h55.2V744z" fill="#F8EB33"/><path d="M692.45 871.08h-21.3v19.44h21v1.08h-21V912h-1.2v-42h22.5v1.08zM711.6 870h1.2v42h-1.2v-42zm34.87 42.6c-3.88 0-7.12-.87-9.72-2.61-2.6-1.74-4.3-3.95-5.1-6.63l1.02-.6c.72 2.6 2.29 4.71 4.71 6.33s5.45 2.43 9.09 2.43c3.88 0 6.83-.95 8.85-2.85 2.02-1.9 3.03-4.29 3.03-7.17 0-2.56-1.03-4.61-3.09-6.15-2.06-1.54-5.05-2.89-8.97-4.05-2.12-.6-3.86-1.18-5.22-1.74-1.36-.56-2.68-1.26-3.96-2.1-1.28-.84-2.23-1.86-2.85-3.06-.62-1.2-.93-2.58-.93-4.14 0-3.04 1.15-5.61 3.45-7.71 2.3-2.1 5.27-3.15 8.91-3.15 3.2 0 5.87.78 8.01 2.34 2.14 1.56 3.69 3.6 4.65 6.12l-.96.54c-2.04-5.28-5.94-7.92-11.7-7.92-3.48 0-6.21.98-8.19 2.94-1.98 1.96-2.97 4.24-2.97 6.84 0 1.16.24 2.21.72 3.15s1.02 1.71 1.62 2.31c.6.6 1.54 1.21 2.82 1.83 1.28.62 2.35 1.09 3.21 1.41.86.32 2.15.76 3.87 1.32 4.2 1.36 7.38 2.86 9.54 4.5 2.16 1.64 3.24 3.88 3.24 6.72 0 3.32-1.17 6-3.51 8.04-2.34 2.04-5.53 3.06-9.57 3.06zM807.2 870h1.2v42h-1.2v-21.06h-27.6V912h-1.2v-42h1.2v19.86h27.6V870zm63.62 42.6c-3.88 0-7.12-.87-9.72-2.61-2.6-1.74-4.3-3.95-5.1-6.63l1.02-.6c.72 2.6 2.29 4.71 4.71 6.33s5.45 2.43 9.09 2.43c3.88 0 6.83-.95 8.85-2.85 2.02-1.9 3.03-4.29 3.03-7.17 0-2.56-1.03-4.61-3.09-6.15-2.06-1.54-5.05-2.89-8.97-4.05-2.12-.6-3.86-1.18-5.22-1.74-1.36-.56-2.68-1.26-3.96-2.1-1.28-.84-2.23-1.86-2.85-3.06-.62-1.2-.93-2.58-.93-4.14 0-3.04 1.15-5.61 3.45-7.71 2.3-2.1 5.27-3.15 8.91-3.15 3.2 0 5.87.78 8.01 2.34 2.14 1.56 3.69 3.6 4.65 6.12l-.96.54c-2.04-5.28-5.94-7.92-11.7-7.92-3.48 0-6.21.98-8.19 2.94-1.98 1.96-2.97 4.24-2.97 6.84 0 1.16.24 2.21.72 3.15s1.02 1.71 1.62 2.31c.6.6 1.54 1.21 2.82 1.83 1.28.62 2.35 1.09 3.21 1.41.86.32 2.15.76 3.87 1.32 4.2 1.36 7.38 2.86 9.54 4.5 2.16 1.64 3.24 3.88 3.24 6.72 0 3.32-1.17 6-3.51 8.04-2.34 2.04-5.53 3.06-9.57 3.06zm60.73-42.6h1.2v42h-1.2v-21.06h-27.6V912h-1.2v-42h1.2v19.86h27.6V870zm24.55 40.92h22.2V912h-23.4v-42H978v1.08h-21.9v19.2h20.4v1.08h-20.4v19.56zm42.55 0h21V912h-22.2v-42h1.2v40.92zm40.15 0h21V912h-22.2v-42h1.2v40.92zm91.7-40.92v1.08h-13.8V912h-1.2v-40.92h-13.8V870h28.8zm46.75 0h1.2v42h-1.2v-21.06h-27.6V912h-1.2v-42h1.2v19.86h27.6V870zm24.55 40.92h22.2V912h-23.4v-42h23.1v1.08h-21.9v19.2h20.4v1.08h-20.4v19.56zm78.55-40.92v42h-1.2v-40.38l-17.16 27.84h-.48l-17.16-27.84V912h-1.2v-42h1.56l17.04 27.72 17.04-27.72h1.56zm23.35 40.92h22.2V912h-23.4v-42h23.1v1.08h-21.9v19.2h20.4v1.08h-20.4v19.56z" fill="#71C6CD"/></g></svg>
