<svg viewBox="0 0 1895 680" xmlns="http://www.w3.org/2000/svg" xmlns:xlink="http://www.w3.org/1999/xlink"><defs><path id="a" d="M0 0h1895v680H0z"/></defs><g fill="none" fill-rule="evenodd"><mask id="b" fill="#fff"><use xlink:href="#a"/></mask><path fill="#21204B" fill-rule="nonzero" mask="url(#b)" d="M0 680h1895V0H0z"/><g fill-rule="nonzero"><path d="M514.4 373c-1.4 0-2.5-1-2.7-2.3a55 55 0 0 0-.6-4.6c-.2-1 .1-1.9.8-2.5.7-.6 1.7-.8 2.6-.4 1 .3 1.6 1 1.8 2l.7 5c.1 1.4-1 2.6-2.4 2.8h-.2" fill="#F8EB33"/><path d="M445.4 513c-1.2 0-2.2-.9-2.4-2-.6-3-.9-5.9-1-8.8-.5-21.2 10.7-36.1 23-49 2.3-2.5 4.6-5 7-7.3 12-12.4 23.3-24.2 31.5-39 5.3-9.4 8.1-19 8.5-28.5 0-1.4 1.2-2.5 2.6-2.4 1.4 0 2.5 1.2 2.4 2.6a69.5 69.5 0 0 1-9.1 30.8c-8.5 15.4-20.6 27.9-32.3 40l-7 7.2c-11.5 12.2-22.1 26-21.6 45.4 0 2.7.4 5.4.9 8a2.5 2.5 0 0 1-2.5 3" fill="#F1A944"/><path d="M449.5 525c-.9 0-1.8-.5-2.2-1.4l-2.2-5.3c-.4-1.3.3-2.7 1.5-3.2 1.3-.4 2.7.2 3.2 1.5.6 1.6 1.2 3.2 2 4.8.3.8.3 1.7-.2 2.4-.4.8-1.2 1.2-2 1.2" fill="#F8EB33"/><path d="M475.3 548l-.7-.1c-9.3-3-17.3-8.9-23.2-17.1a2.5 2.5 0 0 1 1.8-4c1 0 1.8.4 2.3 1.1 4 5.5 8.9 9.8 14.5 12.7-2-5-3.7-12.4-.3-18.8 3-5.7 9.3-9.4 18.9-11a159.4 159.4 0 0 1-44-23.5 82.1 82.1 0 0 1-32.5-70 96 96 0 0 1 24-59.1c15.4-17 36-26.7 59.8-28.2.6 0 1.3.2 1.8.7.5.4 10.8 10 16.2 26 .4 1.3-.3 2.7-1.6 3.1-1.3.5-2.7-.2-3.2-1.5a63.6 63.6 0 0 0-14-23.2c-43.5 3.2-75.5 37-78 82.5a77.3 77.3 0 0 0 32.2 67c20.3 16 52 25.1 52.4 25.2a2.5 2.5 0 0 1-.7 4.9c-14.4.1-23.7 3.4-26.9 9.4-4.4 8.3 3.3 19.9 3.3 20a2.5 2.5 0 0 1-2 3.9" fill="#FFFFFE"/><path d="M493.5 355.6c.4 2.6-1.5 5-4 5.4-2.7.3-5.1-1.5-5.5-4.2-.3-2.6 1.5-5 4.2-5.4 2.6-.3 5 1.5 5.3 4.2m9.1-188.7a2.5 2.5 0 0 1-2.4-3.2l.9-3.6a2.5 2.5 0 0 1 4-1.5c.7.6 1 1.5.8 2.4a51 51 0 0 1-.9 4c-.3 1.2-1.3 2-2.4 2" fill="#F8EB33"/><path d="M405.5 256a2.5 2.5 0 0 1-2.5-3c.5-2.4 1.2-4.8 2-7.2 6.1-16.9 19.6-25.1 33.4-31.5l7.7-3.5A158 158 0 0 0 483 190c7-5.7 12.1-12.3 15.3-19.5a2.5 2.5 0 0 1 4.6 2c-3.5 8-9.1 15.1-16.7 21.4-11.5 9.4-25 15.5-37.9 21.4l-7.7 3.5c-12.8 6-25.3 13.5-30.8 28.7-.7 2.1-1.3 4.3-1.7 6.5-.3 1.1-1.3 2-2.5 2" fill="#F1A944"/><path d="M404.6 268c-1.3 0-2.4-1-2.5-2.4v-5c0-.7.2-1.4.7-1.9.4-.5 1-.7 1.7-.7 1.4 0 2.4 1.2 2.4 2.7v4.5c.1.7 0 1.3-.5 1.9-.4.5-1 .8-1.6.9h-.2" fill="#F8EB33"/><path d="M417.9 293c-.6 0-1.2-.2-1.6-.6a38.5 38.5 0 0 1-13-20.7c-.3-.9 0-1.8.6-2.4a2.5 2.5 0 0 1 4.2 1.2c1.3 5 3.6 9.6 6.7 13.5.1-4.6 1.2-10.4 5.7-14.2 4-3.4 9.7-4.5 17.3-3.2a132.4 132.4 0 0 1-25.6-29.7l-.8-1.4a69.6 69.6 0 0 1-4-65.4 81.9 81.9 0 0 1 37.3-39.4 73.2 73.2 0 0 1 56-4c.7.3 1.2.8 1.5 1.4.2.4 5.5 11.2 4.7 25.6a2.5 2.5 0 0 1-2.6 2.4 2.5 2.5 0 0 1-2.4-2.6 53 53 0 0 0-3.8-22.3c-35-10.6-70.3 6.1-86.2 41a64.8 64.8 0 0 0 4.6 62.2c11 18.8 33.2 35.6 33.4 35.7 1 .8 1.3 2.2.7 3.2-.6 1.1-2 1.6-3.1 1.2-11.3-4.3-19.5-4.6-23.8-1-5.8 5.1-3.4 16.4-3.4 16.5a2.5 2.5 0 0 1-2.4 3" fill="#FFFFFE"/><path d="M490 147a4 4 0 1 1-7.9-1.9 4 4 0 1 1 6.7-2 4 4 0 0 1 1.2 4M523.5 265c-1.6 0-3-1.1-3.4-2.7-.6-2.9-1.1-5.7-1.5-8.6a3.5 3.5 0 0 1 3-4 3.5 3.5 0 0 1 4 3.1c.3 2.7.7 5.3 1.3 8 .2 1 0 2-.7 2.9-.6.8-1.6 1.3-2.7 1.3" fill="#F8EB33"/><path d="M646 445a3.5 3.5 0 0 1-3.5-3.9c.6-4.8.6-9.6.2-14.4-2.3-28.8-20.2-47.6-39.3-63.7l-11.5-9.6c-19.3-16-39.2-32.4-54.3-53.7a112 112 0 0 1-13.4-25 3.5 3.5 0 1 1 6.6-2.4 105 105 0 0 0 12.6 23.3c14.5 20.6 33.2 36 53 52.4l11.5 9.6c20.2 17.1 39.3 37.2 41.8 68.5.5 5.3.4 10.6-.2 15.8a3.5 3.5 0 0 1-3.5 3.1" fill="#F1A944"/><path d="M640.4 465a3.4 3.4 0 0 1-3.1-4.7c1.2-2.9 2.2-5.8 3-8.8a3.4 3.4 0 0 1 6.6 1.8c-1 3.3-2 6.5-3.3 9.6-.6 1.3-1.8 2.1-3.2 2.1" fill="#F8EB33"/><path d="M607 500a3.5 3.5 0 0 1-3.1-5.1c0-.2 9.6-18.7 1.7-30.3-5.8-8.5-20-11.9-41.4-9.8a3.5 3.5 0 0 1-1.7-6.7c.5-.2 45.8-18.6 73.3-45.8l1.9-1.9c28.9-29.4 40.9-64.8 34.7-102.4-11-67.2-63.7-112.2-128.4-110a93.2 93.2 0 0 0-19 52.7c0 1.9-1.6 3.4-3.5 3.4a3.5 3.5 0 0 1-3.5-3.6c.8-34 20.8-57.2 21.6-58.2.7-.7 1.6-1 2.5-1.1 35-1.7 67 9.4 92.3 32a143 143 0 0 1 45 83.6c6.5 40-6.2 77.5-36.8 108.5l-2 2a236.8 236.8 0 0 1-59.5 40c14.7.9 24.9 5.3 30.3 13.4 6.1 9 4.6 20.4 2.3 28.2 7-4.6 13-10.6 17.7-18a3.5 3.5 0 0 1 5.9 3.9 66.7 66.7 0 0 1-28.9 24.9c-.4.2-1 .3-1.4.3" fill="#71C6CD"/><path d="M551 218.7a7 7 0 1 0 14 .6 7 7 0 0 0-14-.6" fill="#F8EB33"/><path d="M629.5 547c-1 0-2-.6-2.3-1.5-.4-1-.2-2 .5-2.8A280.8 280.8 0 0 0 711 342.5a2.5 2.5 0 0 1 5 0c0 77-30 149.3-84.7 203.8-.5.4-1.1.7-1.8.7" fill="#71C6CD"/><path d="M427.4 631c-77 0-149.5-30-204-84.5a286.7 286.7 0 0 1-84.4-204c0-77 30-149.5 84.5-204A286.4 286.4 0 0 1 427.4 54a2.5 2.5 0 0 1 0 5A281.4 281.4 0 0 0 227 142a281.7 281.7 0 0 0-83 200.5c0 75.7 29.5 147 83 200.5a281.4 281.4 0 0 0 200.4 83c75.7 0 146.8-29.5 200.3-83a2.5 2.5 0 1 1 3.6 3.5 286.4 286.4 0 0 1-204 84.5" fill="#71C6CD"/><path d="M457 619a246.4 246.4 0 0 1-175.4-72.6A246.2 246.2 0 0 1 209 371.1a233.1 233.1 0 0 1 147-217 2.5 2.5 0 0 1 1.9 4.7A228.1 228.1 0 0 0 214 371.1c0 65 25.3 125.9 71.2 171.8A241.4 241.4 0 0 0 456.9 614c65 0 126-25.3 171.8-71.1a2.5 2.5 0 1 1 3.6 3.5A246.4 246.4 0 0 1 456.9 619" fill="#71C6CD"/><path d="M485 607a205.6 205.6 0 0 1-146.4-60.6c-39-39.1-60.6-91-60.6-146.4 0-40 13-79.3 36.7-110.6a183 183 0 0 1 34.8-35 2.5 2.5 0 0 1 3 4 178 178 0 0 0-33.8 34A179.5 179.5 0 0 0 283 400c0 54 21 104.7 59.1 142.8A200.6 200.6 0 0 0 485 602c54 0 104.7-21 142.8-59.2a2.5 2.5 0 1 1 3.6 3.6c-39.1 39-91 60.6-146.4 60.6" fill="#71C6CD"/><path d="M514.6 595c-44.4 0-86.2-17.3-117.6-48.7a166.9 166.9 0 0 1-30-194.5 2.5 2.5 0 0 1 4.4 2.3 161.8 161.8 0 0 0 29 188.7C431 573.2 471.6 590 514.7 590c43.1 0 83.6-16.8 114.1-47.2a2.5 2.5 0 1 1 3.6 3.5A165.3 165.3 0 0 1 514.6 595M312.2 175c-19.5 0-38-8.6-43-28.3-7.3-28.4 21.7-51.6 30.8-58 22.3-15.9 50-23.5 72.3-29.6a2.5 2.5 0 0 1 1.3 4.8c-21.9 6-49.2 13.5-70.7 28.8-8.4 6-35.4 27.5-28.9 52.8 6.2 24.2 34.7 27 52.3 23a2.5 2.5 0 1 1 1.2 4.8 69 69 0 0 1-15.3 1.7" fill="#71C6CD"/><path d="M318.6 275c-8.4 0-16.2-2.5-22.4-7.3-9.5-7.3-14-19.1-13-33.3 1.6-22.8 17-47.5 41.2-65.9 1.1-.8 2.7-.6 3.5.5.8 1 .6 2.7-.5 3.5-23 17.6-37.8 40.8-39.3 62.3-.9 12.4 3 22.7 11.1 29 8.8 6.8 21.4 8 34.5 3.5 1.3-.4 2.7.3 3.2 1.6.4 1.3-.3 2.7-1.6 3.1a51 51 0 0 1-16.7 3" fill="#71C6CD"/><path d="M339.5 372c-6.8 0-13.8-2.1-19.3-8.3-25-27.9-1-77 13.6-95.3a2.5 2.5 0 0 1 4 3.2c-11.9 14.6-37.1 62.8-14 88.7 14 15.5 40-1.2 40.3-1.3a2.5 2.5 0 1 1 2.8 4.2c-.9.5-13.9 8.8-27.4 8.8m-143.7-74a32 32 0 0 1-19.2-6.3c-14.7-10.7-18.3-29.5-10.8-57.4a221.4 221.4 0 0 1 32.8-67.2 2.5 2.5 0 0 1 4 2.8c-10.6 15.3-24.9 39-32 65.7-6.8 25.6-4 42.7 9 52 18.7 13.7 40.8-1.2 51-14.5a2.5 2.5 0 1 1 4 3c-9.7 12.7-24.3 22-38.8 22" fill="#71C6CD"/><path d="M255.7 377c-2 0-3.9-.2-5.8-.5-11.6-2.2-21-10.5-26.6-23.6-10.9-25.8-3.2-59 6.7-79.5a2.5 2.5 0 1 1 4.5 2.2c-9.5 19.6-16.9 51.1-6.6 75.3 4.9 11.5 13 18.9 22.9 20.7 10.7 2 22.4-2.7 32-12.7a2.5 2.5 0 0 1 3.5 3.5c-9 9.5-20 14.6-30.6 14.6" fill="#71C6CD"/><path d="M320.2 453c-2.8 0-5.8-.5-8.9-1.7-36.1-13.8-32.9-71.4-28.9-90.5.2-1 .8-1.6 1.7-2 .9-.2 1.8 0 2.5.6s1 1.5.7 2.4c-3.7 18-7 72.3 25.8 84.9 19.4 7.4 35-19.3 35.2-19.5a2.5 2.5 0 0 1 4.4 2.5c-.7 1-13.8 23.3-32.5 23.3M185 438.6c-15 0-26.5-10.6-35-32.5a178.3 178.3 0 0 1-10.9-59.6 2.5 2.5 0 0 1 2.5-2.5c1.3 0 2.5 1 2.5 2.4.3 15 2.4 37.2 10.5 58 7.7 19.7 17.7 29.3 30.4 29.3 18.2-.1 25.2-20 25.5-33.5 0-1.4 1.2-2.5 2.6-2.4a2.5 2.5 0 0 1 2.4 2.5c-.4 19-11 38.3-30.4 38.3h-.1" fill="#71C6CD"/><path d="M265.4 486c-6.4 0-13.2-2.6-19.5-7.6-18.6-14.8-31.4-49.6-35.9-77.5-.2-1.4.7-2.6 2-2.9a2.5 2.5 0 0 1 3 2.1c4.3 27 16.5 60.4 34 74.3 7 5.6 14.5 7.7 21 6 7.2-2 13.1-8.5 17.2-19 .5-1.2 2-1.8 3.2-1.3 1.3.5 2 2 1.4 3.2-5.9 15.1-14.4 20.3-20.5 22-2 .4-4 .7-6 .7" fill="#71C6CD"/><path d="M348.8 531.3c-30.5 0-57.6-51.7-60.6-68.4a2.5 2.5 0 0 1 4.9-.9c3 16.2 29.5 64.3 55.7 64.3h.5c15.6-.3 15.7-23.9 15.7-24.1a2.5 2.5 0 0 1 2.5-2.5c1.4 0 2.5 1.1 2.5 2.5 0 9.9-4.2 28.7-20.6 29h-.6M255.2 557c-7 0-13.5-3-16.4-4.4a106.6 106.6 0 0 1-29.1-21.3c-1-1-1-2.6 0-3.5 1-1 2.6-1 3.5 0 6.2 6.2 16 14.8 27.7 20.2 11 5.2 18.6 5.3 23.7.4 6.6-6.3 3.8-16.8-2.2-23.4-1-1-.8-2.6.2-3.5 1-1 2.6-.8 3.5.2 7.6 8.3 10.9 21.8 2 30.3a18 18 0 0 1-12.9 5" fill="#71C6CD"/><path d="M333.7 572a50 50 0 0 1-9.8-1.2c-17.2-3.5-49.1-28.8-61.4-45.8-.8-1.1-.6-2.7.5-3.5 1.1-.8 2.7-.6 3.5.5 11.5 16 42.5 40.6 58.4 43.9 8.3 1.7 13.4 1.4 16.5-1 2.7-2.2 4.3-6.3 4.6-12.6.1-1.4 1.3-2.5 2.7-2.4.6 0 1.2.4 1.7.9.4.5.6 1.1.6 1.8-.5 7.8-2.6 13.2-6.6 16.2a17 17 0 0 1-10.7 3.2" fill="#71C6CD"/><path d="M399 580.4c-20.3 0-46-19-52.5-27.4a2.5 2.5 0 0 1 1.7-4c.9 0 1.8.3 2.3 1 7.3 9.6 40.8 32.3 57.7 23.3 2-1.1 3.3-2.6 3.7-4.5.9-4.7-3.3-11.2-5-13.3-.8-1-.7-2.6.4-3.5 1-.8 2.6-.7 3.5.4.3.3 7.6 9.4 6 17.4-.7 3.4-2.8 6-6.3 8a24.1 24.1 0 0 1-11.5 2.6M382.9 626c-3.7 0-7.1-.2-10.3-.5a2.5 2.5 0 0 1 .5-5c5.9.6 12.8.6 20 0 6-.5 9.4-1.9 10.2-4.2a1 1 0 0 0-.1-1c-1-1.6-4.7-3.5-9.2-4.5a2.5 2.5 0 1 1 1.1-5c3 .8 10.1 2.9 12.5 7.1a6 6 0 0 1 .4 5c-2.3 6.6-11.5 7.4-14.6 7.7-3.6.3-7.1.4-10.5.4" fill="#71C6CD"/><path d="M424.6 615a115 115 0 0 1-30.9-3.8 2.5 2.5 0 1 1 1.6-4.8c10 3.3 34 4.7 42 2.4 1.5-.4 6-1.7 6.6-3 .1-.4.2-1.4-1.4-3.8a2.5 2.5 0 0 1 2-4c.8 0 1.7.4 2.2 1.2 2.2 3.2 2.8 6 2 8.3-1.4 3.5-5.7 5-10 6.2a58 58 0 0 1-14 1.3" fill="#71C6CD"/><path d="M456.8 604c-5.7 0-10.7-.6-13.2-1.4a2.5 2.5 0 1 1 1.5-4.8c5.8 1.8 27.7 2.2 32.6-4.2.1-.2.4-.6.3-.8-.4-1-3-2.5-5.3-3a2.5 2.5 0 1 1 1.4-4.9c1.2.4 7.3 2.2 8.6 6.3.4 1.3.6 3.2-1 5.4-4.4 5.7-15.5 7.4-25 7.4m-20-547.3a8.7 8.7 0 1 1-17.4 0 8.7 8.7 0 0 1 17.3 0m-71 100.1a8.7 8.7 0 1 1-17.3 0 8.7 8.7 0 0 1 17.3 0m-5.3 99.7a8.7 8.7 0 1 1-17.3 0 8.7 8.7 0 0 1 17.3 0m17.5 96.7a8.7 8.7 0 1 1-17.3 0 8.7 8.7 0 0 1 17.3 0" fill="#71C6CD"/><path d="M530.3 75a13.2 13.2 0 0 0-12 7.5 13.4 13.4 0 0 0 16.3 18.6 13.5 13.5 0 0 0-4.3-26.1zm0 31.8A18.3 18.3 0 0 1 513 94.3 18.4 18.4 0 0 1 524.4 71a18.4 18.4 0 1 1 5.8 35.9zm27.8 17.7a7.4 7.4 0 0 0-7 9.8 7.3 7.3 0 1 0 14-4.8 7.3 7.3 0 0 0-7-5zm0 19.8a12.3 12.3 0 0 1-11.6-8.4 12.4 12.4 0 0 1 17-15.1 12.4 12.4 0 0 1-5.5 23.5zm.8 363a9.1 9.1 0 0 0-8.7 6.3 9.2 9.2 0 0 0 5.7 11.7 9.1 9.1 0 0 0 11.6-5.8 9.2 9.2 0 0 0-8.6-12.2zm0 23.5a14 14 0 0 1-12.7-8 14.2 14.2 0 0 1 17.2-19.7 14.2 14.2 0 0 1-4.5 27.7zm-28.2 19.7zm-6.9-7c-2 0-3.9 1.2-4.5 3.2-.9 2.5.5 5.2 3 6 2.5.9 5.2-.4 6-3a4.8 4.8 0 0 0-4.5-6.3zm0 14.5a9.6 9.6 0 0 1-8.7-5.4 9.8 9.8 0 0 1 11.8-13.7c2.5.9 4.5 2.6 5.6 5a9.7 9.7 0 0 1-8.7 14.1z" fill="#FFFFFE"/></g><g fill-rule="nonzero"><path d="M885.8 365c-9.6 0-17.7-2.2-24.1-6.5a29.8 29.8 0 0 1-12.7-16.4l2.5-1.5a27.3 27.3 0 0 0 11.7 15.7c6 4 13.6 6 22.6 6 9.7 0 17-2.3 22-7s7.5-10.7 7.5-17.8a18 18 0 0 0-7.6-15.2 71.8 71.8 0 0 0-22.3-10 123 123 0 0 1-13-4.4 58.6 58.6 0 0 1-9.8-5.2c-3.2-2-5.6-4.6-7.1-7.5a24.8 24.8 0 0 1 6.3-29.4c5.7-5.2 13-7.8 22-7.8 8 0 14.7 2 20 5.8 5.3 3.9 9.1 9 11.5 15.2l-2.4 1.3c-5-13-14.7-19.6-29-19.6-8.7 0-15.4 2.4-20.4 7.3a23 23 0 0 0-7.3 16.9c0 2.9.6 5.5 1.7 7.8 1.2 2.3 2.6 4.2 4 5.7 1.6 1.5 3.9 3 7 4.6a95.3 95.3 0 0 0 17.7 6.7c10.4 3.4 18.3 7.1 23.7 11.2 5.3 4 8 9.6 8 16.6 0 8.2-2.9 14.9-8.7 20a35 35 0 0 1-23.8 7.5zm111.4-105.5c9.2 0 16.9 3 23 8.9 6 6 9 13.4 9 22.3 0 9-3 16.3-9 22.3-6.1 6-13.8 8.9-23 8.9h-29v41.6h-3v-104h32zm0 59.7a27.5 27.5 0 0 0 29-28.5c0-8.2-2.7-15-8.1-20.4a28.5 28.5 0 0 0-21-8.1h-29v57h29zm141 44.3l-11.1-28.4h-57.6l-11.2 28.4h-3.1l41.3-104h3.6l41.3 104h-3.2zm-67.6-31h55.4l-27.7-69.9-27.7 69.9zm158.6 32.5a51.6 51.6 0 0 1-38.4-15.5 52 52 0 0 1-15.3-38c0-15 5.1-27.6 15.3-38a51.6 51.6 0 0 1 38.4-15.5 52 52 0 0 1 25.5 6.5 47.6 47.6 0 0 1 18.3 17.4l-2.5 1.5a48.6 48.6 0 0 0-41.3-22.7 49.7 49.7 0 0 0-50.7 50.8 49.7 49.7 0 0 0 50.7 50.8 49 49 0 0 0 24.8-6.4c7.5-4.3 13.2-10.1 17-17.4l2.8 1.5a47.2 47.2 0 0 1-18.4 18.2c-8 4.5-16.7 6.8-26.2 6.8zm94.4-4.2h55.1v2.7h-58.1v-104h57.4v2.7h-54.4v47.5h50.6v2.7h-50.6v48.4zm158.6-98.6h-53v48.1h52.2v2.7h-52.1v50.5h-3v-104h55.9v2.7zm47.6-2.7h3v104h-3v-104zm86.6 105.5c-9.6 0-17.7-2.2-24.2-6.5a29.8 29.8 0 0 1-12.6-16.4l2.5-1.5a27.3 27.3 0 0 0 11.7 15.7c6 4 13.6 6 22.6 6 9.6 0 17-2.3 22-7s7.5-10.7 7.5-17.8a18 18 0 0 0-7.7-15.2 71.8 71.8 0 0 0-22.2-10 123 123 0 0 1-13-4.4 58.6 58.6 0 0 1-9.9-5.2c-3.1-2-5.5-4.6-7-7.5a24.8 24.8 0 0 1 6.3-29.4c5.6-5.2 13-7.8 22-7.8 8 0 14.6 2 20 5.8 5.3 3.9 9.1 9 11.5 15.2l-2.4 1.3c-5-13-14.7-19.6-29-19.6-8.7 0-15.5 2.4-20.4 7.3a23 23 0 0 0-7.4 16.9c0 2.9.6 5.5 1.8 7.8 1.2 2.3 2.6 4.2 4 5.7 1.5 1.5 3.9 3 7 4.6a95.3 95.3 0 0 0 17.6 6.7c10.5 3.4 18.4 7.1 23.7 11.2 5.4 4 8 9.6 8 16.6 0 8.2-2.8 14.9-8.6 20a35 35 0 0 1-23.8 7.5zM1768 259.5h3v104h-3v-52.1h-68.5v52.1h-3v-104h3v49.2h68.5v-49.2z" fill="#F8EB33"/><path d="M929 416.1h-26.5v24.3h26v1.4h-26v25.4H901v-52.4h28v1.3zm23.7-1.3h1.5v52.4h-1.5v-52.4zm43.4 53.2c-4.8 0-8.9-1-12.1-3.3a15 15 0 0 1-6.3-8.3l1.2-.7c1 3.3 2.9 5.9 5.9 8 3 2 6.8 3 11.3 3 4.8 0 8.5-1.2 11-3.6 2.5-2.4 3.7-5.4 3.7-9 0-3.2-1.2-5.7-3.8-7.7-2.6-1.9-6.3-3.6-11.1-5-2.7-.8-4.8-1.5-6.5-2.2-1.7-.7-3.4-1.6-5-2.6a10.1 10.1 0 0 1-4.7-9c0-3.8 1.5-7 4.3-9.7 2.9-2.6 6.6-3.9 11.1-3.9 4 0 7.3 1 10 3 2.6 1.9 4.5 4.4 5.7 7.6l-1.2.6a14.3 14.3 0 0 0-14.5-9.8c-4.3 0-7.7 1.2-10.2 3.6a11.7 11.7 0 0 0-3.7 8.6c0 1.4.3 2.7 1 4 .5 1 1.2 2 2 2.8.7.8 1.9 1.5 3.5 2.3a47.5 47.5 0 0 0 8.7 3.4c5.3 1.7 9.2 3.6 11.9 5.6 2.7 2 4 4.9 4 8.4 0 4.2-1.4 7.5-4.3 10-3 2.6-7 3.9-12 3.9zm75.4-53.3h1.5v52.6h-1.5v-26.4h-34.3v26.4h-1.5v-52.6h1.5v24.9h34.3v-24.9zm79 53.3c-4.7 0-8.8-1-12-3.3a15 15 0 0 1-6.3-8.3l1.2-.7c1 3.3 2.9 5.9 5.9 8 3 2 6.8 3 11.3 3 4.8 0 8.5-1.2 11-3.6 2.5-2.4 3.7-5.4 3.7-9 0-3.2-1.2-5.7-3.8-7.7-2.6-1.9-6.3-3.6-11.1-5-2.7-.8-4.8-1.5-6.5-2.2-1.7-.7-3.4-1.6-5-2.6a10.1 10.1 0 0 1-4.7-9c0-3.8 1.5-7 4.3-9.7 2.9-2.6 6.6-3.9 11.1-3.9 4 0 7.3 1 10 3 2.6 1.9 4.5 4.4 5.7 7.6l-1.2.6a14.3 14.3 0 0 0-14.5-9.8c-4.3 0-7.7 1.2-10.2 3.6a11.7 11.7 0 0 0-3.7 8.6c0 1.4.3 2.7 1 4 .5 1 1.2 2 2 2.8.7.8 1.9 1.5 3.5 2.3a47.5 47.5 0 0 0 8.7 3.4c5.3 1.7 9.2 3.6 11.9 5.6 2.7 2 4 4.9 4 8.4 0 4.2-1.4 7.5-4.3 10-3 2.6-6.9 3.9-12 3.9zm75.5-53.3h1.5v52.6h-1.5v-26.4h-34.3v26.4h-1.5v-52.6h1.5v24.9h34.3v-24.9zm30.5 51.2h27.6v1.3h-29v-52.4h28.6v1.3h-27.2v24h25.4v1.3h-25.4V466zm52.9 0h26v1.3H1308v-52.4h1.5v51.1zm49.9 0h26v1.3h-27.5v-52.4h1.5v51.1zm114-51.2v1.4H1456v51.2h-1.5V416h-17.2v-1.3h35.8zm58 0h1.5v52.6h-1.5v-26.4H1497v26.4h-1.5v-52.6h1.5v24.9h34.3v-24.9zm30.5 51.2h27.6v1.3h-29v-52.4h28.6v1.3h-27.2v24h25.4v1.3h-25.4V466zm97.6-51.2v52.6h-1.5v-50.5l-21.3 34.8h-.6l-21.3-34.8v50.4h-1.5v-52.4h2l21.1 34.6 21.2-34.7h2zm29 51.2h27.6v1.3h-29v-52.4h28.6v1.3h-27.2v24h25.4v1.3h-25.4V466z" fill="#71C6CD"/></g></g></svg>