<svg width="1616" height="415" fill="none" xmlns="http://www.w3.org/2000/svg"><rect width="1616" height="415" rx="39" fill="#21204B"/><path d="M283.111 225.759a1.492 1.492 0 0 1-1.489-1.271c-.074-.852-.185-1.7-.331-2.543-.11-.552.055-1.05.442-1.381a1.348 1.348 0 0 1 1.433-.221c.552.165.883.552.993 1.105l.386 2.764c.055.774-.552 1.437-1.324 1.547h-.11z" fill="#F8EB33"/><path d="M245.061 303.145a1.362 1.362 0 0 1-1.323-1.105 29.981 29.981 0 0 1-.552-4.865c-.275-11.718 5.901-19.954 12.684-27.085 1.268-1.382 2.536-2.763 3.86-4.035 6.617-6.854 12.849-13.376 17.37-21.557 2.923-5.196 4.467-10.502 4.688-15.754 0-.774.661-1.382 1.433-1.326.773 0 1.379.663 1.324 1.437a38.487 38.487 0 0 1-5.018 17.025c-4.688 8.512-11.36 15.422-17.812 22.11l-3.86 3.98c-6.342 6.743-12.187 14.371-11.911 25.095 0 1.492.22 2.985.496 4.422a1.384 1.384 0 0 1-1.379 1.658" fill="#F1A944"/><path d="M247.322 309.778c-.496 0-.992-.276-1.213-.774l-1.213-2.929a1.472 1.472 0 0 1 .827-1.769c.717-.221 1.489.11 1.765.829.33.884.661 1.769 1.102 2.653.166.442.166.94-.11 1.327-.22.442-.662.663-1.103.663" fill="#F8EB33"/><path d="M261.549 322.491l-.386-.055c-5.128-1.658-9.54-4.919-12.793-9.452a1.38 1.38 0 0 1 .306-1.964c.203-.142.44-.228.686-.247.552 0 .993.221 1.269.608 2.205 3.04 4.907 5.417 7.996 7.02-1.103-2.764-2.041-6.854-.166-10.392 1.654-3.15 5.129-5.196 10.422-6.08a87.825 87.825 0 0 1-24.263-12.99 45.347 45.347 0 0 1-13.78-17.104 45.468 45.468 0 0 1-4.142-21.589 53.13 53.13 0 0 1 13.234-32.667c8.493-9.397 19.853-14.759 32.977-15.588.331 0 .717.111.993.387.275.221 5.955 5.528 8.933 14.372.221.718-.165 1.492-.882 1.713-.717.276-1.489-.11-1.765-.829a35.169 35.169 0 0 0-7.72-12.824c-23.988 1.769-41.634 20.452-43.013 45.602a42.822 42.822 0 0 0 4.145 20.798 42.704 42.704 0 0 0 13.612 16.237c11.194 8.844 28.675 13.874 28.895 13.929a1.38 1.38 0 0 1 .979 1.522 1.379 1.379 0 0 1-1.365 1.187c-7.94.055-13.069 1.879-14.834 5.196-2.426 4.587 1.82 10.999 1.82 11.055a1.378 1.378 0 0 1 .085 1.405 1.382 1.382 0 0 1-1.188.75" fill="#FFFFFE"/><path d="M271.586 216.142c.221 1.437-.827 2.763-2.206 2.984-1.489.166-2.812-.829-3.033-2.321a2.703 2.703 0 0 1 2.316-2.985 2.616 2.616 0 0 1 2.923 2.322zm5.018-104.305a1.372 1.372 0 0 1-1.103-.553 1.387 1.387 0 0 1-.22-1.216l.496-1.99a1.374 1.374 0 0 1 .87-1.036 1.383 1.383 0 0 1 1.336.207c.386.332.551.829.441 1.327a28.34 28.34 0 0 1-.496 2.211c-.166.663-.717 1.105-1.324 1.105" fill="#F8EB33"/><path d="M223.058 161.087a1.383 1.383 0 0 1-1.087-.497 1.377 1.377 0 0 1-.291-1.161c.275-1.327.662-2.653 1.103-3.98 3.363-9.341 10.808-13.874 18.418-17.412l4.246-1.934a87.092 87.092 0 0 0 20.349-11.498c3.86-3.15 6.672-6.798 8.437-10.778a1.382 1.382 0 0 1 2.555.044c.134.342.128.724-.019 1.061-1.93 4.422-5.018 8.347-9.209 11.829-6.341 5.196-13.786 8.568-20.9 11.829l-4.246 1.935c-7.058 3.316-13.951 7.462-16.984 15.864a26.519 26.519 0 0 0-.938 3.593c-.165.608-.717 1.105-1.378 1.105" fill="#F1A944"/><path d="M222.562 167.72c-.717 0-1.324-.552-1.379-1.326v-2.764c0-.387.111-.774.386-1.05.221-.277.552-.387.938-.387.772 0 1.323.663 1.323 1.492v2.488c.055.386 0 .718-.275 1.05a1.434 1.434 0 0 1-.883.497h-.11" fill="#F8EB33"/><path d="M229.896 181.539c-.331 0-.662-.11-.882-.331a21.292 21.292 0 0 1-7.169-11.442c-.165-.498 0-.995.331-1.327a1.381 1.381 0 0 1 1.352-.351 1.385 1.385 0 0 1 .964 1.014 20.137 20.137 0 0 0 3.695 7.462c.055-2.542.661-5.748 3.143-7.849 2.206-1.879 5.349-2.487 9.54-1.769a73.143 73.143 0 0 1-14.117-16.416l-.441-.774a38.547 38.547 0 0 1-2.206-36.15 45.227 45.227 0 0 1 20.569-21.779 40.289 40.289 0 0 1 30.881-2.21c.386.165.662.441.827.773.111.221 3.033 6.19 2.592 14.151a1.38 1.38 0 1 1-2.757-.111 29.358 29.358 0 0 0-2.096-12.327c-19.3-5.859-38.766 3.372-47.534 22.663a35.884 35.884 0 0 0 2.536 34.382c6.066 10.392 18.308 19.678 18.419 19.733.551.442.716 1.216.386 1.769-.331.608-1.103.884-1.71.663-6.231-2.377-10.753-2.542-13.124-.553-3.199 2.82-1.875 9.066-1.875 9.121a1.38 1.38 0 0 1-.275 1.14 1.365 1.365 0 0 1-1.049.518" fill="#FFFFFE"/><path d="M269.656 100.837a2.257 2.257 0 0 1-1.009 1.39 2.233 2.233 0 0 1-3.08-.743 2.244 2.244 0 0 1-.268-1.697 2.22 2.22 0 0 1-.056-3.107 2.205 2.205 0 0 1 3.751 2.001 2.213 2.213 0 0 1 .662 2.211v-.055zm18.473 65.225a1.941 1.941 0 0 1-1.875-1.492 71.638 71.638 0 0 1-.827-4.754 1.929 1.929 0 0 1 .364-1.454 1.924 1.924 0 0 1 1.29-.757 1.924 1.924 0 0 1 1.973.973c.127.229.206.48.233.74a41.06 41.06 0 0 0 .717 4.422c.11.553 0 1.106-.386 1.603a1.852 1.852 0 0 1-1.489.719" fill="#F8EB33"/><path d="M355.681 265.558a1.921 1.921 0 0 1-1.851-1.348 1.938 1.938 0 0 1-.079-.808c.331-2.653.331-5.306.111-7.96-1.269-15.919-11.14-26.311-21.672-35.21l-6.342-5.307c-10.643-8.844-21.617-17.909-29.944-29.682a61.995 61.995 0 0 1-7.389-13.819 1.948 1.948 0 0 1 .065-1.484 1.936 1.936 0 0 1 3.575.157 58.073 58.073 0 0 0 6.948 12.879c7.996 11.387 18.308 19.899 29.227 28.965l6.341 5.306c11.139 9.452 21.672 20.563 23.051 37.864.275 2.929.22 5.859-.111 8.733a1.933 1.933 0 0 1-1.93 1.714" fill="#F1A944"/><path d="M352.593 276.613a1.879 1.879 0 0 1-1.709-2.598 38.973 38.973 0 0 0 1.654-4.864 1.89 1.89 0 0 1 2.316-1.327 1.89 1.89 0 0 1 1.324 2.322c-.552 1.824-1.103 3.593-1.82 5.306-.331.719-.993 1.161-1.765 1.161" fill="#F8EB33"/><path d="M334.175 295.959a1.92 1.92 0 0 1-1.642-.93 1.932 1.932 0 0 1-.068-1.889c0-.11 5.294-10.336.938-16.748-3.199-4.699-11.029-6.578-22.83-5.417a1.93 1.93 0 0 1-2.044-1.451 1.938 1.938 0 0 1 1.106-2.253c.276-.11 25.257-10.281 40.422-25.316l1.047-1.05c15.937-16.251 22.555-35.819 19.136-56.602-6.066-37.145-35.128-62.019-70.806-60.803a51.596 51.596 0 0 0-10.478 29.13c0 1.05-.882 1.879-1.93 1.879a1.938 1.938 0 0 1-1.93-1.989c.441-18.794 11.47-31.618 11.911-32.171.386-.387.883-.553 1.379-.608 19.301-.939 36.947 5.196 50.899 17.688A79.104 79.104 0 0 1 374.1 183.64c3.584 22.11-3.419 42.838-20.294 59.973l-1.102 1.106a130.555 130.555 0 0 1-32.812 22.11c8.107.498 13.731 2.93 16.709 7.407 3.364 4.975 2.537 11.276 1.269 15.588a32.932 32.932 0 0 0 9.76-9.95 1.948 1.948 0 0 1 3.538.687 1.962 1.962 0 0 1-.284 1.469 36.804 36.804 0 0 1-15.937 13.763 1.938 1.938 0 0 1-.772.166" fill="#71C6CD"/><path d="M303.294 140.47a3.877 3.877 0 0 0 1.014 2.784 3.859 3.859 0 0 0 6.706-2.453 3.873 3.873 0 0 0-3.694-4.035 3.86 3.86 0 0 0-3.669 2.235c-.214.462-.335.96-.357 1.469" fill="#F8EB33"/><path d="M346.582 321.939c-.551 0-1.102-.332-1.268-.829-.22-.553-.11-1.106.276-1.548a155.243 155.243 0 0 0 34.054-50.707 155.523 155.523 0 0 0 11.881-59.955 1.377 1.377 0 1 1 2.758 0c0 42.563-16.544 82.527-46.708 112.652-.276.221-.607.387-.993.387z" fill="#71C6CD"/><path d="M235.135 368.37c-42.462 0-82.442-16.583-112.495-46.708a158.48 158.48 0 0 1-34.534-51.71A158.804 158.804 0 0 1 76.097 208.9c0-42.562 16.544-82.636 46.598-112.761a157.907 157.907 0 0 1 51.551-34.647 157.611 157.611 0 0 1 60.889-12.061 1.378 1.378 0 0 1 1.379 1.382 1.377 1.377 0 0 1-1.379 1.382 154.856 154.856 0 0 0-59.842 11.837 155.15 155.15 0 0 0-50.668 34.041 155.742 155.742 0 0 0-33.959 50.819A156.031 156.031 0 0 0 78.855 208.9c0 41.844 16.267 81.255 45.77 110.828a155.15 155.15 0 0 0 50.668 34.041 154.852 154.852 0 0 0 59.842 11.837c41.745 0 80.953-16.306 110.455-45.878.256-.264.606-.415.973-.421a1.389 1.389 0 0 1 1.012 2.355 157.91 157.91 0 0 1-51.576 34.658 157.6 157.6 0 0 1-60.919 12.05" fill="#71C6CD"/><path d="M251.458 361.737a135.597 135.597 0 0 1-52.372-10.353 135.87 135.87 0 0 1-44.352-29.777 136.098 136.098 0 0 1-29.704-44.428 136.364 136.364 0 0 1-10.331-52.47 129.063 129.063 0 0 1 22.119-72.476 128.599 128.599 0 0 1 58.944-47.471 1.394 1.394 0 0 1 1.819.773 1.405 1.405 0 0 1-.772 1.825 125.838 125.838 0 0 0-57.689 46.436 126.3 126.3 0 0 0-21.664 70.913c0 35.929 13.952 69.592 39.263 94.963a133.094 133.094 0 0 0 43.418 29.15 132.85 132.85 0 0 0 51.266 10.151c35.844 0 69.482-13.984 94.739-39.301a1.38 1.38 0 0 1 2.264.419 1.39 1.39 0 0 1-.279 1.516 135.88 135.88 0 0 1-44.352 29.777 135.604 135.604 0 0 1-52.372 10.353" fill="#71C6CD"/><path d="M266.898 355.104a113.134 113.134 0 0 1-43.714-8.64 113.376 113.376 0 0 1-37.018-24.857c-21.506-21.613-33.417-50.301-33.417-80.923 0-22.11 7.168-43.834 20.238-61.135a101.016 101.016 0 0 1 19.19-19.346 1.379 1.379 0 0 1 2.192 1.301c-.052.363-.245.69-.538.91a98.303 98.303 0 0 0-18.639 18.793 99.382 99.382 0 0 0-19.686 59.477c0 29.849 11.58 57.873 32.59 78.933a110.597 110.597 0 0 0 36.128 24.281 110.388 110.388 0 0 0 42.674 8.442c29.778 0 57.737-11.608 78.747-32.723a1.4 1.4 0 0 1 2.29.457 1.414 1.414 0 0 1-.305 1.533c-21.561 21.557-50.181 33.497-80.732 33.497z" fill="#71C6CD"/><path d="M283.221 348.471c-24.484 0-47.535-9.563-64.85-26.919a92.329 92.329 0 0 1-25.762-51.051 92.443 92.443 0 0 1 9.218-56.46 1.382 1.382 0 0 1 1.777-.444 1.383 1.383 0 0 1 .65 1.715 89.616 89.616 0 0 0-8.987 54.769 89.504 89.504 0 0 0 24.979 49.536c16.874 16.804 39.263 26.09 63.03 26.09 23.768 0 46.101-9.286 62.92-26.09a1.382 1.382 0 0 1 1.958-.027 1.387 1.387 0 0 1 .028 1.962 91.156 91.156 0 0 1-29.788 19.988 90.969 90.969 0 0 1-35.173 6.931zM171.608 116.314c-10.753 0-20.955-4.754-23.712-15.643-4.026-15.698 11.966-28.522 16.984-32.06 12.298-8.788 27.573-12.99 39.87-16.361a1.379 1.379 0 0 1 1.45 1.989 1.38 1.38 0 0 1-.733.664c-12.077 3.317-27.131 7.462-38.987 15.92-4.633 3.316-19.522 15.2-15.937 29.185 3.419 13.377 19.135 14.924 28.84 12.713a1.377 1.377 0 0 1 1.862.943 1.389 1.389 0 0 1-.21 1.13 1.37 1.37 0 0 1-.99.58 37.95 37.95 0 0 1-8.437.94" fill="#71C6CD"/><path d="M175.137 171.59c-4.632 0-8.933-1.382-12.352-4.036-5.239-4.035-7.72-10.557-7.169-18.406.882-12.603 9.375-26.256 22.72-36.427.606-.442 1.489-.331 1.93.277.441.552.331 1.492-.276 1.934-12.683 9.729-20.845 22.553-21.672 34.437-.496 6.854 1.655 12.547 6.121 16.03 4.853 3.758 11.801 4.422 19.025 1.934.717-.221 1.489.166 1.765.885.221.718-.166 1.492-.882 1.713a28.066 28.066 0 0 1-9.21 1.659" fill="#71C6CD"/><path d="M186.663 225.207c-3.75 0-7.61-1.161-10.643-4.588-13.786-15.422-.552-42.562 7.499-52.678a1.41 1.41 0 0 1 2.507.728 1.42 1.42 0 0 1-.301 1.041c-6.562 8.07-20.459 34.713-7.72 49.029 7.72 8.568 22.058-.663 22.223-.718a1.388 1.388 0 0 1 1.93.387 1.397 1.397 0 0 1-.386 1.934c-.496.277-7.665 4.865-15.109 4.865zm-79.243-40.904a17.623 17.623 0 0 1-10.588-3.482c-8.106-5.915-10.092-16.307-5.956-31.729 3.885-13.32 10.001-25.88 18.088-37.145a1.376 1.376 0 0 1 2.256.632c.088.302.07.625-.051.916-5.845 8.457-13.73 21.558-17.646 36.316-3.75 14.151-2.206 23.603 4.963 28.743 10.312 7.573 22.499-.663 28.124-8.015.109-.145.245-.267.4-.36a1.388 1.388 0 0 1 1.53.084 1.376 1.376 0 0 1 .508 1.448 1.403 1.403 0 0 1-.232.487c-5.349 7.02-13.4 12.16-21.396 12.16" fill="#71C6CD"/><path d="M140.451 227.971c-1.102 0-2.15-.111-3.198-.277-6.397-1.216-11.58-5.804-14.668-13.045-6.011-14.261-1.765-32.612 3.694-43.944a1.387 1.387 0 0 1 1.327-.774 1.391 1.391 0 0 1 .949.466 1.385 1.385 0 0 1 .206 1.524c-5.239 10.834-9.32 28.246-3.64 41.623 2.702 6.356 7.169 10.447 12.628 11.442 5.901 1.105 12.353-1.493 17.647-7.02a1.372 1.372 0 0 1 1.802.128 1.382 1.382 0 0 1 .128 1.806c-4.963 5.251-11.029 8.071-16.875 8.071" fill="#71C6CD"/><path d="M176.02 269.98c-1.544 0-3.198-.277-4.908-.94-19.907-7.628-18.142-39.467-15.937-50.024.111-.553.441-.885.938-1.106.496-.11.992 0 1.378.332.386.332.552.829.386 1.327-2.04 9.949-3.86 39.964 14.228 46.928 10.698 4.091 19.3-10.668 19.411-10.778a1.392 1.392 0 0 1 1.902-.525 1.396 1.396 0 0 1 .524 1.907c-.386.552-7.61 12.879-17.922 12.879zm-74.556-7.96c-8.271 0-14.613-5.859-19.3-17.964a98.772 98.772 0 0 1-6.011-32.945 1.377 1.377 0 0 1 1.379-1.381c.716 0 1.378.552 1.378 1.326.166 8.292 1.324 20.563 5.79 32.06 4.246 10.889 9.76 16.196 16.764 16.196 10.037-.056 13.897-11.055 14.062-18.518 0-.773.662-1.381 1.434-1.326a1.378 1.378 0 0 1 1.323 1.382c-.22 10.502-6.065 21.17-16.764 21.17h-.055z" fill="#71C6CD"/><path d="M145.8 288.221c-3.529 0-7.279-1.438-10.753-4.201-10.257-8.181-17.315-27.417-19.797-42.839a1.422 1.422 0 0 1 1.103-1.603 1.37 1.37 0 0 1 1.08.219 1.386 1.386 0 0 1 .574.942c2.372 14.924 9.099 33.386 18.75 41.07 3.86 3.095 7.996 4.256 11.58 3.316 3.971-1.105 7.224-4.698 9.485-10.502.276-.663 1.103-.995 1.765-.719.717.277 1.103 1.106.772 1.769-3.254 8.347-7.941 11.221-11.305 12.161-1.103.221-2.206.387-3.309.387" fill="#71C6CD"/><path d="M191.791 313.26c-16.819 0-31.763-28.577-33.418-37.808a1.384 1.384 0 0 1 1.123-1.492 1.375 1.375 0 0 1 1.579.995c1.655 8.954 16.268 35.542 30.716 35.542h.276c8.602-.166 8.657-13.211 8.657-13.322a1.378 1.378 0 0 1 1.379-1.382c.772 0 1.379.608 1.379 1.382 0 5.473-2.316 15.864-11.36 16.03h-.331v.055zm-51.616 14.206c-3.86 0-7.444-1.658-9.043-2.432a58.779 58.779 0 0 1-16.048-11.774c-.551-.552-.551-1.437 0-1.934.552-.553 1.434-.553 1.931 0 3.419 3.427 8.823 8.181 15.275 11.165 6.066 2.875 10.257 2.93 13.069.222 3.64-3.483 2.095-9.287-1.213-12.935-.552-.553-.441-1.437.11-1.935.552-.552 1.434-.442 1.93.111 4.191 4.588 6.011 12.05 1.103 16.748a9.918 9.918 0 0 1-7.114 2.764" fill="#71C6CD"/><path d="M183.464 335.758a27.538 27.538 0 0 1-5.404-.664c-9.485-1.934-27.076-15.919-33.859-25.316-.441-.608-.331-1.492.276-1.935.607-.442 1.489-.331 1.93.277 6.342 8.844 23.437 22.442 32.205 24.266 4.577.939 7.389.774 9.098-.553 1.489-1.216 2.372-3.482 2.537-6.965.055-.774.717-1.382 1.489-1.326.331 0 .662.221.937.497.221.277.331.608.331.995-.275 4.312-1.433 7.296-3.639 8.955a9.36 9.36 0 0 1-5.901 1.769" fill="#71C6CD"/><path d="M219.474 340.401c-11.194 0-25.367-10.503-28.951-15.146a1.378 1.378 0 0 1-.173-1.379 1.382 1.382 0 0 1 1.11-.832c.497 0 .993.166 1.269.553 4.025 5.306 22.499 17.854 31.818 12.879 1.103-.608 1.82-1.437 2.041-2.487.496-2.598-1.82-6.191-2.758-7.352a1.403 1.403 0 0 1 .221-1.935 1.395 1.395 0 0 1 1.93.222c.165.165 4.191 5.195 3.309 9.617-.386 1.88-1.544 3.317-3.474 4.423a13.285 13.285 0 0 1-6.342 1.437zm-8.878 25.205c-2.041 0-3.916-.11-5.68-.276a1.384 1.384 0 0 1-1.241-1.52 1.388 1.388 0 0 1 1.516-1.244c3.254.332 7.059.332 11.029 0 3.309-.276 5.184-1.05 5.625-2.321a.555.555 0 0 0-.055-.553c-.551-.885-2.592-1.935-5.073-2.488a1.419 1.419 0 0 1-.886-.619 1.431 1.431 0 0 1-.19-1.067 1.419 1.419 0 0 1 1.132-1.089c.182-.032.369-.028.55.012 1.655.442 5.57 1.603 6.893 3.924a3.32 3.32 0 0 1 .221 2.764c-1.268 3.648-6.342 4.09-8.051 4.256a69.23 69.23 0 0 1-5.79.221" fill="#71C6CD"/><path d="M233.591 359.526a63.293 63.293 0 0 1-17.04-2.1 1.39 1.39 0 0 1-.95-1.228 1.398 1.398 0 0 1 1.833-1.426c5.514 1.824 18.749 2.598 23.16 1.327.828-.221 3.309-.94 3.64-1.658.055-.221.11-.774-.772-2.101a1.378 1.378 0 0 1-.13-1.447 1.377 1.377 0 0 1 1.233-.764c.441 0 .937.221 1.213.663 1.213 1.769 1.544 3.317 1.103 4.588-.772 1.935-3.143 2.764-5.515 3.427a31.887 31.887 0 0 1-7.72.719" fill="#71C6CD"/><path d="M251.348 353.446c-3.144 0-5.901-.332-7.28-.774a1.388 1.388 0 0 1-.909-1.741c.054-.175.142-.336.259-.476a1.367 1.367 0 0 1 1.478-.436c3.198.995 15.275 1.216 17.977-2.322.055-.111.22-.332.165-.442-.22-.553-1.654-1.382-2.922-1.658a1.406 1.406 0 0 1-.965-1.742 1.406 1.406 0 0 1 1.737-.967c.661.221 4.025 1.216 4.742 3.482.221.719.331 1.769-.551 2.985-2.427 3.151-8.548 4.091-13.787 4.091h.056zM240.263 50.923a4.813 4.813 0 0 1-1.405 3.4 4.79 4.79 0 0 1-6.785 0 4.818 4.818 0 0 1-1.405-3.4 4.813 4.813 0 0 1 1.565-3.063 4.79 4.79 0 0 1 6.411 0 4.812 4.812 0 0 1 1.564 3.063h.055zm-39.208 55.331a4.8 4.8 0 0 1-1.2 3.728 4.802 4.802 0 0 1-3.57 1.596 4.787 4.787 0 0 1-3.569-1.596 4.818 4.818 0 0 1 .364-6.791 4.788 4.788 0 0 1 6.411 0 4.809 4.809 0 0 1 1.564 3.063zm-2.922 55.11a4.82 4.82 0 0 1-1.201 3.728 4.799 4.799 0 0 1-3.569 1.595 4.803 4.803 0 0 1-4.77-5.323 4.809 4.809 0 0 1 1.564-3.063 4.789 4.789 0 0 1 6.411 0 4.81 4.81 0 0 1 1.565 3.063zm9.65 53.451a4.817 4.817 0 0 1-1.2 3.728 4.806 4.806 0 0 1-3.57 1.596 4.787 4.787 0 0 1-3.569-1.596 4.818 4.818 0 0 1 .363-6.791 4.792 4.792 0 0 1 6.412 0 4.816 4.816 0 0 1 1.564 3.063" fill="#71C6CD"/><path d="M291.879 61.039a7.268 7.268 0 0 0-3.91 1.109 7.292 7.292 0 0 0-2.708 3.036 7.416 7.416 0 0 0 1.078 8.142 7.371 7.371 0 0 0 7.911 2.14 7.45 7.45 0 0 0 3.798-3.255 7.477 7.477 0 0 0-1.53-9.31 7.438 7.438 0 0 0-4.639-1.862zm0 17.577A10.073 10.073 0 0 1 286 76.7a10.11 10.11 0 0 1-3.661-4.993 10.189 10.189 0 0 1 .494-7.739 10.155 10.155 0 0 1 5.792-5.14 10.124 10.124 0 0 1 8.423.993 10.16 10.16 0 0 1 4.728 7.058 10.2 10.2 0 0 1-2.27 8.19 10.127 10.127 0 0 1-7.682 3.602l.055-.055zm15.33 9.784a4.069 4.069 0 0 0-3.321 1.713 4.104 4.104 0 0 0-.539 3.704 4.09 4.09 0 0 0 3.606 2.756 4.067 4.067 0 0 0 2.954-1.016 4.102 4.102 0 0 0 1.16-4.394 4.03 4.03 0 0 0-3.86-2.763zm0 10.945a6.772 6.772 0 0 1-3.942-1.293 6.8 6.8 0 0 1-2.455-3.35 6.872 6.872 0 0 1 1.959-7.252 6.825 6.825 0 0 1 7.416-1.095 6.848 6.848 0 0 1 3.14 3.22 6.87 6.87 0 0 1 .47 4.477 6.855 6.855 0 0 1-2.404 3.804 6.825 6.825 0 0 1-4.239 1.489h.055zm.441 200.649a5.01 5.01 0 0 0-2.966.956 5.027 5.027 0 0 0-1.831 2.527 5.09 5.09 0 0 0 3.143 6.467 5 5 0 0 0 3.868-.26 5.027 5.027 0 0 0 2.529-2.946 5.099 5.099 0 0 0-.65-4.589 5.08 5.08 0 0 0-4.093-2.155zm0 12.99a7.71 7.71 0 0 1-4.143-1.191 7.733 7.733 0 0 1-2.86-3.231 7.866 7.866 0 0 1 1.144-8.594 7.816 7.816 0 0 1 8.341-2.295 7.832 7.832 0 0 1 4.259 3.378 7.863 7.863 0 0 1-1.634 10.08 7.815 7.815 0 0 1-5.107 1.853zm-19.356 7.02c-1.103 0-2.15.663-2.481 1.769-.497 1.382.276 2.874 1.654 3.316a2.527 2.527 0 0 0 3.309-1.658 2.654 2.654 0 0 0-2.482-3.482v.055zm0 8.015a5.288 5.288 0 0 1-4.797-2.985 5.422 5.422 0 0 1 .739-5.957 5.403 5.403 0 0 1 5.768-1.616c1.378.498 2.481 1.438 3.088 2.764a5.371 5.371 0 0 1-2.174 7.122 5.342 5.342 0 0 1-2.624.672z" fill="#FFFFFE"/><path d="M522.911 210.64c-8.09 0-15.142-1.367-21.156-4.1-6.013-2.843-11.972-7.216-17.876-13.12-.656-.656-.984-1.476-.984-2.46 0-.875.383-1.695 1.148-2.46.766-.875 1.586-1.312 2.46-1.312.984 0 1.914.492 2.788 1.476 4.264 5.029 9.294 8.856 15.088 11.48a45.142 45.142 0 0 0 18.532 3.936c8.419 0 15.362-2.023 20.828-6.068 5.467-4.045 8.2-9.403 8.2-16.072-.109-5.248-1.53-9.567-4.264-12.956-2.733-3.389-6.122-6.068-10.168-8.036-3.936-2.077-9.348-4.373-16.236-6.888-7.544-2.843-13.448-5.357-17.712-7.544-4.154-2.187-7.762-5.303-10.824-9.348-2.952-4.045-4.428-9.348-4.428-15.908 0-5.357 1.476-10.223 4.428-14.596 2.952-4.373 7.162-7.817 12.628-10.332 5.467-2.515 11.808-3.772 19.024-3.772 6.451 0 12.574 1.203 18.368 3.608 5.795 2.296 10.387 5.576 13.776 9.84 1.094 1.531 1.64 2.679 1.64 3.444 0 .875-.437 1.695-1.312 2.46-.765.656-1.64.984-2.624.984-.874 0-1.585-.328-2.132-.984-3.061-3.936-6.997-7.052-11.808-9.348-4.81-2.296-10.113-3.444-15.908-3.444-8.309 0-15.252 1.968-20.828 5.904-5.466 3.936-8.2 9.293-8.2 16.072 0 4.701 1.312 8.692 3.936 11.972 2.734 3.28 6.123 5.959 10.168 8.036 4.046 1.968 9.075 4.045 15.088 6.232 7.654 2.733 13.722 5.248 18.204 7.544 4.483 2.296 8.31 5.631 11.48 10.004 3.171 4.373 4.756 10.168 4.756 17.384 0 5.029-1.476 9.731-4.428 14.104-2.952 4.373-7.216 7.872-12.792 10.496-5.466 2.515-11.753 3.772-18.86 3.772zM650.963 94.2c9.294 0 16.783 2.897 22.468 8.692 5.686 5.795 8.528 13.339 8.528 22.632 0 6.123-1.312 11.699-3.936 16.728-2.514 4.92-6.122 8.801-10.824 11.644-4.701 2.733-10.113 4.1-16.236 4.1h-35.752v47.724c0 .875-.382 1.64-1.148 2.296-.656.656-1.421.984-2.296.984-.984 0-1.804-.328-2.46-.984-.656-.656-.984-1.421-.984-2.296V97.48c0-.875.328-1.64.984-2.296.656-.656 1.422-.984 2.296-.984h39.36zm0 57.236c7.326 0 13.175-2.405 17.548-7.216 4.374-4.92 6.56-11.152 6.56-18.696 0-7.544-2.186-13.557-6.56-18.04-4.264-4.483-10.113-6.724-17.548-6.724h-35.752v50.676h35.752zm156.901 53.136c.109.328.164.765.164 1.312 0 .984-.328 1.749-.984 2.296-.656.547-1.476.82-2.46.82a4.702 4.702 0 0 1-2.132-.492 3.462 3.462 0 0 1-1.148-1.64l-13.776-33.784.164.328h-54.94l-13.284 33.456c-.547 1.421-1.531 2.132-2.952 2.132-.984 0-1.804-.273-2.46-.82a3.39 3.39 0 0 1-.984-1.968c-.109-.437-.055-.984.164-1.64l44.116-108.568c.328-.875.711-1.421 1.148-1.64.547-.328 1.203-.492 1.968-.492 1.64 0 2.733.71 3.28 2.132l44.116 108.568zm-72.488-37.72h49.692l-25.092-61.828-24.6 61.828zm203.611-63.14c.984.765 1.476 1.64 1.476 2.624 0 .875-.219 1.585-.656 2.132-.656.875-1.476 1.312-2.46 1.312-.437 0-1.093-.219-1.968-.656-10.168-6.888-20.937-10.332-32.308-10.332-9.184 0-17.657 2.296-25.42 6.888-7.653 4.483-13.721 10.769-18.204 18.86-4.483 7.981-6.724 17.001-6.724 27.06 0 10.059 2.241 19.133 6.724 27.224 4.483 7.981 10.551 14.268 18.204 18.86 7.763 4.483 16.236 6.724 25.42 6.724 11.48 0 22.195-3.389 32.144-10.168.547-.437 1.203-.656 1.968-.656 1.093 0 1.968.437 2.624 1.312.437.547.656 1.203.656 1.968 0 1.093-.437 1.968-1.312 2.624-4.264 3.061-9.785 5.685-16.564 7.872-6.669 2.187-13.175 3.28-19.516 3.28-10.387 0-19.953-2.569-28.7-7.708s-15.689-12.191-20.828-21.156c-5.139-9.075-7.708-19.133-7.708-30.176s2.569-21.047 7.708-30.012c5.139-9.075 12.081-16.181 20.828-21.32 8.747-5.139 18.313-7.708 28.7-7.708 6.56 0 12.901.984 19.024 2.952 6.232 1.968 11.863 4.701 16.892 8.2zm113.343 98.728c.87 0 1.64.328 2.3.984.65.656.98 1.421.98 2.296 0 .984-.33 1.804-.98 2.46-.66.547-1.43.82-2.3.82h-61.829c-.875 0-1.64-.328-2.296-.984-.656-.656-.984-1.421-.984-2.296V97.48c0-.875.328-1.64.984-2.296.656-.656 1.421-.984 2.296-.984h61.829c.87 0 1.64.328 2.3.984.65.656.98 1.421.98 2.296 0 .984-.33 1.804-.98 2.46-.66.547-1.43.82-2.3.82h-58.221v45.756h50.841c.87 0 1.64.328 2.3.984.65.656.98 1.421.98 2.296 0 .984-.33 1.804-.98 2.46-.66.547-1.43.82-2.3.82h-50.841v49.364h58.221zM1169.98 94.2c.87 0 1.64.328 2.3.984.65.656.98 1.421.98 2.296 0 .984-.33 1.804-.98 2.46-.66.547-1.43.82-2.3.82h-58.55v45.264h51.17c.87 0 1.64.328 2.3.984.65.656.98 1.421.98 2.296 0 .984-.33 1.804-.98 2.46-.66.547-1.43.82-2.3.82h-51.17v53.136c0 .875-.33 1.64-.98 2.296-.55.656-1.31.984-2.3.984-.98 0-1.8-.328-2.46-.984a3.512 3.512 0 0 1-.82-2.296V97.48c0-.875.33-1.64.99-2.296.65-.656 1.42-.984 2.29-.984h61.83zm59.43 111.356c-.11.984-.49 1.804-1.15 2.46-.65.656-1.42.984-2.29.984-1.1 0-1.97-.328-2.63-.984-.54-.656-.82-1.476-.82-2.46V97.644c0-.984.33-1.804.99-2.46.65-.656 1.47-.984 2.46-.984.98 0 1.8.328 2.46.984.65.656.98 1.476.98 2.46v107.912zm86.79 5.084c-8.09 0-15.15-1.367-21.16-4.1-6.01-2.843-11.97-7.216-17.87-13.12-.66-.656-.99-1.476-.99-2.46 0-.875.38-1.695 1.15-2.46.76-.875 1.58-1.312 2.46-1.312.98 0 1.91.492 2.79 1.476 4.26 5.029 9.29 8.856 15.09 11.48a45.12 45.12 0 0 0 18.53 3.936c8.42 0 15.36-2.023 20.83-6.068 5.46-4.045 8.2-9.403 8.2-16.072-.11-5.248-1.54-9.567-4.27-12.956-2.73-3.389-6.12-6.068-10.17-8.036-3.93-2.077-9.34-4.373-16.23-6.888-7.55-2.843-13.45-5.357-17.71-7.544-4.16-2.187-7.77-5.303-10.83-9.348-2.95-4.045-4.43-9.348-4.43-15.908 0-5.357 1.48-10.223 4.43-14.596 2.95-4.373 7.16-7.817 12.63-10.332 5.47-2.515 11.81-3.772 19.02-3.772 6.45 0 12.58 1.203 18.37 3.608 5.8 2.296 10.39 5.576 13.78 9.84 1.09 1.531 1.64 2.679 1.64 3.444 0 .875-.44 1.695-1.31 2.46-.77.656-1.64.984-2.63.984-.87 0-1.58-.328-2.13-.984-3.06-3.936-7-7.052-11.81-9.348-4.81-2.296-10.11-3.444-15.91-3.444-8.31 0-15.25 1.968-20.82 5.904-5.47 3.936-8.2 9.293-8.2 16.072 0 4.701 1.31 8.692 3.93 11.972 2.73 3.28 6.12 5.959 10.17 8.036 4.04 1.968 9.07 4.045 15.09 6.232 7.65 2.733 13.72 5.248 18.2 7.544 4.48 2.296 8.31 5.631 11.48 10.004 3.17 4.373 4.76 10.168 4.76 17.384 0 5.029-1.48 9.731-4.43 14.104-2.95 4.373-7.22 7.872-12.79 10.496-5.47 2.515-11.76 3.772-18.86 3.772zM1483.45 94.2c.98 0 1.8.328 2.46.984.65.656.98 1.476.98 2.46v107.912c-.11.984-.49 1.804-1.15 2.46-.65.656-1.42.984-2.29.984-1.1 0-1.97-.328-2.63-.984-.55-.656-.82-1.476-.82-2.46V153.24h-71.5v52.316c-.11.984-.49 1.804-1.15 2.46-.66.656-1.42.984-2.3.984-1.09 0-1.96-.328-2.62-.984-.55-.656-.82-1.476-.82-2.46V97.644c0-.984.33-1.804.98-2.46.66-.656 1.48-.984 2.46-.984.99 0 1.81.328 2.46.984.66.656.99 1.476.99 2.46v49.036h71.5V97.644c0-.984.33-1.804.99-2.46.65-.656 1.47-.984 2.46-.984z" fill="#F8EB33"/><path d="M592.052 262.8c.459 0 .86.172 1.204.516.344.344.516.745.516 1.204 0 .516-.172.946-.516 1.29-.344.287-.745.43-1.204.43H561.35v23.736h26.832c.459 0 .86.172 1.204.516.344.344.516.745.516 1.204 0 .516-.172.946-.516 1.29-.344.287-.745.43-1.204.43H561.35v27.864c0 .459-.172.86-.516 1.204-.286.344-.688.516-1.204.516s-.946-.172-1.29-.516a1.827 1.827 0 0 1-.43-1.204v-56.76c0-.459.172-.86.516-1.204.344-.344.746-.516 1.204-.516h32.422zm27.725 58.394a2.091 2.091 0 0 1-.602 1.29c-.344.344-.745.516-1.204.516-.573 0-1.032-.172-1.376-.516-.287-.344-.43-.774-.43-1.29v-56.588c0-.516.172-.946.516-1.29.344-.344.774-.516 1.29-.516s.946.172 1.29.516c.344.344.516.774.516 1.29v56.588zm42.07 2.666c-4.242 0-7.94-.717-11.094-2.15-3.153-1.491-6.278-3.784-9.374-6.88-.344-.344-.516-.774-.516-1.29 0-.459.201-.889.602-1.29.402-.459.832-.688 1.29-.688.516 0 1.004.258 1.462.774 2.236 2.637 4.874 4.644 7.912 6.02a23.673 23.673 0 0 0 9.718 2.064c4.415 0 8.056-1.061 10.922-3.182 2.867-2.121 4.3-4.931 4.3-8.428-.057-2.752-.802-5.017-2.236-6.794-1.433-1.777-3.21-3.182-5.332-4.214-2.064-1.089-4.902-2.293-8.514-3.612-3.956-1.491-7.052-2.809-9.288-3.956-2.178-1.147-4.07-2.781-5.676-4.902-1.548-2.121-2.322-4.902-2.322-8.342 0-2.809.774-5.361 2.322-7.654s3.756-4.099 6.622-5.418c2.867-1.319 6.192-1.978 9.976-1.978 3.383 0 6.594.631 9.632 1.892 3.039 1.204 5.447 2.924 7.224 5.16.574.803.86 1.405.86 1.806 0 .459-.229.889-.688 1.29-.401.344-.86.516-1.376.516-.458 0-.831-.172-1.118-.516-1.605-2.064-3.669-3.698-6.192-4.902-2.522-1.204-5.303-1.806-8.342-1.806-4.357 0-7.998 1.032-10.922 3.096-2.866 2.064-4.3 4.873-4.3 8.428 0 2.465.688 4.558 2.064 6.278 1.434 1.72 3.211 3.125 5.332 4.214 2.122 1.032 4.759 2.121 7.912 3.268 4.014 1.433 7.196 2.752 9.546 3.956 2.351 1.204 4.358 2.953 6.02 5.246 1.663 2.293 2.494 5.332 2.494 9.116 0 2.637-.774 5.103-2.322 7.396s-3.784 4.128-6.708 5.504c-2.866 1.319-6.163 1.978-9.89 1.978zm84.263-61.06c.516 0 .946.172 1.29.516.344.344.516.774.516 1.29v56.588a2.091 2.091 0 0 1-.602 1.29c-.343.344-.745.516-1.204.516-.573 0-1.032-.172-1.376-.516-.286-.344-.43-.774-.43-1.29V293.76h-37.496v27.434a2.091 2.091 0 0 1-.602 1.29c-.344.344-.745.516-1.204.516-.573 0-1.032-.172-1.376-.516-.286-.344-.43-.774-.43-1.29v-56.588c0-.516.172-.946.516-1.29.344-.344.774-.516 1.29-.516s.946.172 1.29.516c.344.344.516.774.516 1.29v25.714h37.496v-25.714c0-.516.172-.946.517-1.29.343-.344.773-.516 1.289-.516zm76.477 61.06c-4.243 0-7.941-.717-11.094-2.15-3.154-1.491-6.278-3.784-9.374-6.88-.344-.344-.516-.774-.516-1.29 0-.459.2-.889.602-1.29.401-.459.831-.688 1.29-.688.516 0 1.003.258 1.462.774 2.236 2.637 4.873 4.644 7.912 6.02a23.67 23.67 0 0 0 9.718 2.064c4.414 0 8.055-1.061 10.922-3.182 2.866-2.121 4.3-4.931 4.3-8.428-.058-2.752-.803-5.017-2.236-6.794-1.434-1.777-3.211-3.182-5.332-4.214-2.064-1.089-4.902-2.293-8.514-3.612-3.956-1.491-7.052-2.809-9.288-3.956-2.179-1.147-4.071-2.781-5.676-4.902-1.548-2.121-2.322-4.902-2.322-8.342 0-2.809.774-5.361 2.322-7.654s3.755-4.099 6.622-5.418c2.866-1.319 6.192-1.978 9.976-1.978 3.382 0 6.593.631 9.632 1.892 3.038 1.204 5.446 2.924 7.224 5.16.573.803.86 1.405.86 1.806 0 .459-.23.889-.688 1.29-.402.344-.86.516-1.376.516-.459 0-.832-.172-1.118-.516-1.606-2.064-3.67-3.698-6.192-4.902-2.523-1.204-5.304-1.806-8.342-1.806-4.358 0-7.998 1.032-10.922 3.096-2.867 2.064-4.3 4.873-4.3 8.428 0 2.465.688 4.558 2.064 6.278 1.433 1.72 3.21 3.125 5.332 4.214 2.121 1.032 4.758 2.121 7.912 3.268 4.013 1.433 7.195 2.752 9.546 3.956 2.35 1.204 4.357 2.953 6.02 5.246 1.662 2.293 2.494 5.332 2.494 9.116 0 2.637-.774 5.103-2.322 7.396s-3.784 4.128-6.708 5.504c-2.867 1.319-6.164 1.978-9.89 1.978zm84.263-61.06c.516 0 .946.172 1.29.516.344.344.516.774.516 1.29v56.588a2.091 2.091 0 0 1-.602 1.29c-.344.344-.745.516-1.204.516-.573 0-1.032-.172-1.376-.516-.287-.344-.43-.774-.43-1.29V293.76h-37.496v27.434a2.091 2.091 0 0 1-.602 1.29c-.344.344-.745.516-1.204.516-.573 0-1.032-.172-1.376-.516-.287-.344-.43-.774-.43-1.29v-56.588c0-.516.172-.946.516-1.29.344-.344.774-.516 1.29-.516s.946.172 1.29.516c.344.344.516.774.516 1.29v25.714h37.496v-25.714c0-.516.172-.946.516-1.29.344-.344.774-.516 1.29-.516zm62.584 56.76c.459 0 .86.172 1.204.516.344.344.516.745.516 1.204 0 .516-.172.946-.516 1.29-.344.287-.745.43-1.204.43h-32.422c-.458 0-.86-.172-1.204-.516-.344-.344-.516-.745-.516-1.204v-56.76c0-.459.172-.86.516-1.204.344-.344.746-.516 1.204-.516h32.422c.459 0 .86.172 1.204.516.344.344.516.745.516 1.204 0 .516-.172.946-.516 1.29-.344.287-.745.43-1.204.43h-30.53v23.994h26.66c.459 0 .86.172 1.204.516.344.344.516.745.516 1.204 0 .516-.172.946-.516 1.29-.344.287-.745.43-1.204.43h-26.66v25.886h30.53zm57.396 0c.46 0 .86.172 1.2.516.35.344.52.745.52 1.204 0 .516-.17.946-.52 1.29-.34.287-.74.43-1.2.43h-31.563c-.516 0-.946-.172-1.29-.516a1.827 1.827 0 0 1-.43-1.204v-56.76c0-.459.172-.86.516-1.204.344-.344.774-.516 1.29-.516s.946.172 1.29.516c.344.344.516.745.516 1.204v55.04h29.671zm54.39 0c.46 0 .86.172 1.2.516.35.344.52.745.52 1.204 0 .516-.17.946-.52 1.29-.34.287-.74.43-1.2.43h-31.56c-.52 0-.95-.172-1.29-.516a1.806 1.806 0 0 1-.43-1.204v-56.76c0-.459.17-.86.51-1.204a1.77 1.77 0 0 1 1.29-.516c.52 0 .95.172 1.29.516.35.344.52.745.52 1.204v55.04h29.67zm91.68-56.76c.45 0 .86.172 1.2.516.34.287.52.659.52 1.118 0 .516-.18.917-.52 1.204-.29.287-.69.43-1.2.43h-19.18v55.212c0 .459-.17.86-.52 1.204-.34.344-.74.516-1.2.516-.52 0-.95-.172-1.29-.516a1.806 1.806 0 0 1-.43-1.204v-55.212h-19.18c-.46 0-.86-.143-1.2-.43-.35-.344-.52-.745-.52-1.204 0-.459.17-.831.52-1.118.34-.344.74-.516 1.2-.516h41.8zm65.67 0c.52 0 .95.172 1.29.516.35.344.52.774.52 1.29v56.588c-.06.516-.26.946-.6 1.29-.35.344-.75.516-1.21.516-.57 0-1.03-.172-1.37-.516-.29-.344-.43-.774-.43-1.29V293.76h-37.5v27.434c-.05.516-.26.946-.6 1.29-.34.344-.74.516-1.2.516-.58 0-1.04-.172-1.38-.516-.29-.344-.43-.774-.43-1.29v-56.588c0-.516.17-.946.52-1.29.34-.344.77-.516 1.29-.516.51 0 .94.172 1.29.516.34.344.51.774.51 1.29v25.714h37.5v-25.714c0-.516.17-.946.51-1.29a1.77 1.77 0 0 1 1.29-.516zm62.59 56.76c.46 0 .86.172 1.2.516.35.344.52.745.52 1.204 0 .516-.17.946-.52 1.29-.34.287-.74.43-1.2.43h-32.42c-.46 0-.86-.172-1.21-.516-.34-.344-.51-.745-.51-1.204v-56.76c0-.459.17-.86.51-1.204.35-.344.75-.516 1.21-.516h32.42c.46 0 .86.172 1.2.516.35.344.52.745.52 1.204 0 .516-.17.946-.52 1.29-.34.287-.74.43-1.2.43h-30.53v23.994h26.66c.46 0 .86.172 1.2.516.35.344.52.745.52 1.204 0 .516-.17.946-.52 1.29-.34.287-.74.43-1.2.43h-26.66v25.886h30.53zm76.66-56.76c.46.057.83.258 1.12.602.28.287.43.659.43 1.118v56.76c0 .459-.2.86-.61 1.204-.34.344-.74.516-1.2.516-.52 0-.95-.172-1.29-.516-.34-.344-.52-.745-.52-1.204v-51.428l-22.18 33.54c-.29.459-.69.688-1.21.688-.63 0-1.09-.229-1.37-.688l-22.28-33.626v51.514c0 .459-.17.86-.51 1.204-.35.344-.75.516-1.21.516-.51 0-.94-.172-1.29-.516a1.858 1.858 0 0 1-.43-1.204v-56.76c0-.401.15-.774.43-1.118.35-.401.75-.602 1.21-.602.74 0 1.29.258 1.63.774l23.82 35.432 23.82-35.432c.46-.631 1.01-.889 1.64-.774zm62.36 56.76c.46 0 .86.172 1.2.516.34.344.52.745.52 1.204 0 .516-.18.946-.52 1.29-.34.287-.74.43-1.2.43h-32.43c-.45 0-.86-.172-1.2-.516-.34-.344-.52-.745-.52-1.204v-56.76c0-.459.18-.86.52-1.204s.75-.516 1.2-.516h32.43c.46 0 .86.172 1.2.516.34.344.52.745.52 1.204 0 .516-.18.946-.52 1.29-.34.287-.74.43-1.2.43h-30.53v23.994h26.66c.46 0 .86.172 1.2.516.34.344.52.745.52 1.204 0 .516-.18.946-.52 1.29-.34.287-.74.43-1.2.43h-26.66v25.886h30.53z" fill="#71C6CD"/></svg>
