<svg width="726" height="102" fill="none" xmlns="http://www.w3.org/2000/svg"><g clip-path="url(#clip0)"><mask id="a" maskUnits="userSpaceOnUse" x="0" y="0" width="770" height="102"><rect x="1" y="1" width="768" height="100" rx="4" fill="#F4FAFB" stroke="#71C6CD" stroke-width="2"/></mask><g mask="url(#a)"><rect x="1" y="1" width="724" height="100" rx="4" fill="#F4FAFB" stroke="#71C6CD" stroke-width="2"/><path d="M53.648 27.192l.24-2.224h-.096l-.688 1.792-2.384 4.176h-.704l-2.512-4.192-.704-1.776h-.08l.32 2.208V33h-2.08V21.8h2l2.992 5.12.528 1.28h.064l.48-1.312 2.832-5.088h1.984V33h-2.192v-5.808zm4.013-1.728a6.586 6.586 0 0 1 1.52-.448 9.366 9.366 0 0 1 1.84-.176c.554 0 1.018.07 1.392.208.373.128.667.315.88.56.224.245.379.539.464.88.096.341.144.725.144 1.152 0 .47-.016.944-.048 1.424-.032.47-.053.933-.064 1.392 0 .459.016.907.048 1.344.032.427.112.832.24 1.216H62.38l-.336-1.104h-.08a2.9 2.9 0 0 1-.896.864c-.373.235-.859.352-1.456.352-.373 0-.71-.053-1.008-.16a2.344 2.344 0 0 1-.768-.48 2.296 2.296 0 0 1-.496-.736 2.521 2.521 0 0 1-.176-.96c0-.49.107-.901.32-1.232.224-.341.538-.613.944-.816.416-.213.907-.357 1.472-.432a10.046 10.046 0 0 1 1.92-.08c.075-.597.032-1.024-.128-1.28-.16-.267-.517-.4-1.072-.4-.416 0-.859.043-1.328.128a4.823 4.823 0 0 0-1.136.336l-.496-1.552zm2.64 5.952c.416 0 .746-.09.992-.272.245-.192.426-.395.544-.608v-1.04a5.813 5.813 0 0 0-.96-.016 3.45 3.45 0 0 0-.8.144 1.358 1.358 0 0 0-.56.32.715.715 0 0 0-.208.528c0 .299.085.533.256.704.181.16.427.24.736.24zM65.838 25h2.08v8h-2.08v-8zm-.304-2.256c0-.31.112-.57.336-.784.235-.224.555-.336.96-.336.406 0 .731.112.976.336.256.213.384.475.384.784 0 .31-.128.57-.384.784-.245.203-.57.304-.976.304-.405 0-.725-.101-.96-.304a1.04 1.04 0 0 1-.336-.784zM74.84 33v-4.544c0-.65-.096-1.12-.288-1.408-.181-.288-.496-.432-.944-.432-.394 0-.73.117-1.008.352a1.884 1.884 0 0 0-.576.848V33h-2.08v-8h1.648l.24 1.056h.064c.246-.341.57-.64.976-.896s.928-.384 1.568-.384c.395 0 .747.053 1.056.16.31.107.57.283.784.528.214.245.374.581.48 1.008.107.416.16.933.16 1.552V33h-2.08zm2.991-8h1.104v-1.504l2.08-.592V25h1.952v1.76h-1.952v3.072c0 .555.053.955.16 1.2.117.235.33.352.64.352.213 0 .395-.021.544-.064.16-.043.336-.107.528-.192l.368 1.6a5.279 5.279 0 0 1-1.008.352 4.798 4.798 0 0 1-1.168.144c-.736 0-1.28-.187-1.632-.56-.341-.384-.512-1.008-.512-1.872V26.76H77.83V25zm12.732 7.312c-.32.256-.757.475-1.312.656a5.793 5.793 0 0 1-1.744.256c-1.29 0-2.235-.373-2.832-1.12-.597-.757-.896-1.792-.896-3.104 0-1.408.336-2.464 1.008-3.168.672-.704 1.616-1.056 2.832-1.056.405 0 .8.053 1.184.16.384.107.725.283 1.024.528.299.245.539.576.72.992.181.416.272.933.272 1.552 0 .224-.016.464-.048.72a7.57 7.57 0 0 1-.112.8h-4.8c.032.672.203 1.179.512 1.52.32.341.832.512 1.536.512.437 0 .827-.064 1.168-.192.352-.139.619-.277.8-.416l.688 1.36zm-2.976-5.872c-.544 0-.95.165-1.216.496-.256.32-.41.752-.464 1.296h2.976c.043-.576-.048-1.019-.272-1.328-.213-.31-.555-.464-1.024-.464zM97.183 33v-4.544c0-.65-.096-1.12-.288-1.408-.181-.288-.496-.432-.944-.432-.395 0-.73.117-1.008.352a1.884 1.884 0 0 0-.576.848V33h-2.08v-8h1.648l.24 1.056h.064c.245-.341.57-.64.976-.896.405-.256.928-.384 1.568-.384.395 0 .747.053 1.056.16.31.107.57.283.784.528.213.245.373.581.48 1.008.107.416.16.933.16 1.552V33h-2.08zm3.775-7.536a6.572 6.572 0 0 1 1.52-.448 9.362 9.362 0 0 1 1.84-.176c.554 0 1.018.07 1.392.208.373.128.666.315.88.56.224.245.378.539.464.88.096.341.144.725.144 1.152 0 .47-.016.944-.048 1.424-.032.47-.054.933-.064 1.392 0 .459.016.907.048 1.344.032.427.112.832.24 1.216h-1.696l-.336-1.104h-.08c-.214.33-.512.619-.896.864-.374.235-.859.352-1.456.352-.374 0-.71-.053-1.008-.16a2.338 2.338 0 0 1-.768-.48 2.281 2.281 0 0 1-.496-.736 2.51 2.51 0 0 1-.176-.96c0-.49.106-.901.32-1.232.224-.341.538-.613.944-.816.416-.213.906-.357 1.472-.432a10.046 10.046 0 0 1 1.92-.08c.074-.597.032-1.024-.128-1.28-.16-.267-.518-.4-1.072-.4a7.44 7.44 0 0 0-1.328.128c-.459.085-.838.197-1.136.336l-.496-1.552zm2.64 5.952c.416 0 .746-.09.992-.272a2.05 2.05 0 0 0 .544-.608v-1.04a5.814 5.814 0 0 0-.96-.016 3.44 3.44 0 0 0-.8.144 1.352 1.352 0 0 0-.56.32.714.714 0 0 0-.208.528c0 .299.085.533.256.704.181.16.426.24.736.24zM113.839 33v-4.544c0-.65-.096-1.12-.288-1.408-.181-.288-.496-.432-.944-.432-.394 0-.73.117-1.008.352a1.895 1.895 0 0 0-.576.848V33h-2.08v-8h1.648l.24 1.056h.064c.246-.341.571-.64.976-.896.406-.256.928-.384 1.568-.384.395 0 .747.053 1.056.16.31.107.571.283.784.528.214.245.374.581.48 1.008.107.416.16.933.16 1.552V33h-2.08zm9.487-.496c-.32.235-.709.41-1.168.528a5.042 5.042 0 0 1-1.392.192c-.64 0-1.184-.101-1.632-.304a2.812 2.812 0 0 1-1.072-.848 3.707 3.707 0 0 1-.608-1.344 7.917 7.917 0 0 1-.176-1.728c0-1.355.304-2.395.912-3.12.608-.736 1.493-1.104 2.656-1.104.587 0 1.056.048 1.408.144.363.096.688.219.976.368l-.496 1.696a4.113 4.113 0 0 0-.736-.272 3.119 3.119 0 0 0-.816-.096c-.576 0-1.013.192-1.312.576-.299.373-.448.976-.448 1.808 0 .341.037.656.112.944.075.288.187.539.336.752.149.213.341.384.576.512.245.117.528.176.848.176.352 0 .651-.043.896-.128.245-.096.464-.208.656-.336l.48 1.584zm7.392-.192c-.32.256-.757.475-1.312.656a5.792 5.792 0 0 1-1.744.256c-1.29 0-2.234-.373-2.832-1.12-.597-.757-.896-1.792-.896-3.104 0-1.408.336-2.464 1.008-3.168.672-.704 1.616-1.056 2.832-1.056.406 0 .8.053 1.184.16.384.107.726.283 1.024.528.299.245.539.576.72.992.182.416.272.933.272 1.552 0 .224-.016.464-.048.72a7.318 7.318 0 0 1-.112.8h-4.8c.032.672.203 1.179.512 1.52.32.341.832.512 1.536.512.438 0 .827-.064 1.168-.192.352-.139.619-.277.8-.416l.688 1.36zm-2.976-5.872c-.544 0-.949.165-1.216.496-.256.32-.41.752-.464 1.296h2.976c.043-.576-.048-1.019-.272-1.328-.213-.31-.554-.464-1.024-.464zm14.876-4.64h2.08v7.232c0 .725-.096 1.35-.288 1.872a3.519 3.519 0 0 1-.8 1.296 3.084 3.084 0 0 1-1.248.752c-.491.16-1.029.24-1.616.24-2.837 0-4.256-1.296-4.256-3.888V21.8h2.192v7.072c0 .437.037.81.112 1.12.085.299.213.544.384.736.171.181.384.315.64.4.256.075.555.112.896.112.672 0 1.157-.187 1.456-.56.299-.373.448-.976.448-1.808V21.8zm3.903 3.2h1.52l.24.96h.064c.278-.405.603-.704.976-.896.384-.192.848-.288 1.392-.288 1.003 0 1.755.32 2.256.96.502.63.752 1.648.752 3.056 0 .683-.08 1.301-.24 1.856-.16.544-.4 1.008-.72 1.392a3.023 3.023 0 0 1-1.152.88c-.448.203-.965.304-1.552.304-.33 0-.602-.027-.816-.08a2.56 2.56 0 0 1-.64-.224v3.28h-2.08V25zm3.568 1.536c-.405 0-.725.101-.96.304-.224.203-.4.507-.528.912v3.328c.15.117.31.213.48.288.182.064.416.096.704.096.598 0 1.046-.208 1.344-.624.299-.427.448-1.125.448-2.096 0-.704-.117-1.248-.352-1.632-.234-.384-.613-.576-1.136-.576zm11.873 3.648c0 .448.005.896.016 1.344.011.448.059.944.144 1.488h-1.488l-.288-1.04h-.064a2.46 2.46 0 0 1-.928.912c-.395.224-.864.336-1.408.336-1.003 0-1.781-.33-2.336-.992-.555-.661-.832-1.696-.832-3.104 0-1.365.309-2.427.928-3.184.619-.757 1.525-1.136 2.72-1.136.331 0 .603.021.816.064.213.032.427.09.64.176V21.8h2.08v8.384zm-3.536 1.28c.405 0 .725-.096.96-.288.235-.203.4-.49.496-.864V26.92a1.465 1.465 0 0 0-.496-.256 2.153 2.153 0 0 0-.704-.096c-.587 0-1.029.197-1.328.592-.288.395-.432 1.072-.432 2.032 0 .683.117 1.232.352 1.648.245.416.629.624 1.152.624zm5.313-6a6.587 6.587 0 0 1 1.52-.448 9.37 9.37 0 0 1 1.84-.176c.555 0 1.019.07 1.392.208.373.128.667.315.88.56.224.245.379.539.464.88.096.341.144.725.144 1.152 0 .47-.016.944-.048 1.424-.032.47-.053.933-.064 1.392 0 .459.016.907.048 1.344.032.427.112.832.24 1.216h-1.696l-.336-1.104h-.08c-.213.33-.512.619-.896.864-.373.235-.859.352-1.456.352-.373 0-.709-.053-1.008-.16a2.338 2.338 0 0 1-.768-.48 2.297 2.297 0 0 1-.496-.736 2.529 2.529 0 0 1-.176-.96c0-.49.107-.901.32-1.232.224-.341.539-.613.944-.816.416-.213.907-.357 1.472-.432a10.046 10.046 0 0 1 1.92-.08c.075-.597.032-1.024-.128-1.28-.16-.267-.517-.4-1.072-.4a7.44 7.44 0 0 0-1.328.128 4.825 4.825 0 0 0-1.136.336l-.496-1.552zm2.64 5.952c.416 0 .747-.09.992-.272.245-.192.427-.395.544-.608v-1.04a5.814 5.814 0 0 0-.96-.016 3.45 3.45 0 0 0-.8.144 1.358 1.358 0 0 0-.56.32.714.714 0 0 0-.208.528c0 .299.085.533.256.704.181.16.427.24.736.24zM170.893 25h1.104v-1.504l2.08-.592V25h1.952v1.76h-1.952v3.072c0 .555.053.955.16 1.2.117.235.33.352.64.352.213 0 .394-.021.544-.064.16-.043.336-.107.528-.192l.368 1.6a5.279 5.279 0 0 1-1.008.352 4.802 4.802 0 0 1-1.168.144c-.736 0-1.28-.187-1.632-.56-.342-.384-.512-1.008-.512-1.872V26.76h-1.104V25zm12.732 7.312c-.32.256-.758.475-1.312.656a5.797 5.797 0 0 1-1.744.256c-1.291 0-2.235-.373-2.832-1.12-.598-.757-.897-1.792-.897-3.104 0-1.408.337-2.464 1.009-3.168.672-.704 1.616-1.056 2.832-1.056.405 0 .8.053 1.184.16.384.107.725.283 1.024.528.298.245.538.576.72.992.181.416.272.933.272 1.552 0 .224-.016.464-.048.72a7.84 7.84 0 0 1-.112.8h-4.8c.032.672.202 1.179.512 1.52.32.341.832.512 1.536.512.437 0 .826-.064 1.168-.192.352-.139.618-.277.8-.416l.688 1.36zm-2.976-5.872c-.544 0-.95.165-1.216.496-.256.32-.411.752-.464 1.296h2.976c.042-.576-.048-1.019-.272-1.328-.214-.31-.555-.464-1.024-.464zM26.5 19a9.5 9.5 0 1 1 0 19 9.5 9.5 0 0 1 0-19z" fill="#27666B"/><path d="M26.5 34.2a1.425 1.425 0 1 1 0-2.85 1.425 1.425 0 0 1 0 2.85zm.95-5.605c-.123 1.14-1.786 1.14-1.9 0l-.475-4.75a.95.95 0 0 1 .95-1.045h.95a.95.95 0 0 1 .95 1.045l-.475 4.75z" fill="#F4FAFB"/><path d="M45.19 49.2h5.334v1.036h-4.172v3.346h3.892v1.036h-3.892V59H45.19v-9.8zm6.728 6.3c0-1.185.262-2.09.784-2.716.532-.635 1.293-.952 2.282-.952.523 0 .976.089 1.358.266.392.168.714.415.966.742.252.317.44.705.56 1.162.122.448.182.947.182 1.498 0 1.185-.266 2.095-.798 2.73-.522.625-1.278.938-2.268.938-.522 0-.98-.084-1.372-.252a2.582 2.582 0 0 1-.952-.742 3.285 3.285 0 0 1-.56-1.162 5.89 5.89 0 0 1-.182-1.512zm1.162 0c0 .355.033.695.098 1.022.075.327.187.611.336.854.15.243.346.439.588.588.243.15.537.224.882.224 1.27.01 1.904-.887 1.904-2.688 0-.364-.037-.71-.112-1.036a2.58 2.58 0 0 0-.322-.854 1.648 1.648 0 0 0-.588-.574c-.242-.15-.536-.224-.882-.224-1.269-.01-1.904.887-1.904 2.688zm11.51 3.038a2.96 2.96 0 0 1-.994.462 4.265 4.265 0 0 1-1.204.168c-.541 0-.998-.084-1.372-.252a2.486 2.486 0 0 1-.924-.742 3.392 3.392 0 0 1-.518-1.162 6.907 6.907 0 0 1-.154-1.512c0-1.185.262-2.09.784-2.716.523-.635 1.274-.952 2.254-.952.448 0 .826.037 1.134.112.318.065.602.163.854.294l-.322.966a2.847 2.847 0 0 0-.714-.28 3.045 3.045 0 0 0-.84-.112c-1.325 0-1.988.896-1.988 2.688 0 .355.033.695.098 1.022.075.317.192.602.35.854.168.243.383.439.644.588.27.15.602.224.994.224.336 0 .635-.051.896-.154.27-.103.49-.22.658-.35l.364.854zM67.14 52v3.99c0 .364.02.686.057.966.046.27.121.5.224.686.102.177.242.313.42.406.177.093.401.14.672.14.252 0 .476-.037.672-.112.196-.084.368-.196.518-.336.158-.14.294-.299.406-.476a2.89 2.89 0 0 0 .294-.588V52h1.12v5.012c0 .336.009.686.028 1.05.028.355.07.667.126.938h-.77l-.28-1.106h-.07a2.785 2.785 0 0 1-.868.91c-.364.243-.826.364-1.386.364-.374 0-.705-.047-.994-.14a1.508 1.508 0 0 1-.714-.462c-.187-.224-.332-.523-.434-.896-.094-.383-.14-.863-.14-1.442V52h1.12zm9.62 5.096c0-.28-.084-.5-.252-.658a2.01 2.01 0 0 0-.63-.392 6.735 6.735 0 0 0-.812-.308 4.618 4.618 0 0 1-.812-.378 2.223 2.223 0 0 1-.616-.602c-.168-.243-.252-.57-.252-.98 0-.672.19-1.162.574-1.47.382-.317.914-.476 1.596-.476.504 0 .924.047 1.26.14.345.084.644.187.896.308l-.266.924a4.034 4.034 0 0 0-.784-.266 3.556 3.556 0 0 0-.966-.126c-.411 0-.714.07-.91.21-.187.14-.28.383-.28.728 0 .243.084.434.252.574.168.13.373.252.616.364.252.103.522.205.812.308.298.103.569.238.812.406.252.168.462.383.63.644.168.252.252.588.252 1.008 0 .299-.052.579-.154.84a1.642 1.642 0 0 1-.448.672 2.127 2.127 0 0 1-.77.434 3.031 3.031 0 0 1-1.064.168c-.532 0-.985-.051-1.358-.154a4.28 4.28 0 0 1-.938-.364l.336-.952c.214.121.494.233.84.336.345.103.695.154 1.05.154.4 0 .732-.08.994-.238.26-.159.392-.443.392-.854zM87.799 59v-3.99c0-.364-.024-.681-.07-.952a1.698 1.698 0 0 0-.224-.686 1.058 1.058 0 0 0-.462-.42c-.187-.093-.434-.14-.742-.14-.44 0-.836.145-1.19.434-.355.28-.584.644-.686 1.092V59h-1.12v-9.8h1.12v3.584h.056c.242-.29.532-.518.868-.686.345-.177.77-.266 1.274-.266.392 0 .732.047 1.022.14.289.084.527.238.714.462.196.224.336.527.42.91.093.373.14.85.14 1.428V59h-1.12zm3.05-6.482a4.037 4.037 0 0 1 1.232-.476c.476-.103.97-.154 1.484-.154.485 0 .873.065 1.162.196.298.13.522.303.672.518.159.205.261.434.308.686.056.252.084.504.084.756 0 .56-.014 1.106-.042 1.638a28.832 28.832 0 0 0-.042 1.512c0 .345.014.672.042.98.028.308.08.593.154.854h-.826l-.294-.98h-.07a2.38 2.38 0 0 1-.322.392c-.122.121-.27.233-.448.336a2.966 2.966 0 0 1-1.414.336 2.48 2.48 0 0 1-.84-.14 2.021 2.021 0 0 1-.658-.392 2.035 2.035 0 0 1-.448-.63 2.102 2.102 0 0 1-.154-.826c0-.41.084-.751.252-1.022.168-.28.401-.5.7-.658a3.338 3.338 0 0 1 1.092-.35c.43-.075.9-.112 1.414-.112h.378c.13 0 .261.01.392.028a7.67 7.67 0 0 0 .042-.756c0-.513-.103-.873-.308-1.078-.206-.205-.579-.308-1.12-.308-.159 0-.332.014-.518.042a4.424 4.424 0 0 0-.56.098 3.642 3.642 0 0 0-.546.154 2.486 2.486 0 0 0-.448.196l-.35-.84zm1.988 5.614c.261 0 .495-.033.7-.098.205-.075.382-.163.532-.266.15-.112.27-.233.364-.364.102-.13.177-.257.224-.378v-1.162a5.722 5.722 0 0 0-.406-.014 6.461 6.461 0 0 0-1.246.042 2.45 2.45 0 0 0-.728.182 1.255 1.255 0 0 0-.504.364.881.881 0 0 0-.182.574c0 .327.117.597.35.812.233.205.532.308.896.308zm8.149-1.036c0-.28-.084-.5-.252-.658a2.01 2.01 0 0 0-.63-.392 6.714 6.714 0 0 0-.812-.308 4.622 4.622 0 0 1-.812-.378 2.225 2.225 0 0 1-.616-.602c-.168-.243-.252-.57-.252-.98 0-.672.192-1.162.574-1.47.383-.317.915-.476 1.596-.476.504 0 .924.047 1.26.14.345.084.644.187.896.308l-.266.924a4.041 4.041 0 0 0-.784-.266 3.559 3.559 0 0 0-.966-.126c-.41 0-.714.07-.91.21-.186.14-.28.383-.28.728 0 .243.084.434.252.574.168.13.374.252.616.364.252.103.523.205.812.308.299.103.569.238.812.406.252.168.462.383.63.644.168.252.252.588.252 1.008 0 .299-.051.579-.154.84a1.641 1.641 0 0 1-.448.672 2.124 2.124 0 0 1-.77.434 3.03 3.03 0 0 1-1.064.168c-.532 0-.984-.051-1.358-.154a4.281 4.281 0 0 1-.938-.364l.336-.952c.215.121.495.233.84.336.346.103.696.154 1.05.154.401 0 .733-.08.994-.238.261-.159.392-.443.392-.854zm9.625 0c0-.28-.084-.5-.252-.658a2.01 2.01 0 0 0-.63-.392 6.728 6.728 0 0 0-.812-.308 4.632 4.632 0 0 1-.812-.378 2.22 2.22 0 0 1-.616-.602c-.168-.243-.252-.57-.252-.98 0-.672.191-1.162.574-1.47.383-.317.915-.476 1.596-.476.504 0 .924.047 1.26.14.345.084.644.187.896.308l-.266.924a4.041 4.041 0 0 0-.784-.266 3.559 3.559 0 0 0-.966-.126c-.411 0-.714.07-.91.21-.187.14-.28.383-.28.728 0 .243.084.434.252.574.168.13.373.252.616.364.252.103.523.205.812.308.299.103.569.238.812.406.252.168.462.383.63.644.168.252.252.588.252 1.008 0 .299-.051.579-.154.84a1.641 1.641 0 0 1-.448.672 2.124 2.124 0 0 1-.77.434 3.03 3.03 0 0 1-1.064.168c-.532 0-.985-.051-1.358-.154a4.287 4.287 0 0 1-.938-.364l.336-.952c.215.121.495.233.84.336.345.103.695.154 1.05.154.401 0 .733-.08.994-.238.261-.159.392-.443.392-.854zM117.918 59v-3.99c0-.364-.024-.681-.07-.952a1.707 1.707 0 0 0-.224-.686 1.058 1.058 0 0 0-.462-.42c-.187-.093-.434-.14-.742-.14-.439 0-.836.145-1.19.434-.355.28-.584.644-.686 1.092V59h-1.12v-9.8h1.12v3.584h.056c.242-.29.532-.518.868-.686.345-.177.77-.266 1.274-.266.392 0 .732.047 1.022.14.289.084.527.238.714.462.196.224.336.527.42.91.093.373.14.85.14 1.428V59h-1.12zm3.4-7h1.12v7h-1.12v-7zm-.238-2.128c0-.215.07-.397.21-.546a.736.736 0 0 1 .56-.238c.224 0 .415.08.574.238a.72.72 0 0 1 .238.546.678.678 0 0 1-.238.532.838.838 0 0 1-.574.21.786.786 0 0 1-.56-.21.72.72 0 0 1-.21-.532zM124.056 52h1.092v-.392c0-.43.033-.803.098-1.12.075-.317.191-.574.35-.77.159-.205.364-.355.616-.448.252-.103.565-.154.938-.154.299 0 .56.019.784.056.233.037.476.107.728.21l-.252.938a2.409 2.409 0 0 0-.616-.182 3.595 3.595 0 0 0-.532-.042c-.243 0-.434.037-.574.112a.69.69 0 0 0-.294.336c-.056.14-.093.317-.112.532-.009.205-.014.448-.014.728V52h1.862v.98h-1.862V59h-1.12v-6.02h-1.092V52zm4.098 0h1.092v-1.386l1.12-.322V52h1.904v.98h-1.904v3.878c0 .485.061.83.182 1.036.121.196.327.294.616.294.243 0 .448-.023.616-.07a8.99 8.99 0 0 0 .56-.21l.252.854c-.252.121-.527.22-.826.294a3.977 3.977 0 0 1-.966.112c-.569 0-.971-.159-1.204-.476-.233-.327-.35-.868-.35-1.624V52.98h-1.092V52zm10.628 6.44c-.28.224-.635.401-1.064.532-.42.13-.868.196-1.344.196-.532 0-.994-.084-1.386-.252a2.556 2.556 0 0 1-.966-.742 3.279 3.279 0 0 1-.56-1.162 5.76 5.76 0 0 1-.182-1.512c0-1.195.266-2.105.798-2.73s1.292-.938 2.282-.938c.317 0 .634.037.952.112.317.065.602.196.854.392s.457.476.616.84c.158.355.238.826.238 1.414 0 .308-.028.649-.084 1.022h-4.494c0 .41.042.775.126 1.092.084.317.214.588.392.812.177.215.406.383.686.504.289.112.639.168 1.05.168.317 0 .634-.056.952-.168.317-.112.555-.243.714-.392l.42.812zm-2.408-5.628c-.551 0-.994.145-1.33.434-.327.29-.523.784-.588 1.484h3.472c0-.71-.136-1.204-.406-1.484-.271-.29-.654-.434-1.148-.434zm9.783 3.78c0 .476.005.91.014 1.302.009.383.051.76.126 1.134h-.756l-.28-.994h-.056a2.256 2.256 0 0 1-.812.812c-.355.215-.77.322-1.246.322-.933 0-1.629-.294-2.086-.882-.448-.588-.672-1.507-.672-2.758 0-1.195.28-2.1.84-2.716.569-.625 1.349-.938 2.338-.938.345 0 .616.019.812.056.205.037.425.098.658.182V49.2h1.12v7.392zm-2.828 1.596c.476 0 .854-.121 1.134-.364.28-.252.471-.63.574-1.134v-3.472a1.566 1.566 0 0 0-.574-.28 3.5 3.5 0 0 0-.854-.084c-.644 0-1.148.215-1.512.644-.364.42-.546 1.097-.546 2.03 0 .383.028.737.084 1.064.065.327.168.607.308.84.14.233.322.42.546.56.233.13.513.196.84.196zM151.123 52h1.092v-1.386l1.12-.322V52h1.904v.98h-1.904v3.878c0 .485.06.83.182 1.036.121.196.326.294.616.294.242 0 .448-.023.616-.07.168-.056.354-.126.56-.21l.252.854c-.252.121-.528.22-.826.294a3.977 3.977 0 0 1-.966.112c-.57 0-.971-.159-1.204-.476-.234-.327-.35-.868-.35-1.624V52.98h-1.092V52zm5.126 3.5c0-1.185.261-2.09.784-2.716.532-.635 1.292-.952 2.282-.952.522 0 .975.089 1.358.266.392.168.714.415.966.742.252.317.438.705.56 1.162.121.448.182.947.182 1.498 0 1.185-.266 2.095-.798 2.73-.523.625-1.279.938-2.268.938-.523 0-.98-.084-1.372-.252a2.579 2.579 0 0 1-.952-.742 3.279 3.279 0 0 1-.56-1.162 5.86 5.86 0 0 1-.182-1.512zm1.161 0c0 .355.033.695.099 1.022.074.327.186.611.336.854.149.243.345.439.588.588.242.15.536.224.882.224 1.269.01 1.904-.887 1.904-2.688 0-.364-.038-.71-.112-1.036a2.604 2.604 0 0 0-.322-.854 1.66 1.66 0 0 0-.588-.574c-.243-.15-.537-.224-.882-.224-1.27-.01-1.905.887-1.905 2.688zm9.545-3.5h1.092v-1.386l1.12-.322V52h1.904v.98h-1.904v3.878c0 .485.06.83.182 1.036.121.196.326.294.616.294.242 0 .448-.023.616-.07.168-.056.354-.126.56-.21l.252.854c-.252.121-.528.22-.826.294a3.977 3.977 0 0 1-.966.112c-.57 0-.971-.159-1.204-.476-.234-.327-.35-.868-.35-1.624V52.98h-1.092V52zm10.162 7v-3.99c0-.364-.023-.681-.07-.952a1.692 1.692 0 0 0-.224-.686 1.058 1.058 0 0 0-.462-.42c-.187-.093-.434-.14-.742-.14-.439 0-.835.145-1.19.434-.355.28-.583.644-.686 1.092V59h-1.12v-9.8h1.12v3.584h.056c.243-.29.532-.518.868-.686.345-.177.77-.266 1.274-.266.392 0 .733.047 1.022.14.289.084.527.238.714.462.196.224.336.527.42.91.093.373.14.85.14 1.428V59h-1.12zm8.272-.56c-.28.224-.634.401-1.064.532-.42.13-.868.196-1.344.196-.532 0-.994-.084-1.386-.252a2.556 2.556 0 0 1-.966-.742 3.296 3.296 0 0 1-.56-1.162 5.802 5.802 0 0 1-.182-1.512c0-1.195.266-2.105.798-2.73s1.293-.938 2.282-.938c.318 0 .635.037.952.112.318.065.602.196.854.392s.458.476.616.84c.159.355.238.826.238 1.414 0 .308-.028.649-.084 1.022h-4.494c0 .41.042.775.126 1.092a2.2 2.2 0 0 0 .392.812c.178.215.406.383.686.504.29.112.64.168 1.05.168.318 0 .635-.056.952-.168.318-.112.556-.243.714-.392l.42.812zm-2.408-5.628c-.55 0-.994.145-1.33.434-.326.29-.522.784-.588 1.484h3.472c0-.71-.135-1.204-.406-1.484-.27-.29-.653-.434-1.148-.434zm13.516 3.78c0 .476.005.91.014 1.302.009.383.051.76.126 1.134h-.756l-.28-.994h-.056a2.256 2.256 0 0 1-.812.812c-.355.215-.77.322-1.246.322-.933 0-1.629-.294-2.086-.882-.448-.588-.672-1.507-.672-2.758 0-1.195.28-2.1.84-2.716.569-.625 1.349-.938 2.338-.938.345 0 .616.019.812.056.205.037.425.098.658.182V49.2h1.12v7.392zm-2.828 1.596c.476 0 .854-.121 1.134-.364.28-.252.471-.63.574-1.134v-3.472a1.566 1.566 0 0 0-.574-.28 3.5 3.5 0 0 0-.854-.084c-.644 0-1.148.215-1.512.644-.364.42-.546 1.097-.546 2.03 0 .383.028.737.084 1.064.065.327.168.607.308.84.14.233.322.42.546.56.233.13.513.196.84.196zm10.095.252c-.28.224-.634.401-1.064.532-.42.13-.868.196-1.344.196-.532 0-.994-.084-1.386-.252a2.556 2.556 0 0 1-.966-.742 3.296 3.296 0 0 1-.56-1.162 5.802 5.802 0 0 1-.182-1.512c0-1.195.266-2.105.798-2.73s1.293-.938 2.282-.938c.318 0 .635.037.952.112.318.065.602.196.854.392s.458.476.616.84c.159.355.238.826.238 1.414 0 .308-.028.649-.084 1.022h-4.494c0 .41.042.775.126 1.092a2.2 2.2 0 0 0 .392.812c.178.215.406.383.686.504.29.112.64.168 1.05.168.318 0 .635-.056.952-.168.318-.112.556-.243.714-.392l.42.812zm-2.408-5.628c-.55 0-.994.145-1.33.434-.326.29-.522.784-.588 1.484h3.472c0-.71-.135-1.204-.406-1.484-.27-.29-.653-.434-1.148-.434zm6.109 3.29l.392 1.33h.014l.35-1.358L209.789 52h1.204l-2.982 7.154h-.476L204.497 52h1.288l1.68 4.102zm9.698 2.338c-.28.224-.635.401-1.064.532-.42.13-.868.196-1.344.196-.532 0-.994-.084-1.386-.252a2.556 2.556 0 0 1-.966-.742 3.279 3.279 0 0 1-.56-1.162 5.76 5.76 0 0 1-.182-1.512c0-1.195.266-2.105.798-2.73s1.292-.938 2.282-.938c.317 0 .634.037.952.112.317.065.602.196.854.392s.457.476.616.84c.158.355.238.826.238 1.414 0 .308-.028.649-.084 1.022h-4.494c0 .41.042.775.126 1.092.084.317.214.588.392.812.177.215.406.383.686.504.289.112.639.168 1.05.168.317 0 .634-.056.952-.168.317-.112.555-.243.714-.392l.42.812zm-2.408-5.628c-.551 0-.994.145-1.33.434-.327.29-.523.784-.588 1.484h3.472c0-.71-.136-1.204-.406-1.484-.271-.29-.654-.434-1.148-.434zm5.653 4.466c0 .327.056.56.168.7.112.14.271.21.476.21.121 0 .252-.01.392-.028.14-.019.299-.06.476-.126l.126.882a2.334 2.334 0 0 1-.63.182c-.261.047-.49.07-.686.07-.42 0-.765-.117-1.036-.35-.271-.243-.406-.649-.406-1.218v-8.4h1.12v8.078zm2.45-1.778c0-1.185.261-2.09.784-2.716.532-.635 1.293-.952 2.282-.952.523 0 .975.089 1.358.266.392.168.714.415.966.742.252.317.439.705.56 1.162.121.448.182.947.182 1.498 0 1.185-.266 2.095-.798 2.73-.523.625-1.279.938-2.268.938-.523 0-.98-.084-1.372-.252a2.579 2.579 0 0 1-.952-.742 3.279 3.279 0 0 1-.56-1.162 5.904 5.904 0 0 1-.182-1.512zm1.162 0c0 .355.033.695.098 1.022.075.327.187.611.336.854.149.243.345.439.588.588.243.15.537.224.882.224 1.269.01 1.904-.887 1.904-2.688 0-.364-.037-.71-.112-1.036a2.582 2.582 0 0 0-.322-.854 1.644 1.644 0 0 0-.588-.574c-.243-.15-.537-.224-.882-.224-1.269-.01-1.904.887-1.904 2.688zm6.736-3.5h.77l.21.84h.056c.214-.327.49-.574.826-.742a2.536 2.536 0 0 1 1.176-.266c.933 0 1.628.275 2.086.826.457.55.686 1.451.686 2.702 0 .588-.08 1.12-.238 1.596-.15.467-.364.863-.644 1.19a2.84 2.84 0 0 1-1.022.756 3.16 3.16 0 0 1-1.316.266c-.346 0-.621-.023-.826-.07a3.014 3.014 0 0 1-.644-.21V61.8h-1.12V52zm2.828.812c-.476 0-.854.126-1.134.378-.271.243-.462.616-.574 1.12v3.472c.168.13.359.233.574.308.214.065.499.098.854.098.644 0 1.152-.238 1.526-.714.382-.485.574-1.195.574-2.128 0-.383-.033-.728-.098-1.036a2.155 2.155 0 0 0-.322-.798 1.426 1.426 0 0 0-.56-.518c-.224-.121-.504-.182-.84-.182zM242.432 59v-3.962c0-.373-.019-.695-.056-.966a2.023 2.023 0 0 0-.182-.7.931.931 0 0 0-.406-.42c-.168-.093-.392-.14-.672-.14-.429 0-.789.13-1.078.392a2.1 2.1 0 0 0-.588.98V59h-1.12v-7h.784l.21.854h.056c.252-.299.541-.541.868-.728.336-.196.77-.294 1.302-.294.448 0 .812.089 1.092.266.289.168.513.467.672.896.215-.364.509-.649.882-.854a2.682 2.682 0 0 1 1.288-.308c.392 0 .723.047.994.14.271.084.495.238.672.462.177.224.303.527.378.91.084.383.126.868.126 1.456V59h-1.12v-4.214c0-.336-.019-.625-.056-.868a1.407 1.407 0 0 0-.196-.616.813.813 0 0 0-.406-.364c-.168-.084-.392-.126-.672-.126-.467 0-.831.13-1.092.392-.261.261-.448.635-.56 1.12V59h-1.12zm12.369-.56c-.28.224-.634.401-1.064.532-.42.13-.868.196-1.344.196-.532 0-.994-.084-1.386-.252a2.556 2.556 0 0 1-.966-.742 3.296 3.296 0 0 1-.56-1.162 5.802 5.802 0 0 1-.182-1.512c0-1.195.266-2.105.798-2.73s1.293-.938 2.282-.938c.318 0 .635.037.952.112.318.065.602.196.854.392s.458.476.616.84c.159.355.238.826.238 1.414 0 .308-.028.649-.084 1.022h-4.494c0 .41.042.775.126 1.092a2.2 2.2 0 0 0 .392.812c.178.215.406.383.686.504.29.112.64.168 1.05.168.318 0 .635-.056.952-.168.318-.112.556-.243.714-.392l.42.812zm-2.408-5.628c-.55 0-.994.145-1.33.434-.326.29-.522.784-.588 1.484h3.472c0-.71-.135-1.204-.406-1.484-.27-.29-.653-.434-1.148-.434zM261.295 59v-3.99c0-.728-.108-1.274-.322-1.638-.206-.373-.588-.56-1.148-.56-.495 0-.906.135-1.232.406a2.093 2.093 0 0 0-.672.994V59h-1.12v-7h.784l.21.854h.056a2.48 2.48 0 0 1 .896-.728c.382-.196.835-.294 1.358-.294.382 0 .718.047 1.008.14.289.084.527.238.714.462.196.224.34.527.434.91.102.373.154.85.154 1.428V59h-1.12zm2.238-7h1.092v-1.386l1.12-.322V52h1.904v.98h-1.904v3.878c0 .485.061.83.182 1.036.121.196.327.294.616.294.243 0 .448-.023.616-.07a8.99 8.99 0 0 0 .56-.21l.252.854c-.252.121-.527.22-.826.294a3.977 3.977 0 0 1-.966.112c-.569 0-.971-.159-1.204-.476-.233-.327-.35-.868-.35-1.624V52.98h-1.092V52zm9.008 3.5c0-1.185.262-2.09.784-2.716.532-.635 1.293-.952 2.282-.952.523 0 .976.089 1.358.266.392.168.714.415.966.742.252.317.439.705.56 1.162a5.7 5.7 0 0 1 .182 1.498c0 1.185-.266 2.095-.798 2.73-.522.625-1.278.938-2.268.938-.522 0-.98-.084-1.372-.252a2.587 2.587 0 0 1-.952-.742 3.296 3.296 0 0 1-.56-1.162 5.904 5.904 0 0 1-.182-1.512zm1.162 0c0 .355.033.695.098 1.022.075.327.187.611.336.854.15.243.346.439.588.588.243.15.537.224.882.224 1.27.01 1.904-.887 1.904-2.688 0-.364-.037-.71-.112-1.036a2.56 2.56 0 0 0-.322-.854 1.644 1.644 0 0 0-.588-.574c-.242-.15-.536-.224-.882-.224-1.269-.01-1.904.887-1.904 2.688zm5.802-3.5h1.092v-.392c0-.43.033-.803.098-1.12.075-.317.192-.574.35-.77.159-.205.364-.355.616-.448.252-.103.565-.154.938-.154.299 0 .56.019.784.056.234.037.476.107.728.21l-.252.938a2.397 2.397 0 0 0-.616-.182 3.585 3.585 0 0 0-.532-.042c-.242 0-.434.037-.574.112a.7.7 0 0 0-.294.336c-.056.14-.093.317-.112.532-.009.205-.014.448-.014.728V52h1.862v.98h-1.862V59h-1.12v-6.02h-1.092V52zm56.925 6.398c0-.224.075-.406.224-.546a.806.806 0 0 1 .574-.21.88.88 0 0 1 .7.308c.187.205.28.504.28.896 0 .336-.047.63-.14.882a2.146 2.146 0 0 1-.364.644 1.997 1.997 0 0 1-.49.448c-.177.121-.355.21-.532.266l-.35-.546c.336-.13.583-.336.742-.616a1.55 1.55 0 0 0 .252-.826.752.752 0 0 1-.238.042.674.674 0 0 1-.476-.182c-.121-.13-.182-.317-.182-.56zM341.271 52h1.092v-1.386l1.12-.322V52h1.904v.98h-1.904v3.878c0 .485.061.83.182 1.036.122.196.327.294.616.294.243 0 .448-.023.616-.07a8.99 8.99 0 0 0 .56-.21l.252.854c-.252.121-.527.22-.826.294-.298.075-.62.112-.966.112-.569 0-.97-.159-1.204-.476-.233-.327-.35-.868-.35-1.624V52.98h-1.092V52zm10.162 7v-3.99c0-.364-.023-.681-.07-.952a1.692 1.692 0 0 0-.224-.686 1.058 1.058 0 0 0-.462-.42c-.186-.093-.434-.14-.742-.14-.438 0-.835.145-1.19.434-.354.28-.583.644-.686 1.092V59h-1.12v-9.8h1.12v3.584h.056c.243-.29.532-.518.868-.686.346-.177.77-.266 1.274-.266.392 0 .733.047 1.022.14.29.084.528.238.714.462.196.224.336.527.42.91.094.373.14.85.14 1.428V59h-1.12zm8.273-.56c-.28.224-.635.401-1.064.532-.42.13-.868.196-1.344.196-.532 0-.994-.084-1.386-.252a2.556 2.556 0 0 1-.966-.742 3.279 3.279 0 0 1-.56-1.162 5.76 5.76 0 0 1-.182-1.512c0-1.195.266-2.105.798-2.73s1.292-.938 2.282-.938c.317 0 .634.037.952.112.317.065.602.196.854.392s.457.476.616.84c.158.355.238.826.238 1.414 0 .308-.028.649-.084 1.022h-4.494c0 .41.042.775.126 1.092.084.317.214.588.392.812.177.215.406.383.686.504.289.112.639.168 1.05.168.317 0 .634-.056.952-.168.317-.112.555-.243.714-.392l.42.812zm-2.408-5.628c-.551 0-.994.145-1.33.434-.327.29-.523.784-.588 1.484h3.472c0-.71-.136-1.204-.406-1.484-.271-.29-.654-.434-1.148-.434zm11.219 4.284c0-.28-.084-.5-.252-.658a2.01 2.01 0 0 0-.63-.392 6.665 6.665 0 0 0-.812-.308 4.632 4.632 0 0 1-.812-.378 2.233 2.233 0 0 1-.616-.602c-.168-.243-.252-.57-.252-.98 0-.672.192-1.162.574-1.47.383-.317.915-.476 1.596-.476.504 0 .924.047 1.26.14.346.084.644.187.896.308l-.266.924a4.018 4.018 0 0 0-.784-.266 3.548 3.548 0 0 0-.966-.126c-.41 0-.714.07-.91.21-.186.14-.28.383-.28.728 0 .243.084.434.252.574.168.13.374.252.616.364.252.103.523.205.812.308.299.103.57.238.812.406.252.168.462.383.63.644.168.252.252.588.252 1.008 0 .299-.051.579-.154.84a1.631 1.631 0 0 1-.448.672 2.124 2.124 0 0 1-.77.434 3.027 3.027 0 0 1-1.064.168c-.532 0-.984-.051-1.358-.154a4.287 4.287 0 0 1-.938-.364l.336-.952c.215.121.495.233.84.336.346.103.696.154 1.05.154.402 0 .733-.08.994-.238.262-.159.392-.443.392-.854zM372.338 52v3.99c0 .364.019.686.056.966.047.27.121.5.224.686.103.177.243.313.42.406.177.093.401.14.672.14.252 0 .476-.037.672-.112.196-.084.369-.196.518-.336.159-.14.294-.299.406-.476.121-.187.219-.383.294-.588V52h1.12v5.012c0 .336.009.686.028 1.05.028.355.07.667.126.938h-.77l-.28-1.106h-.07a2.788 2.788 0 0 1-.868.91c-.364.243-.826.364-1.386.364-.373 0-.705-.047-.994-.14a1.508 1.508 0 0 1-.714-.462c-.187-.224-.331-.523-.434-.896-.093-.383-.14-.863-.14-1.442V52h1.12zm11.313 6.538c-.28.205-.612.36-.994.462a4.266 4.266 0 0 1-1.204.168c-.542 0-.999-.084-1.372-.252a2.476 2.476 0 0 1-.924-.742 3.38 3.38 0 0 1-.518-1.162 6.888 6.888 0 0 1-.154-1.512c0-1.185.261-2.09.784-2.716.522-.635 1.274-.952 2.254-.952.448 0 .826.037 1.134.112.317.065.602.163.854.294l-.322.966a2.856 2.856 0 0 0-.714-.28 3.05 3.05 0 0 0-.84-.112c-1.326 0-1.988.896-1.988 2.688 0 .355.032.695.098 1.022.074.317.191.602.35.854.168.243.382.439.644.588.27.15.602.224.994.224.336 0 .634-.051.896-.154.27-.103.49-.22.658-.35l.364.854zm5.988 0c-.28.205-.611.36-.994.462a4.266 4.266 0 0 1-1.204.168c-.541 0-.999-.084-1.372-.252a2.492 2.492 0 0 1-.924-.742 3.4 3.4 0 0 1-.518-1.162 6.888 6.888 0 0 1-.154-1.512c0-1.185.261-2.09.784-2.716.523-.635 1.274-.952 2.254-.952.448 0 .826.037 1.134.112.317.065.602.163.854.294l-.322.966a2.856 2.856 0 0 0-.714-.28 3.04 3.04 0 0 0-.84-.112c-1.325 0-1.988.896-1.988 2.688 0 .355.033.695.098 1.022.075.317.191.602.35.854.168.243.383.439.644.588.271.15.602.224.994.224.336 0 .635-.051.896-.154.271-.103.49-.22.658-.35l.364.854zm6.324-.098c-.28.224-.634.401-1.064.532-.42.13-.868.196-1.344.196-.532 0-.994-.084-1.386-.252a2.556 2.556 0 0 1-.966-.742 3.296 3.296 0 0 1-.56-1.162 5.802 5.802 0 0 1-.182-1.512c0-1.195.266-2.105.798-2.73s1.293-.938 2.282-.938c.318 0 .635.037.952.112.318.065.602.196.854.392s.458.476.616.84c.159.355.238.826.238 1.414 0 .308-.028.649-.084 1.022h-4.494c0 .41.042.775.126 1.092a2.2 2.2 0 0 0 .392.812c.178.215.406.383.686.504.29.112.64.168 1.05.168.318 0 .635-.056.952-.168.318-.112.556-.243.714-.392l.42.812zm-2.408-5.628c-.55 0-.994.145-1.33.434-.326.29-.522.784-.588 1.484h3.472c0-.71-.135-1.204-.406-1.484-.27-.29-.653-.434-1.148-.434zm7.488 4.284c0-.28-.084-.5-.252-.658a2.01 2.01 0 0 0-.63-.392 6.793 6.793 0 0 0-.812-.308 4.598 4.598 0 0 1-.812-.378 2.22 2.22 0 0 1-.616-.602c-.168-.243-.252-.57-.252-.98 0-.672.191-1.162.574-1.47.382-.317.914-.476 1.596-.476.504 0 .924.047 1.26.14.345.084.644.187.896.308l-.266.924a4.041 4.041 0 0 0-.784-.266 3.559 3.559 0 0 0-.966-.126c-.411 0-.714.07-.91.21-.187.14-.28.383-.28.728 0 .243.084.434.252.574.168.13.373.252.616.364.252.103.522.205.812.308.298.103.569.238.812.406.252.168.462.383.63.644.168.252.252.588.252 1.008 0 .299-.052.579-.154.84a1.65 1.65 0 0 1-.448.672 2.132 2.132 0 0 1-.77.434 3.035 3.035 0 0 1-1.064.168c-.532 0-.985-.051-1.358-.154a4.267 4.267 0 0 1-.938-.364l.336-.952c.214.121.494.233.84.336.345.103.695.154 1.05.154.401 0 .732-.08.994-.238.261-.159.392-.443.392-.854zm5.892 0c0-.28-.084-.5-.252-.658a2.01 2.01 0 0 0-.63-.392 6.665 6.665 0 0 0-.812-.308 4.632 4.632 0 0 1-.812-.378 2.233 2.233 0 0 1-.616-.602c-.168-.243-.252-.57-.252-.98 0-.672.192-1.162.574-1.47.383-.317.915-.476 1.596-.476.504 0 .924.047 1.26.14.346.084.644.187.896.308l-.266.924a4.018 4.018 0 0 0-.784-.266 3.548 3.548 0 0 0-.966-.126c-.41 0-.714.07-.91.21-.186.14-.28.383-.28.728 0 .243.084.434.252.574.168.13.374.252.616.364.252.103.523.205.812.308.299.103.57.238.812.406.252.168.462.383.63.644.168.252.252.588.252 1.008 0 .299-.051.579-.154.84a1.631 1.631 0 0 1-.448.672 2.124 2.124 0 0 1-.77.434 3.027 3.027 0 0 1-1.064.168c-.532 0-.984-.051-1.358-.154a4.287 4.287 0 0 1-.938-.364l.336-.952c.215.121.495.233.84.336.346.103.696.154 1.05.154.402 0 .733-.08.994-.238.262-.159.392-.443.392-.854zm2.421-1.596c0-1.185.261-2.09.784-2.716.532-.635 1.293-.952 2.282-.952.523 0 .975.089 1.358.266.392.168.714.415.966.742.252.317.439.705.56 1.162.121.448.182.947.182 1.498 0 1.185-.266 2.095-.798 2.73-.523.625-1.279.938-2.268.938-.523 0-.98-.084-1.372-.252a2.579 2.579 0 0 1-.952-.742 3.279 3.279 0 0 1-.56-1.162 5.904 5.904 0 0 1-.182-1.512zm1.162 0c0 .355.033.695.098 1.022.075.327.187.611.336.854.149.243.345.439.588.588.243.15.537.224.882.224 1.269.01 1.904-.887 1.904-2.688 0-.364-.037-.71-.112-1.036a2.582 2.582 0 0 0-.322-.854 1.644 1.644 0 0 0-.588-.574c-.243-.15-.537-.224-.882-.224-1.269-.01-1.904.887-1.904 2.688zm10.04-2.422a2.526 2.526 0 0 0-.798-.14c-.402 0-.719.112-.952.336-.234.215-.378.49-.434.826V59h-1.12v-7h.784l.21.854h.056c.177-.317.387-.56.63-.728.252-.177.569-.266.952-.266.27 0 .574.047.91.14l-.238 1.078zM424.82 52h1.092v-1.386l1.12-.322V52h1.904v.98h-1.904v3.878c0 .485.061.83.182 1.036.121.196.327.294.616.294.243 0 .448-.023.616-.07a8.99 8.99 0 0 0 .56-.21l.252.854c-.252.121-.527.22-.826.294a3.977 3.977 0 0 1-.966.112c-.569 0-.971-.159-1.204-.476-.233-.327-.35-.868-.35-1.624V52.98h-1.092V52zm5.126 3.5c0-1.185.261-2.09.784-2.716.532-.635 1.292-.952 2.282-.952.522 0 .975.089 1.358.266.392.168.714.415.966.742.252.317.438.705.56 1.162.121.448.182.947.182 1.498 0 1.185-.266 2.095-.798 2.73-.523.625-1.279.938-2.268.938-.523 0-.98-.084-1.372-.252a2.579 2.579 0 0 1-.952-.742 3.279 3.279 0 0 1-.56-1.162 5.86 5.86 0 0 1-.182-1.512zm1.162 0c0 .355.032.695.098 1.022.074.327.186.611.336.854.149.243.345.439.588.588.242.15.536.224.882.224 1.269.01 1.904-.887 1.904-2.688 0-.364-.038-.71-.112-1.036a2.604 2.604 0 0 0-.322-.854 1.66 1.66 0 0 0-.588-.574c-.243-.15-.537-.224-.882-.224-1.27-.01-1.904.887-1.904 2.688zm15.004 1.008c0-.392-.117-.71-.35-.952a3.24 3.24 0 0 0-.882-.658 9.806 9.806 0 0 0-1.134-.546 6.696 6.696 0 0 1-1.148-.602 3.391 3.391 0 0 1-.868-.882c-.233-.355-.35-.803-.35-1.344 0-.765.266-1.372.798-1.82.532-.448 1.288-.672 2.268-.672a8.81 8.81 0 0 1 1.554.126c.467.084.831.191 1.092.322l-.35 1.022c-.215-.103-.532-.2-.952-.294a6.347 6.347 0 0 0-1.4-.14c-.616 0-1.078.14-1.386.42-.308.27-.462.593-.462.966 0 .364.117.667.35.91.233.243.523.462.868.658.355.187.737.373 1.148.56a6.41 6.41 0 0 1 1.134.658c.355.243.649.537.882.882.233.345.35.775.35 1.288 0 .42-.075.798-.224 1.134a2.386 2.386 0 0 1-.658.868c-.289.243-.639.43-1.05.56-.411.13-.877.196-1.4.196-.7 0-1.279-.056-1.736-.168-.457-.103-.812-.22-1.064-.35l.392-1.05c.215.121.532.243.952.364.42.112.891.168 1.414.168.308 0 .597-.028.868-.084.271-.065.504-.163.7-.294.196-.14.35-.313.462-.518.121-.205.182-.448.182-.728zM449.014 52h.77l.21.84h.056c.214-.327.49-.574.826-.742a2.536 2.536 0 0 1 1.176-.266c.933 0 1.628.275 2.086.826.457.55.686 1.451.686 2.702 0 .588-.08 1.12-.238 1.596-.15.467-.364.863-.644 1.19a2.84 2.84 0 0 1-1.022.756 3.16 3.16 0 0 1-1.316.266c-.346 0-.621-.023-.826-.07a3.014 3.014 0 0 1-.644-.21V61.8h-1.12V52zm2.828.812c-.476 0-.854.126-1.134.378-.271.243-.462.616-.574 1.12v3.472c.168.13.359.233.574.308.214.065.499.098.854.098.644 0 1.152-.238 1.526-.714.382-.485.574-1.195.574-2.128 0-.383-.033-.728-.098-1.036a2.155 2.155 0 0 0-.322-.798 1.426 1.426 0 0 0-.56-.518c-.224-.121-.504-.182-.84-.182zm4.634-.294a4.026 4.026 0 0 1 1.232-.476c.476-.103.97-.154 1.484-.154.485 0 .872.065 1.162.196.298.13.522.303.672.518.158.205.261.434.308.686.056.252.084.504.084.756 0 .56-.014 1.106-.042 1.638a28.832 28.832 0 0 0-.042 1.512c0 .345.014.672.042.98.028.308.079.593.154.854h-.826l-.294-.98h-.07a2.188 2.188 0 0 1-.77.728 2.973 2.973 0 0 1-1.414.336c-.299 0-.579-.047-.84-.14a2.014 2.014 0 0 1-.658-.392 2.03 2.03 0 0 1-.448-.63 2.096 2.096 0 0 1-.154-.826c0-.41.084-.751.252-1.022.168-.28.401-.5.7-.658a3.338 3.338 0 0 1 1.092-.35c.429-.075.9-.112 1.414-.112h.378c.13 0 .261.01.392.028a7.67 7.67 0 0 0 .042-.756c0-.513-.103-.873-.308-1.078-.206-.205-.579-.308-1.12-.308-.159 0-.332.014-.518.042a4.402 4.402 0 0 0-.56.098 3.622 3.622 0 0 0-.546.154 2.465 2.465 0 0 0-.448.196l-.35-.84zm1.988 5.614c.261 0 .494-.033.7-.098a2.38 2.38 0 0 0 .532-.266c.149-.112.27-.233.364-.364.102-.13.177-.257.224-.378v-1.162a5.728 5.728 0 0 0-.406-.014 6.453 6.453 0 0 0-1.246.042 2.443 2.443 0 0 0-.728.182 1.246 1.246 0 0 0-.504.364c-.122.15-.182.34-.182.574 0 .327.116.597.35.812.233.205.532.308.896.308zm9.843.406c-.28.205-.611.36-.994.462a4.266 4.266 0 0 1-1.204.168c-.541 0-.999-.084-1.372-.252a2.492 2.492 0 0 1-.924-.742 3.4 3.4 0 0 1-.518-1.162 6.888 6.888 0 0 1-.154-1.512c0-1.185.261-2.09.784-2.716.523-.635 1.274-.952 2.254-.952.448 0 .826.037 1.134.112.317.065.602.163.854.294l-.322.966a2.856 2.856 0 0 0-.714-.28 3.04 3.04 0 0 0-.84-.112c-1.325 0-1.988.896-1.988 2.688 0 .355.033.695.098 1.022.075.317.191.602.35.854.168.243.383.439.644.588.271.15.602.224.994.224.336 0 .635-.051.896-.154.271-.103.49-.22.658-.35l.364.854zm6.324-.098c-.28.224-.634.401-1.064.532-.42.13-.868.196-1.344.196-.532 0-.994-.084-1.386-.252a2.556 2.556 0 0 1-.966-.742 3.296 3.296 0 0 1-.56-1.162 5.802 5.802 0 0 1-.182-1.512c0-1.195.266-2.105.798-2.73s1.293-.938 2.282-.938c.318 0 .635.037.952.112.318.065.602.196.854.392s.458.476.616.84c.159.355.238.826.238 1.414 0 .308-.028.649-.084 1.022h-4.494c0 .41.042.775.126 1.092a2.2 2.2 0 0 0 .392.812c.178.215.406.383.686.504.29.112.64.168 1.05.168.318 0 .635-.056.952-.168.318-.112.556-.243.714-.392l.42.812zm-2.408-5.628c-.55 0-.994.145-1.33.434-.326.29-.522.784-.588 1.484h3.472c0-.71-.135-1.204-.406-1.484-.27-.29-.653-.434-1.148-.434zm9.798-.812v7h-1.12v-6.02h-2.828V59h-1.12v-6.02h-1.092V52h1.092v-.392c0-.877.214-1.512.644-1.904.438-.401 1.078-.602 1.918-.602.55 0 1.04.056 1.47.168.429.103.765.229 1.008.378l-.378.896a2.768 2.768 0 0 0-.896-.35 5.229 5.229 0 0 0-1.106-.112c-.346 0-.621.042-.826.126a.944.944 0 0 0-.462.364c-.103.159-.173.36-.21.602a7.271 7.271 0 0 0-.042.826h3.948zm5.25 5.096c0-.28-.084-.5-.252-.658a2.01 2.01 0 0 0-.63-.392 6.665 6.665 0 0 0-.812-.308 4.632 4.632 0 0 1-.812-.378 2.233 2.233 0 0 1-.616-.602c-.168-.243-.252-.57-.252-.98 0-.672.192-1.162.574-1.47.383-.317.915-.476 1.596-.476.504 0 .924.047 1.26.14.346.084.644.187.896.308l-.266.924a4.018 4.018 0 0 0-.784-.266 3.548 3.548 0 0 0-.966-.126c-.41 0-.714.07-.91.21-.186.14-.28.383-.28.728 0 .243.084.434.252.574.168.13.374.252.616.364.252.103.523.205.812.308.299.103.57.238.812.406.252.168.462.383.63.644.168.252.252.588.252 1.008 0 .299-.051.579-.154.84a1.631 1.631 0 0 1-.448.672 2.124 2.124 0 0 1-.77.434 3.027 3.027 0 0 1-1.064.168c-.532 0-.984-.051-1.358-.154a4.287 4.287 0 0 1-.938-.364l.336-.952c.215.121.495.233.84.336.346.103.696.154 1.05.154.402 0 .733-.08.994-.238.262-.159.392-.443.392-.854zM494.578 59v-3.99c0-.364-.023-.681-.07-.952a1.692 1.692 0 0 0-.224-.686 1.058 1.058 0 0 0-.462-.42c-.187-.093-.434-.14-.742-.14-.439 0-.835.145-1.19.434-.355.28-.583.644-.686 1.092V59h-1.12v-9.8h1.12v3.584h.056c.243-.29.532-.518.868-.686.345-.177.77-.266 1.274-.266.392 0 .733.047 1.022.14.289.084.527.238.714.462.196.224.336.527.42.91.093.373.14.85.14 1.428V59h-1.12zm2.77-.644c0-.252.07-.448.21-.588a.794.794 0 0 1 .588-.224c.252 0 .453.075.602.224.149.14.224.336.224.588a.796.796 0 0 1-.224.588c-.149.15-.35.224-.602.224a.794.794 0 0 1-.588-.224c-.14-.15-.21-.345-.21-.588zM45.456 69.2h1.162V79h-1.162v-9.8zm2.926 2.8h1.092v-.392c0-.43.033-.803.098-1.12.075-.317.192-.574.35-.77.159-.205.364-.355.616-.448.252-.103.565-.154.938-.154.299 0 .56.019.784.056.234.037.476.107.728.21l-.252.938a2.404 2.404 0 0 0-.616-.182 3.591 3.591 0 0 0-.532-.042c-.242 0-.434.037-.574.112a.695.695 0 0 0-.294.336c-.056.14-.093.317-.112.532-.01.205-.014.448-.014.728V72h1.862v.98h-1.862V79h-1.12v-6.02h-1.092V72zm10.84 4.536l.392 1.344h.07l.308-1.358L61.35 72h1.134l-2.072 6.286c-.159.457-.317.9-.476 1.33-.15.43-.317.812-.504 1.148a2.804 2.804 0 0 1-.63.798 1.192 1.192 0 0 1-.812.308c-.336 0-.611-.047-.826-.14l.196-.966c.121.047.238.07.35.07.261 0 .513-.14.756-.42.243-.27.443-.742.602-1.414l-2.814-7h1.288l1.68 4.536zm3.921-1.036c0-1.185.261-2.09.784-2.716.532-.635 1.293-.952 2.282-.952.523 0 .975.089 1.358.266.392.168.714.415.966.742.252.317.439.705.56 1.162.121.448.182.947.182 1.498 0 1.185-.266 2.095-.798 2.73-.523.625-1.279.938-2.268.938-.523 0-.98-.084-1.372-.252a2.582 2.582 0 0 1-.952-.742 3.285 3.285 0 0 1-.56-1.162 5.89 5.89 0 0 1-.182-1.512zm1.162 0c0 .355.033.695.098 1.022.075.327.187.611.336.854.15.243.345.439.588.588.243.15.537.224.882.224 1.27.01 1.904-.887 1.904-2.688 0-.364-.037-.71-.112-1.036a2.58 2.58 0 0 0-.322-.854 1.648 1.648 0 0 0-.588-.574c-.243-.15-.537-.224-.882-.224-1.27-.01-1.904.887-1.904 2.688zm7.744-3.5v3.99c0 .364.019.686.056.966.047.27.121.5.224.686.103.177.243.313.42.406.177.093.401.14.672.14.252 0 .476-.037.672-.112.196-.084.369-.196.518-.336.159-.14.294-.299.406-.476a2.89 2.89 0 0 0 .294-.588V72h1.12v5.012c0 .336.01.686.028 1.05.028.355.07.667.126.938h-.77l-.28-1.106h-.07a2.785 2.785 0 0 1-.868.91c-.364.243-.826.364-1.386.364-.373 0-.705-.047-.994-.14a1.508 1.508 0 0 1-.714-.462c-.187-.224-.331-.523-.434-.896-.093-.383-.14-.863-.14-1.442V72h1.12zm10.16.518a4.037 4.037 0 0 1 1.231-.476c.476-.103.97-.154 1.484-.154.485 0 .873.065 1.162.196.299.13.523.303.672.518.159.205.261.434.308.686.056.252.084.504.084.756 0 .56-.014 1.106-.042 1.638a28.832 28.832 0 0 0-.042 1.512c0 .345.014.672.042.98.028.308.08.593.154.854h-.826l-.294-.98h-.07a2.38 2.38 0 0 1-.322.392c-.121.121-.27.233-.448.336a2.966 2.966 0 0 1-1.414.336 2.48 2.48 0 0 1-.84-.14 2.021 2.021 0 0 1-.658-.392 2.035 2.035 0 0 1-.448-.63 2.102 2.102 0 0 1-.154-.826c0-.41.084-.751.252-1.022.168-.28.401-.5.7-.658a3.338 3.338 0 0 1 1.092-.35c.43-.075.9-.112 1.414-.112h.378c.13 0 .261.01.392.028a7.67 7.67 0 0 0 .042-.756c0-.513-.103-.873-.308-1.078-.205-.205-.579-.308-1.12-.308-.158 0-.331.014-.518.042a4.424 4.424 0 0 0-.56.098 3.642 3.642 0 0 0-.546.154 2.486 2.486 0 0 0-.448.196l-.35-.84zm1.987 5.614c.261 0 .495-.033.7-.098.206-.075.383-.163.532-.266.15-.112.27-.233.364-.364.103-.13.177-.257.224-.378v-1.162a5.722 5.722 0 0 0-.406-.014 6.461 6.461 0 0 0-1.246.042 2.45 2.45 0 0 0-.728.182 1.255 1.255 0 0 0-.504.364.881.881 0 0 0-.182.574c0 .327.117.597.35.812.234.205.532.308.896.308zm8.374-5.054a2.526 2.526 0 0 0-.798-.14c-.402 0-.72.112-.953.336a1.4 1.4 0 0 0-.434.826V79h-1.12v-7h.784l.21.854h.056c.178-.317.388-.56.63-.728.253-.177.57-.266.953-.266.27 0 .574.047.91.14l-.239 1.078zm6.563 5.362c-.28.224-.634.401-1.064.532-.42.13-.868.196-1.344.196-.532 0-.994-.084-1.386-.252a2.556 2.556 0 0 1-.966-.742 3.284 3.284 0 0 1-.56-1.162 5.79 5.79 0 0 1-.182-1.512c0-1.195.266-2.105.798-2.73s1.293-.938 2.282-.938c.318 0 .635.037.952.112.318.065.602.196.854.392s.458.476.616.84c.159.355.238.826.238 1.414 0 .308-.028.649-.084 1.022h-4.494c0 .41.042.775.126 1.092.084.317.215.588.392.812a1.8 1.8 0 0 0 .686.504c.29.112.64.168 1.05.168.318 0 .635-.056.952-.168.318-.112.556-.243.714-.392l.42.812zm-2.408-5.628c-.55 0-.994.145-1.33.434-.326.29-.522.784-.588 1.484h3.472c0-.71-.135-1.204-.406-1.484-.27-.29-.653-.434-1.148-.434zm8.378-.812h1.12v7h-1.12v-7zm-.238-2.128c0-.215.07-.397.21-.546a.736.736 0 0 1 .56-.238c.224 0 .415.08.574.238a.72.72 0 0 1 .238.546.678.678 0 0 1-.238.532.838.838 0 0 1-.574.21.786.786 0 0 1-.56-.21.72.72 0 0 1-.21-.532zm8.24 9.128v-3.99c0-.728-.107-1.274-.322-1.638-.205-.373-.588-.56-1.148-.56-.494 0-.905.135-1.232.406a2.107 2.107 0 0 0-.672.994V79h-1.12v-7h.784l.21.854h.056c.224-.299.523-.541.896-.728.383-.196.836-.294 1.358-.294.383 0 .719.047 1.008.14.29.084.528.238.714.462.196.224.341.527.434.91.103.373.154.85.154 1.428V79h-1.12zm2.238-7h1.092v-1.386l1.12-.322V72h1.904v.98h-1.904v3.878c0 .485.061.83.182 1.036.122.196.327.294.616.294.243 0 .448-.023.616-.07a8.99 8.99 0 0 0 .56-.21l.252.854c-.252.121-.527.22-.826.294-.298.075-.62.112-.966.112-.569 0-.97-.159-1.204-.476-.233-.327-.35-.868-.35-1.624V72.98h-1.092V72zm10.628 6.44c-.28.224-.634.401-1.064.532-.42.13-.868.196-1.344.196-.532 0-.994-.084-1.386-.252a2.556 2.556 0 0 1-.966-.742 3.296 3.296 0 0 1-.56-1.162 5.802 5.802 0 0 1-.182-1.512c0-1.195.266-2.105.798-2.73s1.293-.938 2.282-.938c.318 0 .635.037.952.112.318.065.602.196.854.392s.458.476.616.84c.159.355.238.826.238 1.414 0 .308-.028.649-.084 1.022h-4.494c0 .41.042.775.126 1.092a2.2 2.2 0 0 0 .392.812c.178.215.406.383.686.504.29.112.64.168 1.05.168.318 0 .635-.056.952-.168.318-.112.556-.243.714-.392l.42.812zm-2.408-5.628c-.55 0-.994.145-1.33.434-.326.29-.522.784-.588 1.484h3.472c0-.71-.135-1.204-.406-1.484-.27-.29-.653-.434-1.148-.434zm7.712.266a2.526 2.526 0 0 0-.798-.14c-.402 0-.719.112-.952.336-.234.215-.378.49-.434.826V79h-1.12v-7h.784l.21.854h.056c.177-.317.387-.56.63-.728.252-.177.569-.266.952-.266.27 0 .574.047.91.14l-.238 1.078zm6.563 5.362c-.28.224-.634.401-1.064.532-.42.13-.868.196-1.344.196-.532 0-.994-.084-1.386-.252a2.556 2.556 0 0 1-.966-.742 3.296 3.296 0 0 1-.56-1.162 5.802 5.802 0 0 1-.182-1.512c0-1.195.266-2.105.798-2.73s1.293-.938 2.282-.938c.318 0 .635.037.952.112.318.065.602.196.854.392s.458.476.616.84c.159.355.238.826.238 1.414 0 .308-.028.649-.084 1.022h-4.494c0 .41.042.775.126 1.092a2.2 2.2 0 0 0 .392.812c.178.215.406.383.686.504.29.112.64.168 1.05.168.318 0 .635-.056.952-.168.318-.112.556-.243.714-.392l.42.812zm-2.408-5.628c-.55 0-.994.145-1.33.434-.326.29-.522.784-.588 1.484h3.472c0-.71-.135-1.204-.406-1.484-.27-.29-.653-.434-1.148-.434zm7.488 4.284c0-.28-.084-.5-.252-.658a2.01 2.01 0 0 0-.63-.392 6.793 6.793 0 0 0-.812-.308 4.598 4.598 0 0 1-.812-.378 2.22 2.22 0 0 1-.616-.602c-.168-.243-.252-.57-.252-.98 0-.672.191-1.162.574-1.47.382-.317.914-.476 1.596-.476.504 0 .924.047 1.26.14.345.084.644.187.896.308l-.266.924a4.041 4.041 0 0 0-.784-.266 3.559 3.559 0 0 0-.966-.126c-.411 0-.714.07-.91.21-.187.14-.28.383-.28.728 0 .243.084.434.252.574.168.13.373.252.616.364.252.103.522.205.812.308.298.103.569.238.812.406.252.168.462.383.63.644.168.252.252.588.252 1.008 0 .299-.052.579-.154.84a1.65 1.65 0 0 1-.448.672 2.132 2.132 0 0 1-.77.434 3.035 3.035 0 0 1-1.064.168c-.532 0-.985-.051-1.358-.154a4.267 4.267 0 0 1-.938-.364l.336-.952c.214.121.494.233.84.336.345.103.695.154 1.05.154.401 0 .732-.08.994-.238.261-.159.392-.443.392-.854zM144.806 72h1.092v-1.386l1.12-.322V72h1.904v.98h-1.904v3.878c0 .485.061.83.182 1.036.122.196.327.294.616.294.243 0 .448-.023.616-.07a8.99 8.99 0 0 0 .56-.21l.252.854c-.252.121-.527.22-.826.294-.298.075-.62.112-.966.112-.569 0-.97-.159-1.204-.476-.233-.327-.35-.868-.35-1.624V72.98h-1.092V72zm10.628 6.44c-.28.224-.635.401-1.064.532-.42.13-.868.196-1.344.196-.532 0-.994-.084-1.386-.252a2.556 2.556 0 0 1-.966-.742 3.279 3.279 0 0 1-.56-1.162 5.802 5.802 0 0 1-.182-1.512c0-1.195.266-2.105.798-2.73s1.293-.938 2.282-.938c.317 0 .635.037.952.112.317.065.602.196.854.392s.457.476.616.84c.159.355.238.826.238 1.414 0 .308-.028.649-.084 1.022h-4.494c0 .41.042.775.126 1.092a2.2 2.2 0 0 0 .392.812c.177.215.406.383.686.504.289.112.639.168 1.05.168.317 0 .635-.056.952-.168.317-.112.555-.243.714-.392l.42.812zm-2.408-5.628c-.551 0-.994.145-1.33.434-.327.29-.523.784-.588 1.484h3.472c0-.71-.135-1.204-.406-1.484-.271-.29-.653-.434-1.148-.434zm9.783 3.78c0 .476.005.91.014 1.302.01.383.052.76.126 1.134h-.756l-.28-.994h-.056a2.248 2.248 0 0 1-.812.812c-.354.215-.77.322-1.246.322-.933 0-1.628-.294-2.086-.882-.448-.588-.672-1.507-.672-2.758 0-1.195.28-2.1.84-2.716.57-.625 1.349-.938 2.338-.938.346 0 .616.019.812.056.206.037.425.098.658.182V69.2h1.12v7.392zm-2.828 1.596c.476 0 .854-.121 1.134-.364.28-.252.472-.63.574-1.134v-3.472a1.566 1.566 0 0 0-.574-.28 3.494 3.494 0 0 0-.854-.084c-.644 0-1.148.215-1.512.644-.364.42-.546 1.097-.546 2.03 0 .383.028.737.084 1.064.066.327.168.607.308.84.14.233.322.42.546.56.234.13.514.196.84.196zM168.937 72h1.12v7h-1.12v-7zm-.238-2.128c0-.215.07-.397.21-.546a.736.736 0 0 1 .56-.238c.224 0 .415.08.574.238a.72.72 0 0 1 .238.546.678.678 0 0 1-.238.532.838.838 0 0 1-.574.21.786.786 0 0 1-.56-.21.72.72 0 0 1-.21-.532zm8.24 9.128v-3.99c0-.728-.107-1.274-.322-1.638-.205-.373-.588-.56-1.148-.56-.494 0-.905.135-1.232.406a2.107 2.107 0 0 0-.672.994V79h-1.12v-7h.784l.21.854h.056c.224-.299.523-.541.896-.728.383-.196.836-.294 1.358-.294.383 0 .719.047 1.008.14.29.084.528.238.714.462.196.224.341.527.434.91.103.373.154.85.154 1.428V79h-1.12zm11.669-.462c-.28.205-.611.36-.994.462a4.266 4.266 0 0 1-1.204.168c-.541 0-.999-.084-1.372-.252a2.492 2.492 0 0 1-.924-.742 3.4 3.4 0 0 1-.518-1.162 6.888 6.888 0 0 1-.154-1.512c0-1.185.261-2.09.784-2.716.523-.635 1.274-.952 2.254-.952.448 0 .826.037 1.134.112.317.065.602.163.854.294l-.322.966a2.856 2.856 0 0 0-.714-.28 3.04 3.04 0 0 0-.84-.112c-1.325 0-1.988.896-1.988 2.688 0 .355.033.695.098 1.022.075.317.191.602.35.854.168.243.383.439.644.588.271.15.602.224.994.224.336 0 .635-.051.896-.154.271-.103.49-.22.658-.35l.364.854zm.822-3.038c0-1.185.261-2.09.784-2.716.532-.635 1.293-.952 2.282-.952.523 0 .975.089 1.358.266.392.168.714.415.966.742.252.317.439.705.56 1.162.121.448.182.947.182 1.498 0 1.185-.266 2.095-.798 2.73-.523.625-1.279.938-2.268.938-.523 0-.98-.084-1.372-.252a2.579 2.579 0 0 1-.952-.742 3.279 3.279 0 0 1-.56-1.162 5.904 5.904 0 0 1-.182-1.512zm1.162 0c0 .355.033.695.098 1.022.075.327.187.611.336.854.149.243.345.439.588.588.243.15.537.224.882.224 1.269.01 1.904-.887 1.904-2.688 0-.364-.037-.71-.112-1.036a2.582 2.582 0 0 0-.322-.854 1.644 1.644 0 0 0-.588-.574c-.243-.15-.537-.224-.882-.224-1.269-.01-1.904.887-1.904 2.688zm11.23 3.5v-3.99c0-.728-.107-1.274-.322-1.638-.205-.373-.588-.56-1.148-.56-.495 0-.905.135-1.232.406a2.107 2.107 0 0 0-.672.994V79h-1.12v-7h.784l.21.854h.056c.224-.299.523-.541.896-.728.383-.196.835-.294 1.358-.294.383 0 .719.047 1.008.14.289.084.527.238.714.462.196.224.341.527.434.91.103.373.154.85.154 1.428V79h-1.12zm2.238-7h1.092v-1.386l1.12-.322V72h1.904v.98h-1.904v3.878c0 .485.061.83.182 1.036.122.196.327.294.616.294.243 0 .448-.023.616-.07a8.99 8.99 0 0 0 .56-.21l.252.854c-.252.121-.527.22-.826.294-.298.075-.62.112-.966.112-.569 0-.97-.159-1.204-.476-.233-.327-.35-.868-.35-1.624V72.98h-1.092V72zm8.972 1.078a2.526 2.526 0 0 0-.798-.14c-.401 0-.718.112-.952.336-.233.215-.378.49-.434.826V79h-1.12v-7h.784l.21.854h.056c.178-.317.388-.56.63-.728.252-.177.57-.266.952-.266.271 0 .574.047.91.14l-.238 1.078zM214.724 72h1.12v7h-1.12v-7zm-.238-2.128c0-.215.07-.397.21-.546a.738.738 0 0 1 .56-.238c.224 0 .416.08.574.238a.72.72 0 0 1 .238.546.678.678 0 0 1-.238.532.836.836 0 0 1-.574.21.788.788 0 0 1-.56-.21.72.72 0 0 1-.21-.532zm3.746-.672h1.12v3.486h.056c.215-.27.486-.48.812-.63.336-.15.7-.224 1.092-.224.906 0 1.582.29 2.03.868.458.579.686 1.475.686 2.688 0 1.223-.298 2.151-.896 2.786-.597.635-1.437.952-2.52.952-.522 0-.998-.056-1.428-.168-.42-.112-.737-.233-.952-.364V69.2zm2.884 3.612c-.466 0-.844.13-1.134.392-.289.261-.499.63-.63 1.106v3.528c.178.103.392.182.644.238a4.3 4.3 0 0 0 .784.07c.635 0 1.139-.224 1.512-.672.383-.448.574-1.148.574-2.1 0-.364-.032-.705-.098-1.022a2.449 2.449 0 0 0-.308-.812 1.568 1.568 0 0 0-.546-.532c-.214-.13-.48-.196-.798-.196zm5.685-.812v3.99c0 .364.019.686.056.966.047.27.121.5.224.686.103.177.243.313.42.406.177.093.401.14.672.14.252 0 .476-.037.672-.112.196-.084.369-.196.518-.336.159-.14.294-.299.406-.476.121-.187.219-.383.294-.588V72h1.12v5.012c0 .336.009.686.028 1.05.028.355.07.667.126.938h-.77l-.28-1.106h-.07a2.788 2.788 0 0 1-.868.91c-.364.243-.826.364-1.386.364-.373 0-.705-.047-.994-.14a1.508 1.508 0 0 1-.714-.462c-.187-.224-.331-.523-.434-.896-.093-.383-.14-.863-.14-1.442V72h1.12zm5.615 0h1.092v-1.386l1.12-.322V72h1.904v.98h-1.904v3.878c0 .485.06.83.182 1.036.121.196.326.294.616.294.242 0 .448-.023.616-.07.168-.056.354-.126.56-.21l.252.854c-.252.121-.528.22-.826.294a3.977 3.977 0 0 1-.966.112c-.57 0-.971-.159-1.204-.476-.234-.327-.35-.868-.35-1.624V72.98h-1.092V72zm5.906 0h1.12v7h-1.12v-7zm-.238-2.128c0-.215.07-.397.21-.546a.736.736 0 0 1 .56-.238c.224 0 .415.08.574.238a.72.72 0 0 1 .238.546.678.678 0 0 1-.238.532.838.838 0 0 1-.574.21.786.786 0 0 1-.56-.21.72.72 0 0 1-.21-.532zm8.24 9.128v-3.99c0-.728-.107-1.274-.322-1.638-.205-.373-.588-.56-1.148-.56-.495 0-.905.135-1.232.406a2.107 2.107 0 0 0-.672.994V79h-1.12v-7h.784l.21.854h.056c.224-.299.523-.541.896-.728.383-.196.835-.294 1.358-.294.383 0 .719.047 1.008.14.289.084.527.238.714.462.196.224.341.527.434.91.103.373.154.85.154 1.428V79h-1.12zm8.524.322c0 .905-.242 1.573-.728 2.002-.476.43-1.185.644-2.128.644-.56 0-1.012-.037-1.358-.112a3.82 3.82 0 0 1-.868-.266l.294-.952c.215.084.453.163.714.238.262.075.602.112 1.022.112.392 0 .71-.037.952-.112.252-.065.453-.182.602-.35.15-.159.252-.369.308-.63.056-.252.084-.555.084-.91v-.672h-.056a1.92 1.92 0 0 1-.714.63c-.289.14-.667.21-1.134.21-.942 0-1.638-.294-2.086-.882-.438-.588-.658-1.503-.658-2.744 0-1.195.285-2.1.854-2.716.57-.625 1.41-.938 2.52-.938.532 0 .985.042 1.358.126.383.084.724.182 1.022.294v7.028zm-2.814-1.148c.476 0 .85-.117 1.12-.35.271-.243.462-.616.574-1.12V73.12c-.373-.177-.849-.266-1.428-.266-.634 0-1.134.215-1.498.644-.364.43-.546 1.101-.546 2.016 0 .392.033.751.098 1.078.066.327.168.607.308.84.14.233.322.415.546.546.224.13.5.196.826.196zm8.312-2.674c0-1.185.261-2.09.784-2.716.532-.635 1.293-.952 2.282-.952.523 0 .975.089 1.358.266.392.168.714.415.966.742.252.317.439.705.56 1.162.121.448.182.947.182 1.498 0 1.185-.266 2.095-.798 2.73-.523.625-1.279.938-2.268.938-.523 0-.98-.084-1.372-.252a2.579 2.579 0 0 1-.952-.742 3.279 3.279 0 0 1-.56-1.162 5.904 5.904 0 0 1-.182-1.512zm1.162 0c0 .355.033.695.098 1.022.075.327.187.611.336.854.149.243.345.439.588.588.243.15.537.224.882.224 1.269.01 1.904-.887 1.904-2.688 0-.364-.037-.71-.112-1.036a2.582 2.582 0 0 0-.322-.854 1.644 1.644 0 0 0-.588-.574c-.243-.15-.537-.224-.882-.224-1.269-.01-1.904.887-1.904 2.688zm10.04-2.422a2.526 2.526 0 0 0-.798-.14c-.401 0-.719.112-.952.336-.233.215-.378.49-.434.826V79h-1.12v-7h.784l.21.854h.056c.177-.317.387-.56.63-.728.252-.177.569-.266.952-.266.271 0 .574.047.91.14l-.238 1.078zM277.742 72v3.99c0 .364.019.686.056.966.047.27.122.5.224.686.103.177.243.313.42.406.178.093.402.14.672.14.252 0 .476-.037.672-.112.196-.084.369-.196.518-.336.159-.14.294-.299.406-.476a2.82 2.82 0 0 0 .294-.588V72h1.12v5.012c0 .336.01.686.028 1.05.028.355.07.667.126.938h-.77l-.28-1.106h-.07a2.778 2.778 0 0 1-.868.91c-.364.243-.826.364-1.386.364-.373 0-.704-.047-.994-.14a1.508 1.508 0 0 1-.714-.462c-.186-.224-.331-.523-.434-.896-.093-.383-.14-.863-.14-1.442V72h1.12zm9.619 5.096c0-.28-.084-.5-.252-.658a2.01 2.01 0 0 0-.63-.392 6.728 6.728 0 0 0-.812-.308 4.632 4.632 0 0 1-.812-.378 2.22 2.22 0 0 1-.616-.602c-.168-.243-.252-.57-.252-.98 0-.672.191-1.162.574-1.47.383-.317.915-.476 1.596-.476.504 0 .924.047 1.26.14.345.084.644.187.896.308l-.266.924a4.041 4.041 0 0 0-.784-.266 3.559 3.559 0 0 0-.966-.126c-.411 0-.714.07-.91.21-.187.14-.28.383-.28.728 0 .243.084.434.252.574.168.13.373.252.616.364.252.103.523.205.812.308.299.103.569.238.812.406.252.168.462.383.63.644.168.252.252.588.252 1.008 0 .299-.051.579-.154.84a1.641 1.641 0 0 1-.448.672 2.124 2.124 0 0 1-.77.434 3.03 3.03 0 0 1-1.064.168c-.532 0-.985-.051-1.358-.154a4.287 4.287 0 0 1-.938-.364l.336-.952c.215.121.495.233.84.336.345.103.695.154 1.05.154.401 0 .733-.08.994-.238.261-.159.392-.443.392-.854zM290.412 72h1.12v7h-1.12v-7zm-.238-2.128c0-.215.07-.397.21-.546a.736.736 0 0 1 .56-.238c.224 0 .415.08.574.238.158.15.238.331.238.546a.68.68 0 0 1-.238.532.838.838 0 0 1-.574.21.786.786 0 0 1-.56-.21.72.72 0 0 1-.21-.532zm8.24 9.128v-3.99c0-.728-.108-1.274-.322-1.638-.206-.373-.588-.56-1.148-.56-.495 0-.906.135-1.232.406a2.093 2.093 0 0 0-.672.994V79h-1.12v-7h.784l.21.854h.056a2.48 2.48 0 0 1 .896-.728c.382-.196.835-.294 1.358-.294.382 0 .718.047 1.008.14.289.084.527.238.714.462.196.224.34.527.434.91.102.373.154.85.154 1.428V79h-1.12zm8.524.322c0 .905-.243 1.573-.728 2.002-.476.43-1.185.644-2.128.644-.56 0-1.013-.037-1.358-.112a3.82 3.82 0 0 1-.868-.266l.294-.952c.215.084.453.163.714.238.261.075.602.112 1.022.112.392 0 .709-.037.952-.112.252-.065.453-.182.602-.35.149-.159.252-.369.308-.63.056-.252.084-.555.084-.91v-.672h-.056c-.187.27-.425.48-.714.63-.289.14-.667.21-1.134.21-.943 0-1.638-.294-2.086-.882-.439-.588-.658-1.503-.658-2.744 0-1.195.285-2.1.854-2.716.569-.625 1.409-.938 2.52-.938.532 0 .985.042 1.358.126a7.51 7.51 0 0 1 1.022.294v7.028zm-2.814-1.148c.476 0 .849-.117 1.12-.35.271-.243.462-.616.574-1.12V73.12c-.373-.177-.849-.266-1.428-.266-.635 0-1.134.215-1.498.644-.364.43-.546 1.101-.546 2.016 0 .392.033.751.098 1.078.065.327.168.607.308.84.14.233.322.415.546.546.224.13.499.196.826.196zM313.066 72h1.12v7h-1.12v-7zm-.238-2.128c0-.215.07-.397.21-.546a.736.736 0 0 1 .56-.238c.224 0 .415.08.574.238a.72.72 0 0 1 .238.546.678.678 0 0 1-.238.532.838.838 0 0 1-.574.21.786.786 0 0 1-.56-.21.72.72 0 0 1-.21-.532zM315.65 72h1.092v-1.386l1.12-.322V72h1.904v.98h-1.904v3.878c0 .485.061.83.182 1.036.121.196.327.294.616.294.243 0 .448-.023.616-.07a8.99 8.99 0 0 0 .56-.21l.252.854c-.252.121-.527.22-.826.294a3.977 3.977 0 0 1-.966.112c-.569 0-.971-.159-1.204-.476-.233-.327-.35-.868-.35-1.624V72.98h-1.092V72zm5.495 6.398c0-.224.075-.406.224-.546a.806.806 0 0 1 .574-.21.88.88 0 0 1 .7.308c.187.205.28.504.28.896 0 .336-.047.63-.14.882a2.146 2.146 0 0 1-.364.644 1.997 1.997 0 0 1-.49.448c-.177.121-.355.21-.532.266l-.35-.546c.336-.13.583-.336.742-.616a1.55 1.55 0 0 0 .252-.826.752.752 0 0 1-.238.042.674.674 0 0 1-.476-.182c-.121-.13-.182-.317-.182-.56zm10.539.14c-.28.205-.611.36-.994.462a4.266 4.266 0 0 1-1.204.168c-.541 0-.999-.084-1.372-.252a2.492 2.492 0 0 1-.924-.742 3.4 3.4 0 0 1-.518-1.162 6.888 6.888 0 0 1-.154-1.512c0-1.185.261-2.09.784-2.716.523-.635 1.274-.952 2.254-.952.448 0 .826.037 1.134.112.317.065.602.163.854.294l-.322.966a2.856 2.856 0 0 0-.714-.28 3.04 3.04 0 0 0-.84-.112c-1.325 0-1.988.896-1.988 2.688 0 .355.033.695.098 1.022.075.317.191.602.35.854.168.243.383.439.644.588.271.15.602.224.994.224.336 0 .635-.051.896-.154.271-.103.49-.22.658-.35l.364.854zm.822-3.038c0-1.185.262-2.09.784-2.716.532-.635 1.293-.952 2.282-.952.523 0 .976.089 1.358.266.392.168.714.415.966.742.252.317.439.705.56 1.162a5.7 5.7 0 0 1 .182 1.498c0 1.185-.266 2.095-.798 2.73-.522.625-1.278.938-2.268.938-.522 0-.98-.084-1.372-.252a2.587 2.587 0 0 1-.952-.742 3.296 3.296 0 0 1-.56-1.162 5.904 5.904 0 0 1-.182-1.512zm1.162 0c0 .355.033.695.098 1.022.075.327.187.611.336.854.15.243.346.439.588.588.243.15.537.224.882.224 1.27.01 1.904-.887 1.904-2.688 0-.364-.037-.71-.112-1.036a2.56 2.56 0 0 0-.322-.854 1.644 1.644 0 0 0-.588-.574c-.242-.15-.536-.224-.882-.224-1.269-.01-1.904.887-1.904 2.688zm10.838 3.5v-3.962c0-.373-.018-.695-.056-.966a2.001 2.001 0 0 0-.182-.7.926.926 0 0 0-.406-.42c-.168-.093-.392-.14-.672-.14-.429 0-.788.13-1.078.392a2.1 2.1 0 0 0-.588.98V79h-1.12v-7h.784l.21.854h.056c.252-.299.542-.541.868-.728.336-.196.77-.294 1.302-.294.448 0 .812.089 1.092.266.29.168.514.467.672.896.215-.364.509-.649.882-.854a2.682 2.682 0 0 1 1.288-.308c.392 0 .724.047.994.14.271.084.495.238.672.462.178.224.304.527.378.91.084.383.126.868.126 1.456V79h-1.12v-4.214c0-.336-.018-.625-.056-.868a1.407 1.407 0 0 0-.196-.616.809.809 0 0 0-.406-.364c-.168-.084-.392-.126-.672-.126-.466 0-.83.13-1.092.392-.261.261-.448.635-.56 1.12V79h-1.12zm12.37-.56c-.28.224-.635.401-1.064.532-.42.13-.868.196-1.344.196-.532 0-.994-.084-1.386-.252a2.556 2.556 0 0 1-.966-.742 3.279 3.279 0 0 1-.56-1.162 5.76 5.76 0 0 1-.182-1.512c0-1.195.266-2.105.798-2.73s1.292-.938 2.282-.938c.317 0 .634.037.952.112.317.065.602.196.854.392s.457.476.616.84c.158.355.238.826.238 1.414 0 .308-.028.649-.084 1.022h-4.495c0 .41.043.775.127 1.092.084.317.214.588.392.812.177.215.406.383.686.504.289.112.639.168 1.05.168.317 0 .634-.056.952-.168.317-.112.555-.243.714-.392l.42.812zm-2.408-5.628c-.551 0-.994.145-1.33.434-.327.29-.523.784-.588 1.484h3.472c0-.71-.136-1.204-.406-1.484-.271-.29-.654-.434-1.148-.434zm7.215-.812h1.092v-1.386l1.12-.322V72h1.904v.98h-1.904v3.878c0 .485.061.83.182 1.036.122.196.327.294.616.294.243 0 .448-.023.616-.07a8.99 8.99 0 0 0 .56-.21l.252.854c-.252.121-.527.22-.826.294-.298.075-.62.112-.966.112-.569 0-.97-.159-1.204-.476-.233-.327-.35-.868-.35-1.624V72.98h-1.092V72zm5.556.518a4.047 4.047 0 0 1 1.232-.476 7.02 7.02 0 0 1 1.484-.154c.486 0 .873.065 1.162.196.299.13.523.303.672.518.159.205.262.434.308.686.056.252.084.504.084.756 0 .56-.014 1.106-.042 1.638a28.832 28.832 0 0 0-.042 1.512c0 .345.014.672.042.98.028.308.08.593.154.854h-.826l-.294-.98h-.07c-.084.13-.191.261-.322.392-.121.121-.27.233-.448.336a2.963 2.963 0 0 1-1.414.336c-.298 0-.578-.047-.84-.14a2.024 2.024 0 0 1-.658-.392 2.047 2.047 0 0 1-.448-.63 2.114 2.114 0 0 1-.154-.826c0-.41.084-.751.252-1.022.168-.28.402-.5.7-.658a3.338 3.338 0 0 1 1.092-.35 8.28 8.28 0 0 1 1.414-.112h.378c.131 0 .262.01.392.028a7.67 7.67 0 0 0 .042-.756c0-.513-.102-.873-.308-1.078-.205-.205-.578-.308-1.12-.308a3.52 3.52 0 0 0-.518.042 4.433 4.433 0 0 0-.56.098 3.69 3.69 0 0 0-.546.154 2.496 2.496 0 0 0-.448.196l-.35-.84zm1.988 5.614c.262 0 .495-.033.7-.098.206-.075.383-.163.532-.266.15-.112.271-.233.364-.364.103-.13.178-.257.224-.378v-1.162a5.707 5.707 0 0 0-.406-.014 6.464 6.464 0 0 0-1.246.042c-.27.028-.513.089-.728.182a1.26 1.26 0 0 0-.504.364.883.883 0 0 0-.182.574c0 .327.117.597.35.812.234.205.532.308.896.308zm6.834-2.282h-.644V79h-1.12v-9.8h1.12v5.964l.574-.196 2.17-2.968h1.302l-2.142 2.814-.574.462.7.56L379.785 79h-1.386l-2.338-3.15zm9.881 2.59c-.28.224-.635.401-1.064.532-.42.13-.868.196-1.344.196-.532 0-.994-.084-1.386-.252a2.556 2.556 0 0 1-.966-.742 3.279 3.279 0 0 1-.56-1.162 5.802 5.802 0 0 1-.182-1.512c0-1.195.266-2.105.798-2.73s1.293-.938 2.282-.938c.317 0 .635.037.952.112.317.065.602.196.854.392s.457.476.616.84c.159.355.238.826.238 1.414 0 .308-.028.649-.084 1.022h-4.494c0 .41.042.775.126 1.092a2.2 2.2 0 0 0 .392.812c.177.215.406.383.686.504.289.112.639.168 1.05.168.317 0 .635-.056.952-.168.317-.112.555-.243.714-.392l.42.812zm-2.408-5.628c-.551 0-.994.145-1.33.434-.327.29-.523.784-.588 1.484h3.472c0-.71-.135-1.204-.406-1.484-.271-.29-.653-.434-1.148-.434zm8.028-.294a4.026 4.026 0 0 1 1.232-.476c.476-.103.97-.154 1.484-.154.485 0 .872.065 1.162.196.298.13.522.303.672.518.158.205.261.434.308.686.056.252.084.504.084.756 0 .56-.014 1.106-.042 1.638a28.832 28.832 0 0 0-.042 1.512c0 .345.014.672.042.98.028.308.079.593.154.854h-.826l-.294-.98h-.07a2.188 2.188 0 0 1-.77.728 2.973 2.973 0 0 1-1.414.336c-.299 0-.579-.047-.84-.14a2.014 2.014 0 0 1-.658-.392 2.03 2.03 0 0 1-.448-.63 2.096 2.096 0 0 1-.154-.826c0-.41.084-.751.252-1.022.168-.28.401-.5.7-.658a3.338 3.338 0 0 1 1.092-.35c.429-.075.9-.112 1.414-.112h.378c.13 0 .261.01.392.028a7.67 7.67 0 0 0 .042-.756c0-.513-.103-.873-.308-1.078-.206-.205-.579-.308-1.12-.308-.159 0-.332.014-.518.042a4.402 4.402 0 0 0-.56.098 3.622 3.622 0 0 0-.546.154 2.465 2.465 0 0 0-.448.196l-.35-.84zm1.988 5.614c.261 0 .494-.033.7-.098a2.38 2.38 0 0 0 .532-.266c.149-.112.27-.233.364-.364.102-.13.177-.257.224-.378v-1.162a5.728 5.728 0 0 0-.406-.014 6.453 6.453 0 0 0-1.246.042 2.443 2.443 0 0 0-.728.182 1.246 1.246 0 0 0-.504.364c-.122.15-.182.34-.182.574 0 .327.116.597.35.812.233.205.532.308.896.308zm10.047-.854c0 .327.056.56.168.7.112.14.271.21.476.21.122 0 .252-.01.392-.028.14-.019.299-.06.476-.126l.126.882a2.334 2.334 0 0 1-.63.182c-.261.047-.49.07-.686.07-.42 0-.765-.117-1.036-.35-.27-.243-.406-.649-.406-1.218v-8.4h1.12v8.078zm2.45-1.778c0-1.185.262-2.09.784-2.716.532-.635 1.293-.952 2.282-.952.523 0 .976.089 1.358.266.392.168.714.415.966.742.252.317.439.705.56 1.162a5.7 5.7 0 0 1 .182 1.498c0 1.185-.266 2.095-.798 2.73-.522.625-1.278.938-2.268.938-.522 0-.98-.084-1.372-.252a2.587 2.587 0 0 1-.952-.742 3.296 3.296 0 0 1-.56-1.162 5.904 5.904 0 0 1-.182-1.512zm1.162 0c0 .355.033.695.098 1.022.075.327.187.611.336.854.15.243.346.439.588.588.243.15.537.224.882.224 1.27.01 1.904-.887 1.904-2.688 0-.364-.037-.71-.112-1.036a2.56 2.56 0 0 0-.322-.854 1.644 1.644 0 0 0-.588-.574c-.242-.15-.536-.224-.882-.224-1.269-.01-1.904.887-1.904 2.688zm6.344 0c0-1.185.262-2.09.784-2.716.532-.635 1.293-.952 2.282-.952.523 0 .976.089 1.358.266.392.168.714.415.966.742.252.317.439.705.56 1.162a5.7 5.7 0 0 1 .182 1.498c0 1.185-.266 2.095-.798 2.73-.522.625-1.278.938-2.268.938-.522 0-.98-.084-1.372-.252a2.587 2.587 0 0 1-.952-.742 3.296 3.296 0 0 1-.56-1.162 5.904 5.904 0 0 1-.182-1.512zm1.162 0c0 .355.033.695.098 1.022.075.327.187.611.336.854.15.243.346.439.588.588.243.15.537.224.882.224 1.27.01 1.904-.887 1.904-2.688 0-.364-.037-.71-.112-1.036a2.56 2.56 0 0 0-.322-.854 1.644 1.644 0 0 0-.588-.574c-.242-.15-.536-.224-.882-.224-1.269-.01-1.904.887-1.904 2.688zm8.5.35h-.644V79h-1.12v-9.8h1.12v5.964l.574-.196 2.17-2.968h1.302l-2.142 2.814-.574.462.7.56L426.939 79h-1.386l-2.338-3.15zm5.635-6.65h1.162v4.858l-.238 2.464h-.686l-.238-2.464V69.2zm-.238 9.156c0-.252.07-.448.21-.588a.797.797 0 0 1 .588-.224c.252 0 .453.075.602.224.15.14.224.336.224.588 0 .243-.074.439-.224.588-.149.15-.35.224-.602.224a.797.797 0 0 1-.588-.224c-.14-.15-.21-.345-.21-.588z" fill="#27666B"/><path d="M292.068 56.368a.903.903 0 0 0-.336-.728 3.291 3.291 0 0 0-.826-.504 17.61 17.61 0 0 0-1.078-.476 6.373 6.373 0 0 1-1.078-.602 3.293 3.293 0 0 1-.826-.896c-.215-.355-.322-.807-.322-1.358 0-.476.079-.887.238-1.232.159-.355.383-.649.672-.882a2.996 2.996 0 0 1 1.05-.518 4.994 4.994 0 0 1 1.344-.168c.569 0 1.106.051 1.61.154.504.093.919.233 1.246.42l-.602 1.61c-.205-.13-.513-.247-.924-.35a5.041 5.041 0 0 0-1.33-.168c-.448 0-.793.089-1.036.266a.852.852 0 0 0-.35.714c0 .28.107.513.322.7.224.187.499.36.826.518.336.159.695.322 1.078.49a5.31 5.31 0 0 1 1.078.616c.336.233.611.527.826.882.224.345.336.78.336 1.302 0 .523-.089.975-.266 1.358a2.483 2.483 0 0 1-.728.938 3.005 3.005 0 0 1-1.134.56 5.458 5.458 0 0 1-1.456.182c-.7 0-1.316-.065-1.848-.196-.532-.13-.924-.261-1.176-.392l.616-1.638c.103.056.233.117.392.182a6.492 6.492 0 0 0 1.204.322c.233.037.471.056.714.056.569 0 1.003-.093 1.302-.28.308-.196.462-.49.462-.882zM294.494 52h.966v-1.316l1.82-.518V52h1.708v1.54h-1.708v2.688c0 .485.046.835.14 1.05.102.205.289.308.56.308.186 0 .345-.019.476-.056.14-.037.294-.093.462-.168l.322 1.4a4.623 4.623 0 0 1-.882.308 4.2 4.2 0 0 1-1.022.126c-.644 0-1.12-.163-1.428-.49-.299-.336-.448-.882-.448-1.638V53.54h-.966V52zm5.567.406a5.746 5.746 0 0 1 1.33-.392 8.189 8.189 0 0 1 1.61-.154c.485 0 .891.06 1.218.182.326.112.583.275.77.49.196.215.331.471.406.77.084.299.126.635.126 1.008 0 .41-.014.826-.042 1.246-.028.41-.047.817-.056 1.218 0 .401.014.793.042 1.176.028.373.098.728.21 1.064h-1.484l-.294-.966h-.07c-.187.29-.448.541-.784.756-.327.205-.752.308-1.274.308-.327 0-.621-.047-.882-.14a2.04 2.04 0 0 1-.672-.42 1.994 1.994 0 0 1-.434-.644 2.2 2.2 0 0 1-.154-.84c0-.43.093-.789.28-1.078.196-.299.471-.537.826-.714a3.935 3.935 0 0 1 1.288-.378 8.785 8.785 0 0 1 1.68-.07c.065-.523.028-.896-.112-1.12-.14-.233-.453-.35-.938-.35a6.5 6.5 0 0 0-1.162.112 4.213 4.213 0 0 0-.994.294l-.434-1.358zm2.31 5.208c.364 0 .653-.08.868-.238.214-.168.373-.345.476-.532v-.91a5.082 5.082 0 0 0-.84-.014c-.262.019-.495.06-.7.126a1.182 1.182 0 0 0-.49.28.623.623 0 0 0-.182.462c0 .261.074.467.224.616.158.14.373.21.644.21zm8.541-3.906a2.37 2.37 0 0 0-.784-.154c-.327 0-.602.089-.826.266a1.227 1.227 0 0 0-.434.658V59h-1.82v-7h1.414l.21.924h.056a1.91 1.91 0 0 1 .644-.798c.271-.187.588-.28.952-.28.243 0 .518.051.826.154l-.238 1.708zm3.942 3.36a.522.522 0 0 0-.238-.448 2.831 2.831 0 0 0-.588-.308c-.233-.093-.49-.187-.77-.28a3.203 3.203 0 0 1-.77-.406 2.356 2.356 0 0 1-.588-.658c-.158-.27-.238-.616-.238-1.036 0-.69.206-1.218.616-1.582.411-.364 1.004-.546 1.778-.546.532 0 1.013.056 1.442.168.43.112.766.238 1.008.378l-.406 1.316a9.158 9.158 0 0 0-.812-.266 3.599 3.599 0 0 0-.994-.14c-.541 0-.812.21-.812.63 0 .168.08.303.238.406.159.103.355.2.588.294.234.084.49.177.77.28.28.103.537.238.77.406.234.159.43.369.588.63.159.261.238.597.238 1.008 0 .71-.228 1.27-.686 1.68-.448.401-1.124.602-2.03.602-.494 0-.961-.065-1.4-.196-.429-.121-.779-.266-1.05-.434l.504-1.358c.215.121.5.243.854.364.355.112.719.168 1.092.168.271 0 .486-.051.644-.154.168-.103.252-.275.252-.518zM322.146 59v-3.976c0-.57-.079-.98-.238-1.232-.158-.252-.448-.378-.868-.378-.308 0-.592.107-.854.322-.252.205-.42.471-.504.798V59h-1.82v-9.8h1.82v3.584h.056c.224-.299.5-.537.826-.714.327-.177.742-.266 1.246-.266.355 0 .668.047.938.14.271.093.495.247.672.462.187.215.322.509.406.882.094.364.14.817.14 1.358V59h-1.82zm3.513-7h1.82v7h-1.82v-7zm-.266-1.974c0-.27.098-.5.294-.686.206-.196.486-.294.84-.294.355 0 .64.098.854.294a.861.861 0 0 1 .336.686c0 .27-.112.5-.336.686-.214.177-.499.266-.854.266-.354 0-.634-.089-.84-.266a.91.91 0 0 1-.294-.686zM329.251 52h1.33l.21.84h.056c.243-.355.527-.616.854-.784.336-.168.742-.252 1.218-.252.877 0 1.535.28 1.974.84.439.55.658 1.442.658 2.674 0 .597-.07 1.139-.21 1.624-.14.476-.35.882-.63 1.218a2.654 2.654 0 0 1-1.008.77c-.392.177-.845.266-1.358.266a3.02 3.02 0 0 1-.714-.07 2.229 2.229 0 0 1-.56-.196v2.87h-1.82V52zm3.122 1.344c-.355 0-.635.089-.84.266-.196.177-.35.443-.462.798v2.912c.131.103.271.187.42.252.159.056.364.084.616.084.523 0 .915-.182 1.176-.546.261-.373.392-.985.392-1.834 0-.616-.103-1.092-.308-1.428-.205-.336-.537-.504-.994-.504z" fill="url(#paint0_linear)"/><rect x="538" y="40" width="152" height="32" rx="3" fill="url(#paint1_linear)" fill-opacity=".3" filter="url(#filter0_f)"/><rect x="534" y="35" width="159" height="34" rx="3" fill="url(#paint2_linear)"/><path d="M550.59 49.224c-.741 0-1.314.28-1.72.838-.407.554-.61 1.329-.61 2.323 0 2.07.777 3.104 2.33 3.104.652 0 1.441-.163 2.368-.488v1.65c-.762.317-1.613.476-2.552.476-1.35 0-2.383-.408-3.098-1.225-.715-.821-1.073-1.998-1.073-3.53 0-.964.176-1.809.527-2.532.351-.728.855-1.285 1.511-1.67.66-.389 1.432-.584 2.317-.584.901 0 1.807.218 2.717.654l-.635 1.6a10.528 10.528 0 0 0-1.047-.432 3.133 3.133 0 0 0-1.035-.184zM561.336 57H559.4v-4.145c0-1.024-.38-1.536-1.142-1.536-.542 0-.933.184-1.175.552-.241.368-.361.965-.361 1.79V57h-1.936v-9.877h1.936v2.012c0 .157-.015.525-.045 1.105l-.044.571h.101c.432-.694 1.118-1.041 2.057-1.041.834 0 1.466.224 1.898.673.432.448.647 1.092.647 1.93V57zm4.933-5.852c-.411 0-.733.13-.965.393-.233.258-.366.626-.4 1.105h2.717c-.009-.479-.134-.847-.375-1.105-.241-.262-.567-.393-.977-.393zm.273 5.979c-1.143 0-2.036-.315-2.679-.946-.643-.63-.965-1.523-.965-2.679 0-1.189.296-2.107.889-2.754.596-.652 1.419-.978 2.469-.978 1.003 0 1.784.286 2.342.857.559.571.838 1.36.838 2.368v.94h-4.577c.022.55.184.979.489 1.288.305.309.732.463 1.282.463.428 0 .832-.044 1.213-.133a6.06 6.06 0 0 0 1.193-.426v1.498c-.338.17-.7.295-1.085.375a6.68 6.68 0 0 1-1.409.127zm7.35 0c-2.209 0-3.313-1.212-3.313-3.637 0-1.206.3-2.127.901-2.762.601-.639 1.462-.958 2.583-.958.821 0 1.558.16 2.209.482l-.571 1.498a9.115 9.115 0 0 0-.85-.298 2.68 2.68 0 0 0-.788-.12c-1.007 0-1.51.715-1.51 2.145 0 1.388.503 2.082 1.51 2.082.373 0 .718-.049 1.035-.146.318-.101.635-.258.952-.47V56.6c-.313.199-.63.337-.952.413-.317.076-.719.114-1.206.114zm5.669-3.986l.844-1.08 1.987-2.158h2.183l-2.818 3.079 2.99 4.018h-2.235l-2.044-2.876-.831.667V57h-1.936v-9.877h1.936v4.405l-.102 1.613h.026zm11.121.298c0 .702.114 1.233.342 1.593.233.36.61.54 1.13.54.517 0 .887-.178 1.111-.533.229-.36.343-.893.343-1.6 0-.703-.114-1.23-.343-1.58-.228-.352-.603-.528-1.123-.528-.517 0-.889.176-1.118.527-.228.347-.342.874-.342 1.581zm4.906 0c0 1.155-.304 2.059-.914 2.71-.609.652-1.458.978-2.545.978-.681 0-1.282-.148-1.803-.444-.52-.3-.92-.73-1.2-1.289-.279-.559-.418-1.21-.418-1.955 0-1.16.302-2.06.907-2.704.605-.643 1.456-.965 2.552-.965.681 0 1.282.148 1.803.444.52.297.92.722 1.199 1.276.28.555.419 1.204.419 1.949zM602.215 57l-.26-.908h-.101c-.208.33-.502.586-.883.768a3.042 3.042 0 0 1-1.301.267c-.834 0-1.462-.222-1.885-.667-.424-.448-.635-1.091-.635-1.93v-4.627h1.936v4.145c0 .512.091.898.273 1.156.182.254.472.38.87.38.541 0 .933-.18 1.174-.54.241-.363.362-.964.362-1.802v-3.339h1.936V57h-1.486zm6.507-1.416c.338 0 .744-.074 1.218-.222v1.441c-.482.216-1.074.324-1.777.324-.774 0-1.339-.195-1.695-.584-.351-.394-.527-.982-.527-1.765v-3.421h-.926v-.819l1.066-.647.559-1.498h1.237v1.51h1.987v1.454h-1.987v3.421c0 .275.077.479.229.61.157.13.362.197.616.197zm11.667-1.161c0 .838-.303 1.498-.908 1.98-.601.483-1.439.724-2.514.724-.99 0-1.866-.186-2.628-.559V54.74c.627.28 1.156.476 1.587.59.436.115.834.172 1.194.172.431 0 .761-.083.99-.248.233-.165.349-.41.349-.736a.803.803 0 0 0-.152-.482 1.67 1.67 0 0 0-.451-.413c-.195-.131-.595-.34-1.2-.628-.567-.267-.992-.523-1.276-.768a2.887 2.887 0 0 1-.679-.857c-.169-.326-.254-.707-.254-1.143 0-.82.277-1.466.832-1.936.558-.47 1.329-.705 2.31-.705.483 0 .942.058 1.378.172.44.114.899.275 1.377.482l-.635 1.53a9.19 9.19 0 0 0-1.231-.425 3.918 3.918 0 0 0-.952-.12c-.373 0-.658.086-.857.26a.858.858 0 0 0-.298.679c0 .173.04.325.12.457.081.127.208.251.381.374.178.119.595.334 1.251.648.867.414 1.462.831 1.783 1.25.322.415.483.925.483 1.53zm4.519 1.161c.339 0 .745-.074 1.219-.222v1.441c-.482.216-1.075.324-1.777.324-.775 0-1.34-.195-1.695-.584-.351-.394-.527-.982-.527-1.765v-3.421h-.927v-.819l1.067-.647.558-1.498h1.238v1.51h1.987v1.454h-1.987v3.421c0 .275.076.479.228.61.157.13.362.197.616.197zM632.075 57l-.375-.965h-.051c-.325.41-.662.696-1.009.857-.343.157-.791.235-1.346.235-.681 0-1.218-.195-1.612-.584-.389-.39-.584-.944-.584-1.663 0-.753.263-1.308.787-1.663.529-.36 1.325-.559 2.387-.597l1.231-.038v-.311c0-.72-.368-1.08-1.104-1.08-.567 0-1.234.172-2 .515l-.641-1.308c.817-.427 1.723-.64 2.717-.64.952 0 1.682.207 2.19.621.508.415.762 1.046.762 1.892V57h-1.352zm-.572-3.288l-.749.025c-.562.017-.981.119-1.256.305-.276.186-.413.47-.413.85 0 .546.313.82.939.82.449 0 .807-.13 1.073-.388.271-.258.406-.6.406-1.028v-.584zm7.884-3.942c.263 0 .481.02.654.057l-.146 1.816a2.22 2.22 0 0 0-.571-.064c-.618 0-1.101.159-1.448.476-.342.318-.514.762-.514 1.333V57h-1.936v-7.097h1.467l.285 1.194h.095c.22-.398.517-.718.889-.959a2.201 2.201 0 0 1 1.225-.368zm6.894 5.123c0 .727-.254 1.282-.762 1.663-.504.38-1.259.571-2.266.571-.516 0-.956-.036-1.32-.108a4.854 4.854 0 0 1-1.022-.305v-1.6c.359.17.763.312 1.212.426.453.114.851.171 1.193.171.703 0 1.054-.203 1.054-.609a.494.494 0 0 0-.14-.368c-.093-.097-.253-.205-.482-.324a11.113 11.113 0 0 0-.914-.425c-.546-.229-.948-.44-1.206-.635a1.84 1.84 0 0 1-.559-.666c-.114-.254-.171-.565-.171-.933 0-.631.243-1.118.73-1.46.491-.347 1.185-.521 2.082-.521.855 0 1.686.186 2.495.559l-.584 1.396a10.8 10.8 0 0 0-.997-.374 3.13 3.13 0 0 0-.946-.146c-.571 0-.857.154-.857.463 0 .174.091.324.273.45.186.128.591.316 1.213.566.554.224.96.433 1.218.628.259.195.449.419.572.673.122.254.184.556.184.908zM654.342 57h-1.936v-4.145c0-1.024-.381-1.536-1.142-1.536-.542 0-.933.184-1.175.552-.241.368-.361.965-.361 1.79V57h-1.936v-9.877h1.936v2.012c0 .157-.015.525-.045 1.105l-.044.571h.101c.432-.694 1.117-1.041 2.057-1.041.834 0 1.466.224 1.898.673.431.448.647 1.092.647 1.93V57zm1.911-8.931c0-.63.351-.946 1.054-.946.702 0 1.053.315 1.053.946 0 .3-.089.535-.266.704-.174.165-.436.248-.787.248-.703 0-1.054-.317-1.054-.952zM658.271 57h-1.936v-7.097h1.936V57zm5.936.127c-.834 0-1.488-.303-1.962-.908h-.101c.067.593.101.935.101 1.029v2.875h-1.936v-10.22h1.574l.273.92h.089c.453-.702 1.124-1.053 2.012-1.053.838 0 1.494.324 1.968.971.474.648.711 1.547.711 2.698 0 .758-.112 1.416-.336 1.974-.22.559-.536.984-.946 1.276-.411.292-.893.438-1.447.438zm-.572-5.808c-.478 0-.827.148-1.047.444-.22.292-.334.777-.343 1.454v.21c0 .761.112 1.307.337 1.637.228.33.588.495 1.079.495.867 0 1.301-.715 1.301-2.145 0-.699-.108-1.221-.324-1.568-.211-.351-.546-.527-1.003-.527zM675 56.326v-8.652c0-.6.639-.9 1.012-.476l3.814 4.327a.737.737 0 0 1 0 .95l-3.814 4.327c-.373.423-1.012.123-1.012-.476z" fill="#fff"/></g></g><defs><filter id="filter0_f" x="531" y="33" width="166" height="46" filterUnits="userSpaceOnUse" color-interpolation-filters="sRGB"><feFlood flood-opacity="0" result="BackgroundImageFix"/><feBlend in="SourceGraphic" in2="BackgroundImageFix" result="shape"/><feGaussianBlur stdDeviation="3.5" result="effect1_foregroundBlur"/></filter><linearGradient id="paint0_linear" x1="287" y1="55.435" x2="337" y2="55.435" gradientUnits="userSpaceOnUse"><stop stop-color="#D50C85"/><stop offset=".443" stop-color="#D20FCF"/><stop offset="1" stop-color="#8A0DEA"/></linearGradient><linearGradient id="paint1_linear" x1="538" y1="56" x2="690" y2="56" gradientUnits="userSpaceOnUse"><stop stop-color="#D50B84"/><stop offset=".49" stop-color="#C30DC9"/><stop offset="1" stop-color="#890CEA"/></linearGradient><linearGradient id="paint2_linear" x1="534" y1="52" x2="693" y2="52" gradientUnits="userSpaceOnUse"><stop stop-color="#D50B84"/><stop offset=".49" stop-color="#C30DC9"/><stop offset="1" stop-color="#890CEA"/></linearGradient><clipPath id="clip0"><path fill="#fff" d="M0 0h726v102H0z"/></clipPath></defs></svg>
